<svg width="1080" height="1080" viewBox="0 0 1080 1080" fill="none" xmlns="http://www.w3.org/2000/svg">
<g clip-path="url(#clip0_7_2)">
<mask id="mask0_7_2" style="mask-type:luminance" maskUnits="userSpaceOnUse" x="0" y="0" width="1080" height="1080">
<path d="M1080 0H0V1080H1080V0Z" fill="white"/>
</mask>
<g mask="url(#mask0_7_2)">
<g opacity="0.32">
<path d="M788.853 545.18C760.87 554.802 739.043 570.312 718.878 585.993C698.803 601.604 680.201 618.364 664.478 636.235C634.283 670.556 609.706 709.686 589.109 750.408C584.21 760.096 579.265 769.701 575.485 779.562C572.622 787.031 570.113 797.195 563.435 802.574C560.601 804.856 563.594 808.57 566.288 806.113C571.162 801.668 573.486 795.192 575.54 789.22C578.157 781.612 581.081 774.013 584.464 766.493C593.166 747.153 603.338 727.786 614.757 708.644C640.015 666.302 671.281 626.986 709.476 595.598C732.719 576.496 758.72 559.046 789.597 545.725C790.189 545.47 789.466 544.97 788.853 545.18Z" fill="url(#paint0_linear_7_2)"/>
<path d="M914.46 522.208C914.46 522.208 912.391 522.373 908.886 522.817C905.284 523.122 900.449 523.992 894.558 524.895C891.609 525.342 888.482 525.915 885.169 526.514C881.863 527.12 878.429 527.83 874.81 528.483C867.663 529.907 859.962 531.372 852.436 533.096C844.729 534.628 837.214 536.434 829.886 537.922C822.659 539.513 815.527 540.708 809.609 541.98C803.733 543.29 798.069 543.747 794.432 544.381C790.502 544.753 788.271 545.009 788.271 545.009C788.271 545.009 789.595 543.979 791.954 542.204C794.61 540.691 797.953 538.134 803.065 536.043C805.619 534.998 808.324 533.808 811.279 532.64C814.246 531.484 817.433 530.313 820.905 529.28C827.742 527.107 835.616 525.37 843.61 523.837C851.807 522.509 860.151 521.416 868.34 520.919C872.409 520.639 876.438 520.513 880.312 520.491C882.244 520.476 884.128 520.475 885.954 520.483C887.793 520.51 889.573 520.548 891.282 520.593C894.679 520.655 897.885 520.86 900.728 521.069C903.567 521.272 906.042 521.475 908.052 521.61C912.152 521.996 914.46 522.208 914.46 522.208Z" fill="url(#paint1_linear_7_2)"/>
<path d="M903.54 547.117C903.54 547.117 901.547 547.103 898.114 547.209C894.625 547.175 889.755 547.409 883.809 547.455C877.857 547.488 871.057 547.866 863.709 548.162C856.389 548.516 848.56 548.884 840.824 549.489C836.888 549.722 833.12 550.025 829.155 550.332C825.215 550.629 821.363 550.871 817.645 551.072C810.249 551.549 803.327 551.772 797.593 552.388C791.878 552.995 786.95 553.371 783.676 553.968C781.977 554.188 780.658 554.403 779.767 554.569C778.865 554.727 778.387 554.813 778.387 554.813C778.387 554.813 778.759 554.62 779.459 554.261C780.156 553.893 781.205 553.372 782.606 552.749C785.507 551.637 789.695 549.915 795.329 548.705C800.945 547.503 807.57 546.189 814.821 545.398C818.393 544.979 822.099 544.592 825.884 544.249C829.702 543.882 833.598 543.56 837.517 543.293C845.475 542.888 853.508 542.694 861.189 542.907C868.842 543.062 876.177 543.72 882.405 544.225C888.639 544.743 893.995 545.635 897.678 546.126C901.416 546.757 903.54 547.117 903.54 547.117Z" fill="url(#paint2_linear_7_2)"/>
<path d="M872.961 564.591C872.961 564.591 871.062 564.744 867.769 565.069C866.098 565.181 864.06 565.332 861.739 565.525C859.409 565.717 856.767 565.921 853.84 566.014C847.998 566.248 841.23 566.732 833.91 567.041C826.609 567.387 818.799 567.623 811.086 568.067C803.329 568.334 795.679 568.849 788.484 569.216C781.343 569.711 774.532 569.847 768.841 570.397C765.984 570.652 763.325 570.812 760.934 570.922C758.54 571.028 756.431 571.116 754.752 571.303C751.254 571.465 749.262 571.593 749.262 571.593C749.262 571.593 750.885 570.842 753.768 569.568C755.268 569.019 757.066 568.298 759.183 567.54C761.29 566.761 763.736 565.986 766.51 565.353C772.046 564.052 778.527 562.499 785.778 561.637C792.985 560.68 800.851 560.249 808.717 560.001C816.628 559.921 824.535 560.012 832.025 560.461C839.47 560.801 846.569 561.648 852.571 562.1C855.585 562.366 858.371 562.686 860.854 562.993C863.343 563.316 865.525 563.621 867.292 563.786C870.897 564.273 872.961 564.591 872.961 564.591Z" fill="url(#paint3_linear_7_2)"/>
<path d="M855.362 578.339C855.362 578.339 853.268 578.449 849.634 578.712C845.968 578.856 840.848 579.39 834.65 579.818C831.55 580.024 828.222 580.344 824.717 580.715C821.217 581.1 817.557 581.598 813.751 582.057C806.168 583.058 798.048 584.092 789.976 585.324C781.82 586.36 773.714 587.615 765.962 588.491C762.1 588.969 758.333 589.342 754.737 589.629C751.12 589.864 747.724 590.114 744.578 590.336C743.011 590.46 741.504 590.55 740.068 590.619C738.625 590.669 737.247 590.675 735.959 590.689C733.38 590.713 731.146 590.722 729.31 590.739C725.636 590.594 723.534 590.555 723.534 590.555C723.534 590.555 725.478 589.913 728.918 588.852C730.649 588.457 732.706 587.79 735.069 587.113C736.249 586.772 737.508 586.44 738.837 586.097C740.162 585.735 741.561 585.384 743.032 585.067C745.982 584.468 749.127 583.64 752.48 582.893C755.843 582.165 759.401 581.42 763.147 580.839C770.594 579.536 778.722 578.541 786.927 577.683C795.192 576.955 803.539 576.389 811.514 576.236C815.488 576.12 819.384 576.162 823.078 576.206C826.765 576.233 830.266 576.323 833.497 576.4C839.956 576.56 845.489 577.218 849.307 577.56C853.158 578.026 855.362 578.339 855.362 578.339Z" fill="url(#paint4_linear_7_2)"/>
<path d="M830.467 599C830.467 599 829.909 598.986 828.864 598.966C827.821 598.956 826.299 598.902 824.374 598.948C820.527 598.815 815.101 599.184 808.69 599.453C802.263 599.696 794.92 600.645 787.011 601.521C779.12 602.471 770.618 603.376 762.025 604.432C753.355 605.258 744.86 606.185 736.856 606.844C728.886 607.627 721.405 607.923 715.077 608.601C708.751 609.278 703.328 609.336 699.602 609.733C695.803 609.896 693.628 610.036 693.628 610.036C693.628 610.036 695.558 609.15 698.986 607.665C702.49 606.424 707.445 604.295 713.677 602.752C719.908 601.207 727.166 599.259 735.078 598.023C742.955 596.657 751.485 595.779 759.887 594.931C768.36 594.278 776.975 593.612 785.274 593.617C793.55 593.54 801.472 594.206 808.208 594.806C814.959 595.427 820.572 596.685 824.44 597.464C826.375 597.905 827.878 598.329 828.901 598.588C829.923 598.854 830.467 599 830.467 599Z" fill="url(#paint5_linear_7_2)"/>
<path d="M793.508 614.123C793.508 614.123 793.032 614.199 792.143 614.347C791.251 614.489 789.952 614.725 788.309 615.055C784.984 615.544 780.331 616.586 774.698 617.551C769.065 618.503 762.607 619.99 755.642 621.389C748.697 622.864 741.236 624.262 733.857 625.971C726.414 627.486 718.939 628.952 711.855 630.094C704.782 631.315 698.07 631.969 692.384 632.731C690.963 632.928 689.596 633.086 688.294 633.214C686.984 633.316 685.74 633.383 684.572 633.442C682.237 633.564 680.209 633.635 678.544 633.713C675.215 633.663 673.304 633.673 673.304 633.673C673.304 633.673 675.096 632.93 678.266 631.691C679.856 631.219 681.757 630.467 683.939 629.694C685.03 629.309 686.193 628.921 687.42 628.542C688.645 628.134 689.936 627.74 691.292 627.377C696.731 625.96 702.945 623.825 709.779 622.272C716.589 620.576 723.954 619.05 731.448 617.835C738.986 616.739 746.542 615.609 753.766 614.96C760.967 614.223 767.848 614.049 773.709 613.774C779.573 613.526 784.578 613.796 788.033 613.832C789.78 613.932 791.149 614.01 792.079 614.05C793.011 614.095 793.508 614.123 793.508 614.123Z" fill="url(#paint6_linear_7_2)"/>
<path d="M769.143 630.515C769.143 630.515 767.269 630.866 764.02 631.543C760.747 632.124 756.145 633.202 750.628 634.429C745.107 635.633 738.773 637.358 731.986 639.146C725.208 640.97 717.976 642.877 710.785 644.932C703.537 646.815 696.328 648.852 689.477 650.504C682.639 652.221 676.138 653.396 670.625 654.58C669.246 654.877 667.922 655.144 666.651 655.355C665.376 655.551 664.163 655.717 663.022 655.864C661.881 656.007 660.815 656.147 659.826 656.256C658.837 656.36 657.925 656.44 657.111 656.553C653.826 656.776 651.943 656.944 651.943 656.944C651.943 656.944 653.654 656.09 656.69 654.654C658.225 654.061 660.047 653.173 662.158 652.281C663.214 651.833 664.34 651.378 665.534 650.935C666.725 650.476 667.981 650.005 669.306 649.576C674.622 647.905 680.688 645.529 687.399 643.713C694.111 641.788 701.332 639.943 708.633 638.337C715.979 636.785 723.388 635.344 730.443 634.284C737.476 633.158 744.175 632.504 749.886 631.842C755.608 631.224 760.454 630.989 763.816 630.733C767.202 630.568 769.143 630.515 769.143 630.515Z" fill="url(#paint7_linear_7_2)"/>
<path d="M752.389 648.482C752.389 648.482 750.448 648.975 747.094 649.912C743.707 650.728 738.969 652.204 733.241 653.725C727.51 655.234 720.949 657.335 713.894 659.454C706.887 661.718 699.403 664.069 691.959 666.558C684.484 668.887 676.956 671.364 669.938 673.393C662.912 675.554 656.101 677.158 650.25 678.479C644.381 679.846 639.312 680.147 635.885 680.451C634.146 680.468 632.81 680.477 631.903 680.424C631.004 680.389 630.523 680.374 630.523 680.374C630.523 680.374 631.001 680.194 631.898 679.864C632.788 679.555 634.082 679.018 635.686 678.353C638.941 677.218 643.356 674.969 648.734 672.867C654.132 670.716 660.33 667.955 667.29 665.581C674.27 663.106 681.742 660.992 689.34 658.883C696.977 656.955 704.674 655.119 712.017 653.728C719.313 652.198 726.28 651.209 732.232 650.301C738.186 649.403 743.28 649.117 746.801 648.782C750.354 648.561 752.389 648.482 752.389 648.482Z" fill="url(#paint8_linear_7_2)"/>
<path d="M712.88 680.463C712.88 680.463 711.357 681.071 708.726 682.182C707.395 682.698 705.777 683.336 703.936 684.088C702.091 684.837 700.007 685.672 697.699 686.482C693.105 688.165 687.762 690.182 681.995 692.24C676.273 694.439 670.122 696.659 663.951 698.904C660.831 699.905 657.735 701.008 654.645 701.965C653.102 702.451 651.582 702.973 650.054 703.403C648.538 703.874 647.039 704.341 645.559 704.781C639.638 706.569 633.964 707.668 629.123 708.668C626.706 709.201 624.442 709.44 622.43 709.605C620.421 709.788 618.661 709.884 617.225 710.022C614.327 710.039 612.659 710.086 612.659 710.086C612.659 710.086 614.167 709.194 616.838 707.692C618.19 707.102 619.801 706.225 621.652 705.3C622.579 704.841 623.566 704.375 624.612 703.924C625.656 703.464 626.751 702.976 627.911 702.567C632.561 700.944 637.874 698.721 643.717 697.133C645.166 696.676 646.648 696.256 648.155 695.852C649.659 695.442 651.169 694.972 652.704 694.557C655.779 693.745 658.887 692.858 662.019 692.063C668.3 690.513 674.586 688.948 680.544 687.639C686.42 686.077 692.015 684.907 696.761 683.711C699.147 683.161 701.349 682.684 703.31 682.277C705.278 681.893 707.002 681.578 708.401 681.257C711.247 680.732 712.88 680.463 712.88 680.463Z" fill="url(#paint9_linear_7_2)"/>
<path d="M839.322 488.265C839.322 488.265 838.705 489.305 837.833 491.206C837.299 492.121 836.647 493.239 835.907 494.522C835.177 495.81 834.301 497.25 833.146 498.753C830.861 501.767 828.488 505.404 825.354 509.103C822.31 512.833 818.633 516.665 815.029 520.529C811.144 524.289 807.37 528.094 803.394 531.516C799.595 534.999 795.298 538.007 792.047 540.746C788.796 543.485 785.234 545.515 783.148 547.078C780.741 548.545 779.388 549.398 779.388 549.398C779.388 549.398 779.709 548.237 780.282 546.208C781.176 544.273 781.942 541.344 784.068 538.198C786.187 535.049 788.316 531.269 791.575 527.544C794.658 523.764 798.562 519.949 802.458 516.16C806.608 512.458 810.766 508.785 815.03 505.489C819.152 502.148 823.606 499.252 826.963 496.621C830.391 494.017 833.774 492.029 835.8 490.521C838.104 489.106 839.322 488.265 839.322 488.265Z" fill="url(#paint10_linear_7_2)"/>
<path d="M795.753 490.851C795.753 490.851 795.29 491.96 794.489 493.904C793.468 495.791 792.495 498.617 790.637 501.821C788.73 505.014 787.064 508.871 784.752 512.851C782.595 516.866 780.032 521.063 777.768 525.303C775.241 529.487 773.085 533.717 770.745 537.636C768.685 541.59 765.777 545.182 764.226 548.418C763.359 550.025 762.45 551.495 761.594 552.806C760.708 554.115 759.925 555.269 759.473 556.233C758.809 557.191 758.292 557.947 757.94 558.461C757.61 558.981 757.435 559.258 757.435 559.258C757.435 559.258 757.35 558.97 757.189 558.431C757.005 557.887 756.736 557.088 756.39 556.073C756.209 555.061 755.894 553.822 755.663 552.398C755.403 550.972 755.179 549.356 755.348 547.617C755.396 546.743 755.445 545.83 755.498 544.887C755.581 543.943 755.668 542.967 755.757 541.964C755.92 539.949 756.329 537.843 757.055 535.695C758.424 531.393 760.828 526.931 763.465 522.555C766.45 518.24 769.661 514.007 773.259 510.208C776.754 506.391 780.771 503.042 783.88 500.123C787.014 497.208 790.332 494.981 792.293 493.334C794.483 491.746 795.753 490.851 795.753 490.851Z" fill="url(#paint11_linear_7_2)"/>
<path d="M753.036 506.054C753.036 506.054 752.61 507.223 751.879 509.272C750.959 511.287 750.04 514.232 748.39 517.665C746.704 521.094 745.187 525.157 743.181 529.442C741.532 533.765 739.832 538.375 738.191 542.999C736.416 547.586 734.925 552.183 733.226 556.463C731.798 560.758 729.729 564.737 728.518 568.194C728.213 569.058 727.853 569.885 727.466 570.674C727.11 571.463 726.736 572.213 726.356 572.92C725.596 574.336 724.837 575.583 724.438 576.611C723.157 578.693 722.444 579.887 722.444 579.887C722.444 579.887 721.916 578.724 720.978 576.694C720.7 575.665 720.292 574.414 719.94 572.966C719.762 572.242 719.591 571.467 719.477 570.648C719.393 569.831 719.354 568.969 719.388 568.069C719.471 564.469 719.562 560.237 720.851 555.742C721.953 551.241 724.024 546.498 726.272 541.806C728.816 537.14 731.586 532.528 734.616 528.291C737.291 524.011 740.459 520.133 743.006 516.808C745.554 513.482 748.349 510.84 750.04 508.953C751.934 507.103 753.036 506.054 753.036 506.054Z" fill="url(#paint12_linear_7_2)"/>
<path d="M711.296 524.27C711.296 524.27 711.528 525.499 711.93 527.652C712.059 529.814 712.752 532.902 712.656 536.629C712.617 538.492 712.6 540.511 712.679 542.644C712.772 544.778 712.859 547.027 712.786 549.353C712.781 551.678 712.676 554.08 712.531 556.515C712.457 557.732 712.383 558.959 712.312 560.189C712.3 561.416 712.29 562.648 712.281 563.88C712.106 566.337 711.938 568.793 711.781 571.213C711.681 572.42 711.588 573.614 711.453 574.795C711.41 575.151 711.388 575.328 711.346 575.682C711.287 576.069 711.257 576.263 711.197 576.65C711.102 577.295 710.97 577.928 710.812 578.552C710.562 579.804 710.251 581.022 709.758 582.192C709.272 583.369 708.714 584.496 708.153 585.582C707.028 587.755 705.856 589.762 704.957 591.6C703.155 595.266 700.51 598.273 699.387 600.45C698.604 601.538 697.991 602.412 697.608 603.012C697.211 603.615 697.002 603.937 697.002 603.937C697.002 603.937 696.843 603.637 696.543 603.075C696.232 602.51 695.828 601.674 695.329 600.586C694.801 598.408 693.469 595.207 693.631 591.409C693.708 589.516 693.651 587.488 693.622 585.395C693.615 584.362 693.612 583.302 693.607 582.219C693.625 581.149 693.784 580.069 693.907 578.988C694.005 577.89 694.106 576.774 694.211 575.645C694.341 574.428 694.508 573.192 694.727 571.947C695.145 569.456 695.707 566.927 696.289 564.403C696.667 563.138 697.05 561.875 697.438 560.616C697.778 559.361 698.121 558.113 698.465 556.874C699.172 554.4 699.939 551.965 700.797 549.613C701.585 547.262 702.522 544.988 703.417 542.835C704.302 540.683 705.034 538.654 705.684 536.783C706.975 533.041 708.709 529.906 709.573 527.719C710.66 525.522 711.296 524.27 711.296 524.27Z" fill="url(#paint13_linear_7_2)"/>
<path d="M672.347 546.647C672.347 546.647 672.771 547.832 673.505 549.908C674.037 552.02 675.18 555.001 675.81 558.7C676.407 562.4 677.283 566.708 677.661 571.368C678.142 576.016 678.244 580.99 678.566 585.891C678.591 587.119 678.617 588.348 678.647 589.571C678.668 590.299 678.68 590.665 678.702 591.394C678.709 592.046 678.716 592.696 678.724 593.342C678.697 595.931 678.463 598.452 678.071 600.871C677.449 605.694 675.971 610.133 675.359 613.876C674.751 617.597 673.538 620.83 673.306 623.058C672.999 624.207 672.818 625.115 672.713 625.736C672.595 626.364 672.534 626.698 672.534 626.698C672.534 626.698 672.316 626.436 671.904 625.946C671.481 625.455 670.885 624.722 670.206 623.745C669.168 621.734 667.309 618.814 666.736 615.02C666.139 611.25 665.371 606.858 665.413 602.212C665.332 599.902 665.375 597.535 665.344 595.191C665.314 593.981 665.284 592.763 665.258 591.538C665.251 590.269 665.247 588.996 665.244 587.722C665.582 582.587 666.099 577.475 666.989 572.663C667.779 567.864 669.016 563.345 669.696 559.516C670.412 555.686 671.397 552.426 671.675 550.196C672.155 547.935 672.347 546.647 672.347 546.647Z" fill="#153448"/>
<path d="M643.441 577.358C643.441 577.358 643.33 577.684 643.125 578.298C642.952 578.912 642.563 579.797 642.352 580.921C641.637 583.17 641.518 586.31 641.279 590.002C641.018 593.713 641.58 597.903 642.06 602.369C642.642 606.82 643.28 611.557 644.254 616.207C644.978 620.898 646.033 625.581 646.856 629.841C647.831 633.877 648.861 637.93 650.049 641.38C651.281 644.812 651.379 648.136 651.644 650.316C651.634 651.467 651.618 652.361 651.578 652.978C651.547 653.588 651.531 653.913 651.531 653.913C651.531 653.913 651.316 653.668 650.908 653.21C650.511 652.75 649.885 652.097 649.079 651.289C647.725 649.557 645.145 647.453 642.919 644.462C640.721 641.467 637.578 638.071 635.852 633.443C634.076 629.021 633.154 624.176 632.438 619.208C631.993 614.186 631.86 609.084 632.488 604.161C633.008 599.258 634.445 594.541 635.752 590.547C637.169 586.523 639.343 583.167 640.748 580.887C641.497 579.744 642.288 578.865 642.725 578.268C643.191 577.674 643.441 577.358 643.441 577.358Z" fill="url(#paint14_linear_7_2)"/>
<path d="M603.223 613.903C603.223 613.903 603.258 615.09 603.336 617.162C603.317 619.241 603.693 622.115 604.013 625.546C604.055 627.292 604.594 629.061 604.981 630.958C605.514 632.818 606.024 634.784 606.649 636.773C607.871 640.765 609.414 644.896 611.153 648.904C612.818 652.939 614.76 656.813 616.549 660.435C618.48 663.972 619.937 667.487 621.747 670.203C622.203 670.877 622.591 671.56 622.931 672.237C623.265 672.919 623.661 673.504 623.963 674.121C624.609 675.317 625.065 676.49 625.676 677.27C626.597 679.094 627.221 680.146 627.221 680.146C627.221 680.146 625.899 679.749 623.559 679.09C622.417 678.7 621.153 678.115 619.686 677.412C618.972 677.049 618.152 676.691 617.443 676.202C616.728 675.717 616.005 675.178 615.297 674.58C613.816 673.421 612.444 672.024 610.907 670.569C610.134 669.844 609.514 669.003 608.82 668.17C608.167 667.317 607.418 666.48 606.89 665.515C604.375 661.842 602.663 657.447 601.215 652.994C600.118 648.393 599.255 643.733 599.214 639.149C599.091 636.892 599.272 634.627 599.394 632.512C599.651 630.355 599.802 628.358 600.014 626.499C600.359 622.8 601.385 619.587 601.977 617.392C602.758 615.172 603.223 613.903 603.223 613.903Z" fill="url(#paint15_linear_7_2)"/>
<path d="M574.727 646.76C574.727 646.76 575.788 647.353 577.786 648.348C578.739 648.882 579.871 649.555 581.162 650.357C581.832 650.742 582.466 651.21 583.156 651.693C583.794 652.209 584.43 652.776 585.067 653.39C587.667 655.811 590.529 658.783 593.204 662.197C595.89 665.597 598.203 669.484 600.52 673.298C602.566 677.234 604.695 681.042 606.304 684.76C606.77 685.652 607.197 686.538 607.569 687.439C607.932 688.341 608.288 689.223 608.636 690.083C608.971 690.952 609.297 691.797 609.614 692.615C609.94 693.429 610.313 694.172 610.669 694.899C611.036 695.614 611.307 696.362 611.573 697.068C611.858 697.759 612.091 698.447 612.298 699.112C612.498 699.789 612.686 700.423 612.86 701.009C613.049 701.589 613.27 702.09 613.483 702.537C613.992 704.603 614.389 705.779 614.389 705.779C614.389 705.779 613.103 705.372 610.828 704.693C610.338 704.446 609.735 704.215 609.111 703.934C608.502 703.635 607.841 703.312 607.134 702.97C606.433 702.615 605.699 702.22 604.962 701.77C604.244 701.308 603.575 700.76 602.904 700.161C600.178 697.798 596.992 694.989 594.601 691.368C592.077 687.848 590.131 683.724 588.251 679.656C586.635 675.456 585.044 671.313 583.756 667.344C583.034 665.411 582.471 663.449 581.779 661.691C581.118 659.912 580.506 658.205 579.725 656.767C579.355 656.034 579.041 655.302 578.743 654.601C578.415 653.923 578.081 653.29 577.84 652.642C577.336 651.359 576.858 650.247 576.28 649.461C575.351 647.719 574.727 646.76 574.727 646.76Z" fill="url(#paint16_linear_7_2)"/>
</g>
<path d="M389.868 701.196C399.53 711.895 407.441 724.012 413.722 736.98C415.507 740.659 417.544 744.17 419.897 747.365C422.391 750.747 425.698 754.256 429.887 754.193C436.295 754.104 439.325 746.223 439.731 739.836C441.514 712.018 426.223 686.811 425.256 659.296C425.107 655.061 425.16 650.741 425.273 646.366L413.05 635.295L425.493 638.443C425.961 620.992 425.876 603.308 416.015 588.414L405.94 596.295C405.94 596.295 410.05 590.316 413.741 585.134C406.752 575.328 398.678 565.765 396.02 553.971C394.1 545.419 395.506 536.648 396.5 527.855L382.709 522.025C382.709 522.025 390.704 519.774 397.258 517.184C397.264 516.232 397.242 515.274 397.199 514.321C396.482 499.46 389.105 486.691 380.642 474.914C375.921 468.341 370.956 461.748 365.401 455.749C362.926 457.573 360.815 459.101 360.815 459.101L361.2 451.44C358.015 448.361 354.637 445.503 351.003 442.964C348.488 441.2 339.51 435.097 336.235 436.744C326.782 441.509 324.697 454.361 326.968 464.696C329.118 474.483 332.879 483.215 334.317 492.754L341.559 494.49L334.89 500.235C334.897 501.011 334.879 501.787 334.837 502.578C333.882 520.735 324.291 540.666 322.94 558.706C331.228 556.022 339.422 553.994 339.422 553.994L323.959 572.754C326.043 580.93 331.166 588.421 341.284 594.803C344.565 596.874 347.901 598.728 351.107 600.706L353.987 593.841L355.051 603.315C358.989 606.086 362.548 609.32 365.3 613.744C373.416 626.804 372.412 642.839 373.157 658.272C376.596 661.082 379.609 663.556 379.609 663.556L373.789 666.597C374.226 670.459 374.912 674.24 376.018 677.881C378.69 686.65 383.697 694.364 389.868 701.196Z" fill="#153448"/>
<path d="M420.125 709.649C402.781 676.856 402.398 657.772 402.06 640.936C401.897 632.866 401.744 625.243 399.533 617.266C397.025 608.223 391.28 598.834 385.197 588.893C375.181 572.521 364.825 555.591 367.706 538.393C372.62 509.064 348.289 464.502 348.035 464.099L345.061 465.972L346.549 465.036L345.058 465.966C345.303 466.368 368.988 509.469 364.239 537.812C361.14 556.306 371.847 573.805 382.2 590.727C388.149 600.452 393.77 609.637 396.146 618.205C398.24 625.756 398.381 632.823 398.545 641.006C398.874 657.382 399.283 677.761 417.018 711.293L420.125 709.649Z" fill="white"/>
<path d="M297.842 605.222C297.842 605.222 262.744 594.762 270.941 584.685C279.138 574.609 298.116 605.147 298.116 605.147" fill="url(#paint17_linear_7_2)"/>
<path d="M314.825 614.768C314.825 614.768 281.167 629.203 281.012 616.215C280.856 603.227 314.988 614.534 314.988 614.534" fill="url(#paint18_linear_7_2)"/>
<path d="M330.378 631.576C330.378 631.576 296.953 646.541 296.593 633.557C296.233 620.573 330.538 631.34 330.538 631.34" fill="url(#paint19_linear_7_2)"/>
<path d="M343.719 655.326C343.719 655.326 310.271 670.243 309.93 657.258C309.588 644.274 343.877 655.091 343.877 655.091" fill="url(#paint20_linear_7_2)"/>
<path d="M352.668 678.46C352.668 678.46 317.89 689.936 318.856 676.983C319.822 664.03 352.85 678.24 352.85 678.24" fill="url(#paint21_linear_7_2)"/>
<path d="M358.548 700.717C358.548 700.717 323.241 710.449 324.851 697.56C326.461 684.671 358.74 700.508 358.74 700.508" fill="url(#paint22_linear_7_2)"/>
<path d="M363.343 724.094C363.343 724.094 328.036 733.826 329.646 720.937C331.256 708.048 363.536 723.885 363.536 723.885" fill="url(#paint23_linear_7_2)"/>
<path d="M315.201 614.744C315.201 614.744 293.528 585.223 306.144 582.134C318.76 579.046 315.465 614.849 315.465 614.849" fill="url(#paint24_linear_7_2)"/>
<path d="M330.306 632.273C330.306 632.273 315.877 598.614 328.865 598.461C341.853 598.308 330.54 632.436 330.54 632.436" fill="#153448"/>
<path d="M343.836 655.851C343.836 655.851 337.849 619.721 350.498 622.669C363.148 625.618 344.024 656.065 344.024 656.065" fill="url(#paint25_linear_7_2)"/>
<path d="M352.88 679.161C352.88 679.161 352.324 642.542 364.396 647.336C376.468 652.13 353.034 679.4 353.034 679.4" fill="url(#paint26_linear_7_2)"/>
<path d="M358.146 700.755C358.146 700.755 370.05 666.12 379.778 674.727C389.506 683.333 358.21 701.031 358.21 701.031" fill="url(#paint27_linear_7_2)"/>
<path d="M363.946 724.176C363.946 724.176 375.85 689.542 385.578 698.148C395.307 706.755 364.01 724.453 364.01 724.453" fill="url(#paint28_linear_7_2)"/>
<path d="M365.814 741.626C365.238 741.6 364.746 741.161 364.672 740.568C356.607 676.195 338.224 642.672 324.222 625.885C309.113 607.773 295.745 604.759 295.612 604.731C294.961 604.592 294.543 603.954 294.68 603.302C294.816 602.649 295.462 602.229 296.105 602.368C296.677 602.487 310.265 605.489 325.89 624.117C340.17 641.138 358.904 675.107 367.067 740.27C367.15 740.932 366.682 741.535 366.021 741.617C365.951 741.627 365.882 741.629 365.814 741.626Z" fill="url(#paint29_linear_7_2)"/>
<path d="M248.064 751.834C251.903 754.671 255.571 757.643 258.947 760.789C270.494 771.551 281.301 781.666 296.576 787.38C310.256 792.499 325.781 793.542 339.443 788.372C344.033 786.635 346.658 784.793 349.535 780.895C350.806 779.171 352.041 777.433 353.273 775.71C354.112 772.558 355.254 769.401 356.513 766.226C357.142 764.638 357.96 762.968 358.469 761.437C359.641 757.904 360.859 753.748 362.307 749.97C363.031 748.081 363.824 746.155 364.436 744.258C369.986 727.036 360.277 685.143 334.909 694.169C331.424 695.409 328.361 697.615 324.942 699.025C312.949 703.971 299.418 698.412 287.81 692.617C281.28 689.357 274.801 685.996 268.373 682.538C261.945 679.079 255.454 675.432 250.483 670.086C246.23 665.512 243.279 659.89 239.379 655.011C233.205 647.289 224.615 641.525 215.128 638.741C209.739 637.16 203.578 636.42 198.828 633.213C194.649 630.393 191.9 625.068 188.763 621.106C183.472 614.425 176.741 602.908 167.539 601.293C158.694 599.74 163.221 614.724 167.395 625.456C169.113 629.872 171.357 634.432 171.259 638.084C171.076 644.93 162.211 640.184 162.163 647.428C162.126 652.822 166.419 659.081 169.142 663.454C174.166 671.521 180.364 678.975 182.632 688.406C185.083 698.601 189.209 708.73 196.403 716.714C201.921 722.836 209.162 727.077 216.184 731.394C226.545 737.765 237.907 744.329 248.064 751.834Z" fill="#153448"/>
<path d="M193.014 645.58C193.015 645.582 193.645 646.492 194.877 648.191C224.232 688.671 264.417 719.634 308.61 738.429C344.522 753.702 384.696 761.218 425.351 759.041C427.409 758.931 429.191 759.618 429.328 760.608C429.466 761.596 427.852 762.551 425.799 762.631C384.539 764.23 344.425 757.555 307.125 741.717C261.307 722.263 219.679 689.749 189.885 647.404C188.751 645.793 188.557 644.069 189.427 643.576C190.298 643.084 191.893 643.988 193.014 645.58Z" fill="white"/>
<path d="M670.214 801.949C694.981 784.299 718.013 763.975 738.082 740.946C748.013 729.357 757.29 717.165 765.292 704.148C767.209 700.844 769.215 697.595 771.044 694.244C772.787 690.846 774.704 687.542 776.26 684.052C779.584 677.184 782.507 670.107 784.637 662.763C785.262 660.463 784.463 660.221 783.765 662.504C781.43 669.693 778.329 676.647 774.863 683.377C773.236 686.799 771.253 690.04 769.458 693.372C767.574 696.658 765.52 699.847 763.566 703.09C755.407 715.869 746.095 727.871 736.225 739.364C716.279 762.199 693.748 782.725 669.651 801.19C667.659 802.781 668.278 803.388 670.214 801.949Z" fill="url(#paint30_linear_7_2)"/>
<path d="M781.888 670.241C781.888 670.241 800.851 656.878 814.947 658.021C814.947 658.021 801.748 668.824 781.888 670.241Z" fill="url(#paint31_linear_7_2)"/>
<path d="M783.961 664.875C783.961 664.875 796.617 645.434 810.132 641.268C810.132 641.268 801.879 656.196 783.961 664.875Z" fill="url(#paint32_linear_7_2)"/>
<path d="M784.724 661.138C784.724 661.138 790.338 638.63 801.752 630.281C801.752 630.281 798.825 647.084 784.724 661.138Z" fill="url(#paint33_linear_7_2)"/>
<path d="M779.377 676.01C779.377 676.01 807.62 670.158 820.416 676.178C820.416 676.178 798.469 681.657 779.377 676.01Z" fill="url(#paint34_linear_7_2)"/>
<path d="M784.397 661.446C784.397 661.446 780.308 641.668 772.883 635.117C772.883 635.117 775.461 650.745 784.397 661.446Z" fill="url(#paint35_linear_7_2)"/>
<path d="M765.801 702.374C765.801 702.374 794.454 705.683 804.714 715.416C804.714 715.416 782.156 713.729 765.801 702.374Z" fill="url(#paint36_linear_7_2)"/>
<path d="M759.012 711.908C759.012 711.908 787.393 717.048 797.007 727.419C797.007 727.419 765.799 720.878 759.012 711.908Z" fill="url(#paint37_linear_7_2)"/>
<path d="M734.999 743.148C734.999 743.148 764.368 748.702 774.248 759.525C774.248 759.525 741.96 752.498 734.999 743.148Z" fill="url(#paint38_linear_7_2)"/>
<path d="M724.99 753.211C724.99 753.211 754.141 759.813 763.626 770.985C763.626 770.985 731.61 762.804 724.99 753.211Z" fill="#153448"/>
<path d="M771.505 691.688C771.505 691.688 800.325 692.822 811.292 701.752C811.292 701.752 788.67 701.774 771.505 691.688Z" fill="#153448"/>
<path d="M776.677 681.621C776.677 681.621 802.503 682.753 812.297 690.8C812.297 690.8 792.022 690.731 776.677 681.621Z" fill="url(#paint39_linear_7_2)"/>
<path d="M779.193 674.772C779.193 674.772 765.264 652.992 753.391 648.553C753.391 648.553 763.618 666.062 779.193 674.772Z" fill="url(#paint40_linear_7_2)"/>
<path d="M755.344 716.774C755.344 716.774 744.319 687.673 731.429 679.508C731.429 679.508 739.149 702.662 755.344 716.774Z" fill="url(#paint41_linear_7_2)"/>
<path d="M749.617 723.878C749.617 723.878 733.724 697.122 719.616 691.31C719.616 691.31 731.224 712.78 749.617 723.878Z" fill="url(#paint42_linear_7_2)"/>
<path d="M725.769 751.153C725.769 751.153 713.709 718.042 699.234 708.611C699.234 708.611 707.637 734.939 725.769 751.153Z" fill="url(#paint43_linear_7_2)"/>
<path d="M761.655 705.65C761.655 705.65 749.468 677.217 736.319 669.657C736.319 669.657 744.97 692.323 761.655 705.65Z" fill="url(#paint44_linear_7_2)"/>
<path d="M740.311 735.589C740.311 735.589 725.966 702.119 710.487 693.218C710.487 693.218 720.671 719.901 740.311 735.589Z" fill="url(#paint45_linear_7_2)"/>
<path d="M768.16 694.653C768.16 694.653 756.422 670.924 744.833 665.075C744.833 665.075 753.281 684.042 768.16 694.653Z" fill="url(#paint46_linear_7_2)"/>
<path d="M733.48 743.045C733.48 743.045 721.741 719.316 710.152 713.467C710.152 713.467 718.6 732.434 733.48 743.045Z" fill="url(#paint47_linear_7_2)"/>
<path d="M782.065 668.125C782.065 668.125 772.01 644.308 761.056 637.93C761.056 637.93 768.183 656.912 782.065 668.125Z" fill="url(#paint48_linear_7_2)"/>
<path d="M749.792 725.072C749.792 725.072 763.938 725.653 771.115 727.674C778.112 729.644 783.27 732.367 789.786 733.915C789.786 733.915 775.237 735.769 766.718 731.997C758.199 728.225 749.792 725.072 749.792 725.072Z" fill="url(#paint49_linear_7_2)"/>
<path d="M747.026 655.213C747.026 655.213 758.283 663.8 763.003 669.57C767.607 675.197 770.271 680.385 774.722 685.39C774.722 685.39 761.74 678.567 756.923 670.592C752.106 662.617 747.026 655.213 747.026 655.213Z" fill="url(#paint50_linear_7_2)"/>
<path d="M690.37 717.689C690.37 717.689 702.084 730.538 706.52 738.547C710.845 746.357 712.925 753.21 717.203 760.234C717.203 760.234 703.016 749.139 698.949 738.445C694.881 727.751 690.37 717.689 690.37 717.689Z" fill="url(#paint51_linear_7_2)"/>
<path d="M742.761 734.118C742.761 734.118 755.527 735.574 761.889 737.874C768.093 740.117 776.166 744.202 781.962 746.031C781.962 746.031 765.088 745.472 757.626 741.498C750.163 737.526 742.761 734.118 742.761 734.118Z" fill="url(#paint52_linear_7_2)"/>
<path d="M714.341 763.876C714.341 763.876 726.911 766.908 732.983 769.993C738.902 773.002 746.462 778.08 752.025 780.625C752.025 780.625 735.239 777.978 728.276 773.087C721.313 768.195 714.341 763.876 714.341 763.876Z" fill="#678AFF"/>
<path d="M879.895 863.855H186.927C183.507 863.855 180.735 861.083 180.735 857.663C180.735 854.243 183.507 851.471 186.927 851.471H879.895C883.315 851.471 886.087 854.243 886.087 857.663C886.087 861.083 883.315 863.855 879.895 863.855Z" fill="#153448"/>
<path d="M467.429 323.456C449.082 323.456 434.155 338.383 434.155 356.73V781.063C434.155 799.41 449.082 814.336 467.429 814.336H642.982C661.329 814.336 676.255 799.41 676.255 781.063V356.73C676.255 338.383 661.329 323.456 642.982 323.456H467.429Z" fill="#153448"/>
<path d="M467.429 809.232H642.981C658.474 809.232 671.15 796.556 671.15 781.063V356.729C671.15 341.236 658.474 328.56 642.981 328.56H467.429C451.936 328.56 439.26 341.236 439.26 356.729V781.063C439.26 796.556 451.936 809.232 467.429 809.232Z" fill="url(#paint53_linear_7_2)"/>
<g opacity="0.08">
<path d="M671.15 378.2V356.729C671.15 341.236 658.474 328.56 642.981 328.56H621.51L671.15 378.2Z" fill="#B3B3B3"/>
</g>
<g opacity="0.08">
<path d="M629.544 447.178C590.264 407.898 550.983 368.618 511.703 329.338C511.45 329.085 511.213 328.824 510.983 328.56H500.474L671.15 499.236V488.784L629.544 447.178Z" fill="#B3B3B3"/>
</g>
<g opacity="0.08">
<path d="M671.15 664.554V542.906L621.139 492.896C566.869 438.626 512.599 384.356 458.329 330.086C447.268 333.893 439.26 344.418 439.26 356.729V432.664L671.15 664.554Z" fill="#B3B3B3"/>
</g>
<path d="M657.275 387.351V750.441H453.135V387.351H657.275Z" fill="#DFD0B8"/>
<g style="mix-blend-mode:multiply" opacity="0.5">
<path d="M510.842 591.887C548.962 630.007 587.082 668.128 625.202 706.248C635.893 716.939 646.584 727.629 657.275 738.32V665.271L645.615 653.612C614.961 622.958 584.307 592.304 553.653 561.65L453.135 461.132V534.181L510.842 591.887Z" fill="#ADD5F8"/>
</g>
<path d="M508.937 638.605C545.945 675.613 582.952 712.62 619.96 749.628L620.774 750.441H627.086L453.136 576.491V582.803L508.937 638.605Z" fill="#ADD5F8"/>
<g style="mix-blend-mode:multiply" opacity="0.5">
<path d="M454.312 656.437L548.316 750.441H578.463C564.429 736.407 550.396 722.374 536.362 708.34C508.62 680.598 480.877 652.855 453.135 625.113V655.393C453.546 655.718 453.94 656.065 454.312 656.437Z" fill="#ADD5F8"/>
</g>
<path d="M574.257 357.139V362.038H536.153V357.139H574.257Z" fill="#153448"/>
<g opacity="0.31">
<path d="M559.142 631.95V739.432H457.457V631.95H559.142Z" fill="#EEB584"/>
<g opacity="0.5">
<path d="M540.82 631.949V650.14H531.295V631.949H540.82Z" fill="white"/>
</g>
<g opacity="0.5">
<path d="M489.123 631.949V650.14H479.598V631.949H489.123Z" fill="white"/>
</g>
</g>
<path d="M452.998 575.818C455.553 576.219 457.212 579.021 457.357 582.787C457.621 589.64 453.546 593.106 450.352 592.65C447.683 592.27 445.712 587.848 445.986 584.204C446.309 579.878 449.894 575.33 452.998 575.818Z" fill="#FFA18A"/>
<g opacity="0.31">
<path d="M567.227 580.361V631.95H465.542V580.361H567.227Z" fill="#EEB584"/>
<g opacity="0.5">
<path d="M548.906 580.359V598.55H539.381V580.359H548.906Z" fill="white"/>
</g>
<g opacity="0.5">
<path d="M497.209 580.359V598.55H487.684V580.359H497.209Z" fill="white"/>
</g>
<g opacity="0.48">
<path d="M567.227 629.612V631.949H465.542V629.612H567.227Z" fill="#CD8967"/>
</g>
</g>
<path d="M580.449 627.182H563.14H561.539C559.768 627.182 558.332 628.618 558.332 630.389V783.23H563.14V635.055C563.14 633.284 564.575 631.849 566.346 631.849H580.449C581.738 631.849 582.782 630.804 582.782 629.515C582.782 628.226 581.738 627.182 580.449 627.182Z" fill="#3E3947"/>
<path d="M583.373 826.03H558.333V770.756H558.722C572.337 770.756 583.373 781.793 583.373 795.408V826.03Z" fill="#153448"/>
<path d="M836.883 847.291C833.589 852.178 826.957 853.469 822.071 850.175C817.185 846.881 815.895 840.25 819.189 835.363C822.483 830.476 829.115 829.185 834.001 832.479C838.887 835.773 840.177 842.404 836.883 847.291Z" fill="#3E3947"/>
<path d="M862.853 834.733H569.039C564.307 834.733 560.471 830.897 560.471 826.165V825.895C560.471 821.163 564.307 817.327 569.039 817.327H862.853C867.585 817.327 871.421 821.163 871.421 825.895V826.165C871.421 830.897 867.585 834.733 862.853 834.733Z" fill="#153448"/>
<path d="M586.685 843.805C580.096 853.579 566.831 856.162 557.058 849.574C547.285 842.986 544.704 829.721 551.293 819.947C557.882 810.173 571.147 807.59 580.92 814.178C590.693 820.766 593.274 834.031 586.685 843.805Z" fill="#3E3947"/>
<path d="M568.987 823.139C573.816 823.139 577.73 827.053 577.73 831.882C577.73 836.711 573.816 840.625 568.987 840.625C564.158 840.625 560.244 836.711 560.244 831.882C560.244 827.053 564.158 823.139 568.987 823.139Z" fill="#FAF3E9"/>
<path d="M859.288 848.513C855.994 853.4 849.362 854.691 844.476 851.397C839.59 848.103 838.3 841.472 841.594 836.585C844.888 831.698 851.52 830.407 856.406 833.701C861.292 836.995 862.582 843.626 859.288 848.513Z" fill="#3E3947"/>
<path d="M850.441 837.455C852.855 837.455 854.812 839.412 854.812 841.826C854.812 844.24 852.855 846.197 850.441 846.197C848.027 846.197 846.07 844.24 846.07 841.826C846.07 839.412 848.027 837.455 850.441 837.455Z" fill="#FAF3E9"/>
<path d="M852.095 843.148L852.041 843.209C851.094 844.276 849.461 844.374 848.394 843.427L829.464 826.628C828.397 825.681 828.3 824.049 829.247 822.982L829.301 822.921C830.248 821.854 831.881 821.756 832.948 822.703L851.878 839.501C852.945 840.448 853.042 842.081 852.095 843.148Z" fill="#748CCF"/>
<path d="M558.289 797.477H555.721C555.721 797.477 555.25 796.503 555.25 794.778C555.25 793.507 555.721 792.343 555.721 792.343H558.289C559.707 792.343 560.856 793.492 560.856 794.91C560.856 796.328 559.707 797.477 558.289 797.477Z" fill="#3E3947"/>
<path d="M844.928 781.317V817.873H690.903V781.317H844.928Z" fill="url(#paint54_linear_7_2)"/>
<g opacity="0.4">
<path d="M735.645 781.317V796.422H729.39V781.317H735.645Z" fill="white"/>
</g>
<g opacity="0.4">
<path d="M806.821 781.317V796.422H800.566V781.317H806.821Z" fill="white"/>
</g>
<g opacity="0.7">
<path d="M840.236 805.462V814.616H819.982V805.462H840.236Z" fill="white"/>
</g>
<path d="M694.253 712.211V813.519H591.871V712.211H694.253Z" fill="#EEB584"/>
<path d="M687.466 720.867V804.276H597.811V720.867H687.466Z" fill="#948979"/>
<path d="M618.901 719.62V806.347H617.451V719.62H618.901Z" fill="#EEB584"/>
<path d="M643.905 719.208V805.935H642.454V719.208H643.905Z" fill="#EEB584"/>
<path d="M666.846 719.208V805.935H665.395V719.208H666.846Z" fill="#EEB584"/>
<path d="M597.86 810.984L594.8 803.914L687.918 714.488L690.978 721.558L597.86 810.984Z" fill="#EEB584"/>
<path d="M693.53 611.071V712.379H591.148V611.071H693.53Z" fill="#EEB584"/>
<path d="M686.742 619.729V703.138H597.087V619.729H686.742Z" fill="#948979"/>
<path d="M618.178 618.481V705.208H616.728V618.481H618.178Z" fill="#EEB584"/>
<path d="M643.181 618.07V704.797H641.73V618.07H643.181Z" fill="#EEB584"/>
<path d="M666.122 618.07V704.797H664.672V618.07H666.122Z" fill="#EEB584"/>
<path d="M597.136 709.844L594.076 702.774L687.194 613.348L690.254 620.418L597.136 709.844Z" fill="#EEB584"/>
<path d="M834.927 744.691V783.398H721.556V744.691H834.927Z" fill="#EEB584"/>
<g opacity="0.48">
<path d="M834.927 781.336V783.397H721.556V781.336H834.927Z" fill="#CD8967"/>
</g>
<g opacity="0.5">
<path d="M827.96 766.822V776.842H811.508V766.822H827.96Z" fill="white"/>
</g>
<path d="M555.364 459.875C544.126 459.875 535.015 450.764 535.015 439.526V409.181H575.713V439.526C575.713 450.764 566.602 459.875 555.364 459.875Z" fill="#153448"/>
<path d="M535.015 409.181H494.318L506.218 381.693H556.256L535.015 409.181Z" fill="#153448"/>
<path d="M514.666 459.875C503.428 459.875 494.317 450.764 494.317 439.526V409.181H535.015V439.526C535.015 450.764 525.904 459.875 514.666 459.875Z" fill="#C5DEEA"/>
<path d="M494.318 409.181H453.62L470.042 381.693H506.218L494.318 409.181Z" fill="#FF7FAF"/>
<path d="M473.969 459.875C462.731 459.875 453.62 450.764 453.62 439.526V409.181H494.318V439.526C494.318 450.764 485.207 459.875 473.969 459.875Z" fill="#153448"/>
<path d="M453.62 409.181H412.922L434.164 381.693H470.042L453.62 409.181Z" fill="url(#paint55_linear_7_2)"/>
<path d="M575.861 409.181H616.558L604.658 381.693H554.62L575.861 409.181Z" fill="url(#paint56_linear_7_2)"/>
<path d="M616.558 409.181H657.256L640.834 381.693H604.658L616.558 409.181Z" fill="#FF7FAF"/>
<path d="M657.256 409.181H697.954L676.712 381.693H640.834L657.256 409.181Z" fill="url(#paint57_linear_7_2)"/>
<path d="M433.272 459.875C422.034 459.875 412.923 450.764 412.923 439.526V409.181H453.621V439.526C453.621 450.764 444.51 459.875 433.272 459.875Z" fill="#C5DEEA"/>
<path d="M596.24 459.875C607.478 459.875 616.589 450.764 616.589 439.526V409.181H575.891V439.526C575.891 450.764 585.002 459.875 596.24 459.875Z" fill="#C5DEEA"/>
<path d="M636.937 459.875C648.175 459.875 657.286 450.764 657.286 439.526V409.181H616.588V439.526C616.588 450.764 625.699 459.875 636.937 459.875Z" fill="url(#paint58_linear_7_2)"/>
<path d="M677.634 459.875C688.872 459.875 697.983 450.764 697.983 439.526V409.181H657.285V439.526C657.285 450.764 666.396 459.875 677.634 459.875Z" fill="#C5DEEA"/>
<path d="M575.713 409.181H535.015L537.871 381.693H572.857L575.713 409.181Z" fill="#FF7FAF"/>
<path d="M350.658 817.432L364.835 817.98L363.337 837.089L350.7 836.356L350.658 817.432Z" fill="#F6A08B"/>
<path d="M348.285 843.556L348.444 839.333C348.493 838.04 348.712 836.761 349.099 835.526L349.904 832.947L350.027 832.556C350.27 831.779 351.282 831.588 351.791 832.225L352.366 832.945C355.068 835.657 359.455 835.667 362.172 832.968L361.916 831.545C361.669 830.17 362.237 828.774 363.378 827.967C363.785 827.679 364.34 827.712 364.727 828.026C364.727 828.026 370.516 832.889 370.606 832.967C370.641 832.997 370.78 833.119 370.816 833.149C370.901 833.222 370.987 833.294 371.072 833.366C371.125 833.41 371.179 833.454 371.232 833.498C371.241 833.505 371.25 833.513 371.258 833.519C371.328 833.577 373.488 835.211 373.542 835.247C373.576 835.271 374.831 836.098 374.899 836.14C374.952 836.174 375.008 836.208 375.061 836.241C375.15 836.295 375.238 836.349 375.327 836.403C375.354 836.419 375.382 836.436 375.409 836.452C375.606 836.571 375.806 836.688 376.006 836.803C376.043 836.824 376.08 836.845 376.116 836.866C376.213 836.92 377.663 837.696 377.964 837.841C378.001 837.859 378.037 837.876 378.074 837.894C378.183 837.947 378.471 838.085 378.506 838.1C378.619 838.153 378.871 838.268 378.885 838.275C379.259 838.444 380.072 838.786 380.099 838.797C380.216 838.844 380.332 838.891 380.449 838.937C380.477 838.948 380.507 838.959 380.535 838.97C380.655 839.017 380.895 839.109 380.895 839.109C382.089 839.56 383.309 839.946 384.554 840.262L389.467 841.51C391.597 842.051 393.059 844.006 392.977 846.202L392.975 846.249L392.958 846.424C392.861 847.451 392.526 848.415 392.015 849.257L391.979 849.373L391.941 849.371C390.849 851.088 389.001 852.263 386.869 852.326C386.719 852.33 386.569 852.33 386.418 852.324L351.922 851.027C349.949 850.953 348.501 849.825 348.305 847.951C348.276 847.674 348.379 847.275 348.642 847.248L348.394 845.569C348.296 844.902 348.259 844.229 348.285 843.556Z" fill="#3E3947"/>
<path d="M415.815 815.648L429.957 814.511L430.736 833.662L418.102 834.434L415.815 815.648Z" fill="#F6A08B"/>
<path d="M416.557 841.868L416.214 837.658C416.109 836.369 416.175 835.07 416.412 833.798L416.908 831.143L416.983 830.74C417.132 829.939 418.115 829.631 418.695 830.202L419.351 830.848C422.357 833.221 426.713 832.711 429.091 829.709L428.667 828.325C428.258 826.99 428.659 825.537 429.696 824.6C430.066 824.266 430.62 824.231 431.042 824.497C431.042 824.497 437.367 828.64 437.465 828.707C437.502 828.733 437.656 828.837 437.695 828.863C437.789 828.925 437.882 828.987 437.975 829.048C438.033 829.085 438.091 829.122 438.15 829.16C438.159 829.167 438.169 829.171 438.179 829.178C438.254 829.226 440.594 830.592 440.651 830.622C440.687 830.641 442.032 831.314 442.104 831.348C442.162 831.375 442.219 831.402 442.276 831.429C442.371 831.473 442.466 831.515 442.561 831.558C442.589 831.572 442.618 831.585 442.647 831.598C442.858 831.692 443.07 831.783 443.282 831.874C443.321 831.891 443.36 831.908 443.399 831.925C443.502 831.968 445.033 832.564 445.349 832.673C445.388 832.686 445.427 832.701 445.465 832.714C445.58 832.753 445.881 832.854 445.918 832.866C446.036 832.904 446.3 832.99 446.315 832.994C446.707 833.119 447.554 833.361 447.582 833.369C447.703 833.402 447.825 833.435 447.947 833.466C447.977 833.474 448.007 833.483 448.037 833.49C448.162 833.522 448.41 833.584 448.41 833.584C449.649 833.891 450.907 834.129 452.179 834.295L457.205 834.951C459.384 835.235 461.069 837.004 461.248 839.194L461.251 839.241L461.256 839.416C461.282 840.447 461.064 841.445 460.656 842.342L460.633 842.46L460.595 842.463C459.714 844.298 458.018 845.685 455.909 845.999C455.761 846.022 455.612 846.039 455.461 846.051L421.055 848.856C419.086 849.016 417.517 848.068 417.099 846.23C417.037 845.959 417.093 845.55 417.35 845.493L416.905 843.855C416.729 843.205 416.611 842.539 416.557 841.868Z" fill="#3E3947"/>
<path d="M344.275 555.455C342.885 547.346 340.717 534.638 340.717 534.638C340.717 534.638 339.099 530.013 338.655 527.446C336.825 516.849 344.937 505.739 353.486 504.364C362.218 502.96 369.877 510.378 371.328 521.034C372.685 530.99 367.341 543.387 359.807 544.071L361.491 552.387C362.067 555.233 360.48 558.099 357.74 559.063C355.165 559.969 352.454 560.272 350.202 560.322C347.29 560.387 344.767 558.326 344.275 555.455Z" fill="#FFA18A"/>
<g opacity="0.4">
<path d="M360.341 546.901L359.807 544.071C350.744 543.86 345.233 536.661 345.233 536.661C347.354 542.59 351.997 547.018 360.341 546.901Z" fill="#FF7A5A"/>
</g>
<path d="M340.717 534.638C333.297 532.034 329.688 527.46 330.741 519.342C331.486 513.589 329.164 507.406 332.321 503.991C339.11 496.65 345.955 498.588 349.33 497.179C363.941 491.077 367.319 499.771 373.524 501.1C380.706 502.639 376.86 511.871 371.433 512.69C364.129 513.792 363.552 506.549 360.217 506.794C354.355 507.224 348.781 515.399 346.461 524.353C346.395 524.608 343.809 530.327 343.809 530.327C343.068 534.678 340.717 534.638 340.717 534.638Z" fill="#3E3947"/>
<path d="M340.209 527.825C340.848 529.729 342.909 530.754 344.813 530.115C346.717 529.476 347.742 527.415 347.103 525.511C346.464 523.607 344.401 522.582 342.498 523.221C340.594 523.86 339.569 525.921 340.209 527.825Z" fill="#FFA18A"/>
<path d="M343.817 525.998C343.416 525.602 342.916 525.374 342.37 525.255C342.26 525.231 342.154 525.338 342.143 525.44C342.129 525.561 342.219 525.642 342.328 525.666C342.725 525.752 343.106 525.925 343.413 526.194C343.116 526.33 342.855 526.541 342.753 526.866C342.646 527.211 342.738 527.578 342.955 527.86C343.078 528.019 343.24 528.14 343.421 528.224C343.523 528.271 343.651 528.202 343.687 528.102C343.729 527.991 343.668 527.883 343.566 527.837C343.554 527.831 343.502 527.801 343.553 527.831C343.539 527.823 343.526 527.817 343.513 527.809C343.483 527.79 343.451 527.77 343.423 527.749C343.411 527.739 343.399 527.73 343.388 527.719C343.374 527.709 343.339 527.669 343.377 527.712C343.355 527.687 343.33 527.664 343.309 527.64C343.288 527.615 343.267 527.589 343.248 527.562C343.245 527.559 343.241 527.553 343.237 527.547C343.232 527.54 343.218 527.515 343.215 527.51C343.2 527.483 343.186 527.456 343.174 527.429C343.167 527.413 343.161 527.396 343.155 527.381C343.153 527.373 343.151 527.364 343.147 527.356C343.144 527.348 343.145 527.354 343.145 527.354C343.137 527.331 343.133 527.295 343.13 527.279C343.124 527.246 343.123 527.214 343.118 527.181C343.118 527.179 343.118 527.176 343.118 527.174C343.119 527.157 343.12 527.14 343.121 527.123C343.124 527.094 343.129 527.066 343.133 527.037C343.134 527.033 343.135 527.027 343.138 527.017C343.143 527.003 343.148 526.989 343.153 526.974C343.159 526.958 343.166 526.941 343.173 526.925C343.175 526.92 343.179 526.914 343.18 526.909C343.198 526.88 343.215 526.851 343.236 526.823C343.246 526.81 343.257 526.797 343.268 526.785C343.272 526.78 343.275 526.776 343.279 526.772C343.279 526.772 343.278 526.772 343.282 526.769C343.317 526.737 343.351 526.705 343.39 526.676C343.408 526.663 343.427 526.65 343.445 526.637C343.456 526.63 343.468 526.622 343.481 526.616C343.527 526.589 343.576 526.566 343.626 526.545C343.652 526.535 343.676 526.526 343.702 526.516C343.705 526.515 343.708 526.514 343.711 526.513C343.963 526.844 344.131 527.233 344.24 527.634C344.309 527.889 344.716 527.826 344.647 527.57C344.49 526.994 344.248 526.424 343.817 525.998Z" fill="#FF7A5A"/>
<path d="M361.492 552.387C361.492 552.387 370.7 550.06 376.304 551.538C395.342 556.559 395.582 582.187 407.278 583.389C418.307 584.522 423.061 580.514 432.259 578.311C432.259 578.311 439.022 585.023 436.294 594.878C436.294 594.878 423.469 600.438 393.357 604.645C349.714 610.741 337.058 607.449 337.058 607.449C320.681 595.416 317.957 558.399 322.462 555.884C325.739 554.055 334.418 552.911 344.181 554.904C344.181 554.904 353.274 556.684 361.492 552.387Z" fill="white"/>
<path d="M388.499 585.044C391.902 608.588 401.974 630.686 407.779 653.755C417.686 693.136 419.467 688.72 427.381 724.145C434.094 754.196 434.574 820.828 434.574 820.828C428.882 824.547 412.979 823.061 412.979 823.061C406.563 790.607 403.527 789.131 396.045 740.356C392.119 714.77 381.984 699.851 381.984 699.851C388.819 725.968 368.88 823.65 368.88 823.65C360.618 826.755 347.874 823.381 347.874 823.381C347.58 790.203 350.328 790.309 350.882 748.86C351.19 725.8 346.469 707.988 340.19 676.669C333.64 643.991 330.331 617.372 335.118 601.626C335.118 601.626 342.266 598.524 344.748 594.701C347.445 590.547 338.02 564.959 329.508 553.988C329.508 553.988 330.883 553.743 333.161 553.689C335.181 553.642 336.614 553.913 336.614 553.913C342.447 557.61 349.301 579.988 351.131 588.705C351.131 588.705 377.772 590.219 378.78 584.772C379.238 582.295 374.671 568.941 365.775 551.554C365.775 551.554 366.943 551.157 369.025 551.06C371.055 550.966 372.177 551.049 372.177 551.049C380.491 557.219 387.131 575.577 388.499 585.044Z" fill="#153448"/>
<path d="M492.739 560.536L491.85 656.021L401.515 655.179L402.404 559.694L492.739 560.536Z" fill="#948979"/>
<g opacity="0.5">
<path d="M476.463 560.384L476.312 576.545L467.85 576.466L468.001 560.305L476.463 560.384Z" fill="white"/>
</g>
<g opacity="0.5">
<path d="M430.536 559.956L430.385 576.117L421.923 576.038L422.074 559.877L430.536 559.956Z" fill="white"/>
</g>
<path d="M493.665 515.434L493.238 561.265L402.903 560.423L403.33 514.592L493.665 515.434Z" fill="#948979"/>
<g opacity="0.5">
<path d="M477.388 515.282L477.238 531.443L468.776 531.364L468.927 515.203L477.388 515.282Z" fill="white"/>
</g>
<g opacity="0.5">
<path d="M431.462 514.854L431.312 531.015L422.85 530.936L423.001 514.775L431.462 514.854Z" fill="white"/>
</g>
<g opacity="0.48">
<path d="M493.257 559.189L493.238 561.264L402.903 560.423L402.922 558.347L493.257 559.189Z" fill="#CD8967"/>
</g>
<path d="M408.183 625.615C408.183 625.615 409.677 629.046 410.17 631.839C410.992 636.492 410.229 639.538 410.229 639.538C413.972 638.326 424.14 634.757 428.193 634.603C432.698 634.433 434.007 634.223 440.409 633.493C444.634 633.012 447.023 631.884 447.652 629.837C448.71 626.402 442.026 619.342 434.013 620.255C429.9 620.723 428.339 622.461 422.88 624.037C416.977 625.742 411.803 626.052 408.183 625.615Z" fill="#FFA18A"/>
<path d="M320.313 556.582C338.709 547.003 355.968 607.087 368.269 612.602C389.686 622.203 417.769 622.618 417.769 622.618C421.934 634.121 417.723 639.613 417.723 639.613C403.265 642.642 373.697 640.555 355.867 629.012C311.766 600.459 309.602 562.159 320.313 556.582Z" fill="white"/>
<g opacity="0.4">
<path d="M388.419 700.671C388.777 695.451 388.324 690.221 387.065 685.142C386.942 684.646 387.708 684.433 387.831 684.93C389.107 690.074 389.576 695.383 389.214 700.671C389.179 701.178 388.384 701.182 388.419 700.671Z" fill="white"/>
</g>
</g>
</g>
<rect x="0.5" y="0.5" width="1079" height="1079" stroke="black"/>
<defs>
<linearGradient id="paint0_linear_7_2" x1="564.815" y1="673.025" x2="786.793" y2="677.694" gradientUnits="userSpaceOnUse">
<stop stop-color="#263884"/>
<stop offset="0.5" stop-color="#203B8B"/>
<stop offset="1" stop-color="#193F92"/>
</linearGradient>
<linearGradient id="paint1_linear_7_2" x1="787.837" y1="531.683" x2="913.49" y2="534.326" gradientUnits="userSpaceOnUse">
<stop stop-color="#263884"/>
<stop offset="0.5" stop-color="#203B8B"/>
<stop offset="1" stop-color="#193F92"/>
</linearGradient>
<linearGradient id="paint2_linear_7_2" x1="778.503" y1="547.49" x2="903.44" y2="550.118" gradientUnits="userSpaceOnUse">
<stop stop-color="#E6ECF7"/>
<stop offset="0.5" stop-color="#D4E2F4"/>
<stop offset="1" stop-color="#C2D8F1"/>
</linearGradient>
<linearGradient id="paint3_linear_7_2" x1="749.13" y1="564.877" x2="872.628" y2="567.474" gradientUnits="userSpaceOnUse">
<stop stop-color="#294698"/>
<stop offset="0.5" stop-color="#1C489F"/>
<stop offset="1" stop-color="#0E4BA6"/>
</linearGradient>
<linearGradient id="paint4_linear_7_2" x1="722.758" y1="582.326" x2="854.271" y2="585.092" gradientUnits="userSpaceOnUse">
<stop stop-color="#294698"/>
<stop offset="0.5" stop-color="#1C489F"/>
<stop offset="1" stop-color="#0E4BA6"/>
</linearGradient>
<linearGradient id="paint5_linear_7_2" x1="693.364" y1="600.712" x2="829.91" y2="603.584" gradientUnits="userSpaceOnUse">
<stop stop-color="#294698"/>
<stop offset="0.5" stop-color="#1C489F"/>
<stop offset="1" stop-color="#0E4BA6"/>
</linearGradient>
<linearGradient id="paint6_linear_7_2" x1="672.906" y1="622.286" x2="792.647" y2="624.805" gradientUnits="userSpaceOnUse">
<stop stop-color="#E6ECF7"/>
<stop offset="0.5" stop-color="#D4E2F4"/>
<stop offset="1" stop-color="#C2D8F1"/>
</linearGradient>
<linearGradient id="paint7_linear_7_2" x1="651.49" y1="641.84" x2="768.083" y2="644.293" gradientUnits="userSpaceOnUse">
<stop stop-color="#EF5D9B"/>
<stop offset="0.5" stop-color="#EC6A94"/>
<stop offset="1" stop-color="#EA778D"/>
</linearGradient>
<linearGradient id="paint8_linear_7_2" x1="630.053" y1="662.394" x2="751.195" y2="664.942" gradientUnits="userSpaceOnUse">
<stop stop-color="#294698"/>
<stop offset="0.5" stop-color="#1C489F"/>
<stop offset="1" stop-color="#0E4BA6"/>
</linearGradient>
<linearGradient id="paint9_linear_7_2" x1="612.384" y1="694.029" x2="711.939" y2="696.124" gradientUnits="userSpaceOnUse">
<stop stop-color="#E6ECF7"/>
<stop offset="0.5" stop-color="#D4E2F4"/>
<stop offset="1" stop-color="#C2D8F1"/>
</linearGradient>
<linearGradient id="paint10_linear_7_2" x1="779.133" y1="517.497" x2="837.756" y2="518.73" gradientUnits="userSpaceOnUse">
<stop stop-color="#E6ECF7"/>
<stop offset="0.5" stop-color="#D4E2F4"/>
<stop offset="1" stop-color="#C2D8F1"/>
</linearGradient>
<linearGradient id="paint11_linear_7_2" x1="754.992" y1="523.991" x2="794.222" y2="524.816" gradientUnits="userSpaceOnUse">
<stop stop-color="#E6ECF7"/>
<stop offset="0.5" stop-color="#D4E2F4"/>
<stop offset="1" stop-color="#C2D8F1"/>
</linearGradient>
<linearGradient id="paint12_linear_7_2" x1="719.6" y1="542.251" x2="751.932" y2="542.931" gradientUnits="userSpaceOnUse">
<stop stop-color="#E6ECF7"/>
<stop offset="0.5" stop-color="#D4E2F4"/>
<stop offset="1" stop-color="#C2D8F1"/>
</linearGradient>
<linearGradient id="paint13_linear_7_2" x1="693.143" y1="563.699" x2="711.638" y2="564.088" gradientUnits="userSpaceOnUse">
<stop stop-color="#E6ECF7"/>
<stop offset="0.5" stop-color="#D4E2F4"/>
<stop offset="1" stop-color="#C2D8F1"/>
</linearGradient>
<linearGradient id="paint14_linear_7_2" x1="631.063" y1="614.405" x2="651.483" y2="614.834" gradientUnits="userSpaceOnUse">
<stop offset="0.06" stop-color="#678AFF"/>
<stop offset="0.53" stop-color="#6070FF"/>
<stop offset="1" stop-color="#5A57FF"/>
</linearGradient>
<linearGradient id="paint15_linear_7_2" x1="598.397" y1="645.725" x2="627.336" y2="646.333" gradientUnits="userSpaceOnUse">
<stop offset="0.09" stop-color="#374492"/>
<stop offset="0.54" stop-color="#1C48A0"/>
<stop offset="1" stop-color="#014DAE"/>
</linearGradient>
<linearGradient id="paint16_linear_7_2" x1="573.771" y1="675.213" x2="614.655" y2="676.073" gradientUnits="userSpaceOnUse">
<stop offset="0.06" stop-color="#678AFF"/>
<stop offset="0.53" stop-color="#6070FF"/>
<stop offset="1" stop-color="#5A57FF"/>
</linearGradient>
<linearGradient id="paint17_linear_7_2" x1="336.379" y1="724.949" x2="288.843" y2="608.559" gradientUnits="userSpaceOnUse">
<stop stop-color="#294698"/>
<stop offset="0.5" stop-color="#1C489F"/>
<stop offset="1" stop-color="#0E4BA6"/>
</linearGradient>
<linearGradient id="paint18_linear_7_2" x1="340.923" y1="722.863" x2="293.387" y2="606.473" gradientUnits="userSpaceOnUse">
<stop stop-color="#294698"/>
<stop offset="0.5" stop-color="#1C489F"/>
<stop offset="1" stop-color="#0E4BA6"/>
</linearGradient>
<linearGradient id="paint19_linear_7_2" x1="348.822" y1="719.457" x2="301.287" y2="603.069" gradientUnits="userSpaceOnUse">
<stop stop-color="#E6ECF7"/>
<stop offset="0.5" stop-color="#D4E2F4"/>
<stop offset="1" stop-color="#C2D8F1"/>
</linearGradient>
<linearGradient id="paint20_linear_7_2" x1="352.178" y1="718.137" x2="304.643" y2="601.75" gradientUnits="userSpaceOnUse">
<stop stop-color="#EF5D9B"/>
<stop offset="0.5" stop-color="#EC6A94"/>
<stop offset="1" stop-color="#EA778D"/>
</linearGradient>
<linearGradient id="paint21_linear_7_2" x1="352.178" y1="718.137" x2="304.643" y2="601.75" gradientUnits="userSpaceOnUse">
<stop stop-color="#294698"/>
<stop offset="0.5" stop-color="#1C489F"/>
<stop offset="1" stop-color="#0E4BA6"/>
</linearGradient>
<linearGradient id="paint22_linear_7_2" x1="349.8" y1="719.669" x2="302.264" y2="603.28" gradientUnits="userSpaceOnUse">
<stop stop-color="#E6ECF7"/>
<stop offset="0.5" stop-color="#D4E2F4"/>
<stop offset="1" stop-color="#C2D8F1"/>
</linearGradient>
<linearGradient id="paint23_linear_7_2" x1="345.467" y1="720.777" x2="297.932" y2="604.389" gradientUnits="userSpaceOnUse">
<stop stop-color="#E6ECF7"/>
<stop offset="0.5" stop-color="#D4E2F4"/>
<stop offset="1" stop-color="#C2D8F1"/>
</linearGradient>
<linearGradient id="paint24_linear_7_2" x1="358.888" y1="715.498" x2="311.352" y2="599.109" gradientUnits="userSpaceOnUse">
<stop stop-color="#E6ECF7"/>
<stop offset="0.5" stop-color="#D4E2F4"/>
<stop offset="1" stop-color="#C2D8F1"/>
</linearGradient>
<linearGradient id="paint25_linear_7_2" x1="376.853" y1="708.132" x2="329.319" y2="591.744" gradientUnits="userSpaceOnUse">
<stop stop-color="#E6ECF7"/>
<stop offset="0.5" stop-color="#D4E2F4"/>
<stop offset="1" stop-color="#C2D8F1"/>
</linearGradient>
<linearGradient id="paint26_linear_7_2" x1="378.042" y1="707.367" x2="330.507" y2="590.979" gradientUnits="userSpaceOnUse">
<stop stop-color="#E6ECF7"/>
<stop offset="0.5" stop-color="#D4E2F4"/>
<stop offset="1" stop-color="#C2D8F1"/>
</linearGradient>
<linearGradient id="paint27_linear_7_2" x1="376.853" y1="708.132" x2="329.319" y2="591.744" gradientUnits="userSpaceOnUse">
<stop offset="0.06" stop-color="#678AFF"/>
<stop offset="0.53" stop-color="#6070FF"/>
<stop offset="1" stop-color="#5A57FF"/>
</linearGradient>
<linearGradient id="paint28_linear_7_2" x1="374.475" y1="709.664" x2="326.941" y2="593.274" gradientUnits="userSpaceOnUse">
<stop offset="0.09" stop-color="#374492"/>
<stop offset="0.54" stop-color="#1C48A0"/>
<stop offset="1" stop-color="#014DAE"/>
</linearGradient>
<linearGradient id="paint29_linear_7_2" x1="355.533" y1="716.818" x2="307.998" y2="600.429" gradientUnits="userSpaceOnUse">
<stop offset="0.09" stop-color="#374492"/>
<stop offset="0.54" stop-color="#1C48A0"/>
<stop offset="1" stop-color="#014DAE"/>
</linearGradient>
<linearGradient id="paint30_linear_7_2" x1="737.57" y1="633.341" x2="659.796" y2="560.893" gradientUnits="userSpaceOnUse">
<stop offset="0.06" stop-color="#678AFF"/>
<stop offset="0.53" stop-color="#6070FF"/>
<stop offset="1" stop-color="#5A57FF"/>
</linearGradient>
<linearGradient id="paint31_linear_7_2" x1="945.553" y1="608.401" x2="867.779" y2="535.953" gradientUnits="userSpaceOnUse">
<stop stop-color="#E6ECF7"/>
<stop offset="0.5" stop-color="#D4E2F4"/>
<stop offset="1" stop-color="#C2D8F1"/>
</linearGradient>
<linearGradient id="paint32_linear_7_2" x1="942.39" y1="606.071" x2="864.616" y2="533.623" gradientUnits="userSpaceOnUse">
<stop stop-color="#E6ECF7"/>
<stop offset="0.5" stop-color="#D4E2F4"/>
<stop offset="1" stop-color="#C2D8F1"/>
</linearGradient>
<linearGradient id="paint33_linear_7_2" x1="932.948" y1="605.239" x2="855.175" y2="532.792" gradientUnits="userSpaceOnUse">
<stop stop-color="#E6ECF7"/>
<stop offset="0.5" stop-color="#D4E2F4"/>
<stop offset="1" stop-color="#C2D8F1"/>
</linearGradient>
<linearGradient id="paint34_linear_7_2" x1="947.537" y1="611.012" x2="869.763" y2="538.564" gradientUnits="userSpaceOnUse">
<stop stop-color="#E6ECF7"/>
<stop offset="0.5" stop-color="#D4E2F4"/>
<stop offset="1" stop-color="#C2D8F1"/>
</linearGradient>
<linearGradient id="paint35_linear_7_2" x1="892.754" y1="607.631" x2="814.979" y2="535.182" gradientUnits="userSpaceOnUse">
<stop stop-color="#E6ECF7"/>
<stop offset="0.5" stop-color="#D4E2F4"/>
<stop offset="1" stop-color="#C2D8F1"/>
</linearGradient>
<linearGradient id="paint36_linear_7_2" x1="902.852" y1="620.643" x2="825.077" y2="548.194" gradientUnits="userSpaceOnUse">
<stop stop-color="#E6ECF7"/>
<stop offset="0.5" stop-color="#D4E2F4"/>
<stop offset="1" stop-color="#C2D8F1"/>
</linearGradient>
<linearGradient id="paint37_linear_7_2" x1="881.866" y1="623.593" x2="804.092" y2="551.145" gradientUnits="userSpaceOnUse">
<stop stop-color="#294698"/>
<stop offset="0.5" stop-color="#1C489F"/>
<stop offset="1" stop-color="#0E4BA6"/>
</linearGradient>
<linearGradient id="paint38_linear_7_2" x1="813.168" y1="633.812" x2="735.394" y2="561.366" gradientUnits="userSpaceOnUse">
<stop stop-color="#263884"/>
<stop offset="0.5" stop-color="#203B8B"/>
<stop offset="1" stop-color="#193F92"/>
</linearGradient>
<linearGradient id="paint39_linear_7_2" x1="931.53" y1="613.802" x2="853.755" y2="541.353" gradientUnits="userSpaceOnUse">
<stop stop-color="#294698"/>
<stop offset="0.5" stop-color="#1C489F"/>
<stop offset="1" stop-color="#0E4BA6"/>
</linearGradient>
<linearGradient id="paint40_linear_7_2" x1="856.641" y1="612.134" x2="778.867" y2="539.685" gradientUnits="userSpaceOnUse">
<stop stop-color="#294698"/>
<stop offset="0.5" stop-color="#1C489F"/>
<stop offset="1" stop-color="#0E4BA6"/>
</linearGradient>
<linearGradient id="paint41_linear_7_2" x1="787.887" y1="623.394" x2="710.113" y2="550.946" gradientUnits="userSpaceOnUse">
<stop stop-color="#294698"/>
<stop offset="0.5" stop-color="#1C489F"/>
<stop offset="1" stop-color="#0E4BA6"/>
</linearGradient>
<linearGradient id="paint42_linear_7_2" x1="762.437" y1="626.381" x2="684.663" y2="553.933" gradientUnits="userSpaceOnUse">
<stop stop-color="#294698"/>
<stop offset="0.5" stop-color="#1C489F"/>
<stop offset="1" stop-color="#0E4BA6"/>
</linearGradient>
<linearGradient id="paint43_linear_7_2" x1="698.204" y1="634.507" x2="620.429" y2="562.059" gradientUnits="userSpaceOnUse">
<stop offset="0.06" stop-color="#678AFF"/>
<stop offset="0.53" stop-color="#6070FF"/>
<stop offset="1" stop-color="#5A57FF"/>
</linearGradient>
<linearGradient id="paint44_linear_7_2" x1="805.396" y1="620.246" x2="727.622" y2="547.798" gradientUnits="userSpaceOnUse">
<stop stop-color="#294698"/>
<stop offset="0.5" stop-color="#1C489F"/>
<stop offset="1" stop-color="#0E4BA6"/>
</linearGradient>
<linearGradient id="paint45_linear_7_2" x1="736.362" y1="629.517" x2="658.586" y2="557.07" gradientUnits="userSpaceOnUse">
<stop offset="0.09" stop-color="#374492"/>
<stop offset="0.54" stop-color="#1C48A0"/>
<stop offset="1" stop-color="#014DAE"/>
</linearGradient>
<linearGradient id="paint46_linear_7_2" x1="826.505" y1="617.266" x2="748.732" y2="544.819" gradientUnits="userSpaceOnUse">
<stop offset="0.09" stop-color="#374492"/>
<stop offset="0.54" stop-color="#1C48A0"/>
<stop offset="1" stop-color="#014DAE"/>
</linearGradient>
<linearGradient id="paint47_linear_7_2" x1="724.3" y1="632.394" x2="646.526" y2="559.947" gradientUnits="userSpaceOnUse">
<stop offset="0.09" stop-color="#374492"/>
<stop offset="0.54" stop-color="#1C48A0"/>
<stop offset="1" stop-color="#014DAE"/>
</linearGradient>
<linearGradient id="paint48_linear_7_2" x1="872.685" y1="609.334" x2="794.911" y2="536.886" gradientUnits="userSpaceOnUse">
<stop stop-color="#EF5D9B"/>
<stop offset="0.5" stop-color="#EC6A94"/>
<stop offset="1" stop-color="#EA778D"/>
</linearGradient>
<linearGradient id="paint49_linear_7_2" x1="857.518" y1="627.345" x2="779.744" y2="554.897" gradientUnits="userSpaceOnUse">
<stop stop-color="#EF5D9B"/>
<stop offset="0.5" stop-color="#EC6A94"/>
<stop offset="1" stop-color="#EA778D"/>
</linearGradient>
<linearGradient id="paint50_linear_7_2" x1="840.31" y1="615.001" x2="762.536" y2="542.553" gradientUnits="userSpaceOnUse">
<stop stop-color="#EF5D9B"/>
<stop offset="0.5" stop-color="#EC6A94"/>
<stop offset="1" stop-color="#EA778D"/>
</linearGradient>
<linearGradient id="paint51_linear_7_2" x1="673.027" y1="637.429" x2="595.253" y2="564.982" gradientUnits="userSpaceOnUse">
<stop stop-color="#EF5D9B"/>
<stop offset="0.5" stop-color="#EC6A94"/>
<stop offset="1" stop-color="#EA778D"/>
</linearGradient>
<linearGradient id="paint52_linear_7_2" x1="835.305" y1="630.588" x2="757.533" y2="558.143" gradientUnits="userSpaceOnUse">
<stop offset="0.09" stop-color="#374492"/>
<stop offset="0.54" stop-color="#1C48A0"/>
<stop offset="1" stop-color="#014DAE"/>
</linearGradient>
<linearGradient id="paint53_linear_7_2" x1="439" y1="568" x2="670.89" y2="568" gradientUnits="userSpaceOnUse">
<stop stop-color="#E6ECF7"/>
<stop offset="0.5" stop-color="#D4E2F4"/>
<stop offset="1" stop-color="#C2D8F1"/>
</linearGradient>
<linearGradient id="paint54_linear_7_2" x1="690.068" y1="799.216" x2="844.093" y2="799.216" gradientUnits="userSpaceOnUse">
<stop stop-color="#EF5D9B"/>
<stop offset="0.5" stop-color="#EC6A94"/>
<stop offset="1" stop-color="#EA778D"/>
</linearGradient>
<linearGradient id="paint55_linear_7_2" x1="412" y1="395" x2="469.119" y2="395" gradientUnits="userSpaceOnUse">
<stop stop-color="#E6ECF7"/>
<stop offset="0.5" stop-color="#D4E2F4"/>
<stop offset="1" stop-color="#C2D8F1"/>
</linearGradient>
<linearGradient id="paint56_linear_7_2" x1="554" y1="395" x2="615.938" y2="395" gradientUnits="userSpaceOnUse">
<stop stop-color="#E6ECF7"/>
<stop offset="0.5" stop-color="#D4E2F4"/>
<stop offset="1" stop-color="#C2D8F1"/>
</linearGradient>
<linearGradient id="paint57_linear_7_2" x1="640" y1="395" x2="697.119" y2="395" gradientUnits="userSpaceOnUse">
<stop stop-color="#E6ECF7"/>
<stop offset="0.5" stop-color="#D4E2F4"/>
<stop offset="1" stop-color="#C2D8F1"/>
</linearGradient>
<linearGradient id="paint58_linear_7_2" x1="616" y1="434" x2="656.697" y2="434" gradientUnits="userSpaceOnUse">
<stop stop-color="#EF5D9B"/>
<stop offset="0.5" stop-color="#EC6A94"/>
<stop offset="1" stop-color="#EA778D"/>
</linearGradient>
<clipPath id="clip0_7_2">
<rect width="1080" height="1080" fill="white"/>
</clipPath>
</defs>
</svg>
