<svg xmlns="http://www.w3.org/2000/svg" version="1.1" xmlns:xlink="http://www.w3.org/1999/xlink" xmlns:svgjs="http://svgjs.dev/svgjs" width="2000" height="1568" viewBox="0 0 2000 1568"><g transform="matrix(1,0,0,1,-0.46705593758565556,0.634817813765153)"><svg viewBox="0 0 315 247" data-background-color="#ffffff" preserveAspectRatio="xMidYMid meet" height="1568" width="2000" xmlns="http://www.w3.org/2000/svg" xmlns:xlink="http://www.w3.org/1999/xlink"><g id="tight-bounds" transform="matrix(1,0,0,1,0.07356131016973677,-0.09999999999999432)"><svg viewBox="0 0 314.8528773796605 247.2" height="247.2" width="314.8528773796605"><g><svg viewBox="0 0 395.52 310.5340653504731" height="247.2" width="314.8528773796605"><g transform="matrix(1,0,0,1,0,188.16264846753177)"><svg viewBox="0 0 395.52 122.37141688294132" height="122.37141688294132" width="395.52"><g id="textblocktransform"><svg viewBox="0 0 395.52 122.37141688294132" height="122.37141688294132" width="395.52" id="textblock"><g><svg viewBox="0 0 395.52 80.67465703971119" height="80.67465703971119" width="395.52"><g transform="matrix(1,0,0,1,0,0)"><svg width="395.52" viewBox="0.25 -33.65 166.19 33.9" height="80.67465703971119" data-palette-color="#000000"><path d="M27.05 0L16.15 0Q11.8 0 9.75-2.18 7.7-4.35 7.7-7.9L7.7-7.9 7.7-20 0.25-20 0.25-25.75 7.7-25.75 7.7-33.65 14.95-33.65 14.95-25.75 25.65-25.75 25.65-20 14.95-20 14.95-8.8Q14.95-5.75 17.95-5.75L17.95-5.75 27.05-5.75 27.05 0ZM38.15 0L30.8 0 30.8-25.75 50.5-25.75Q54.85-25.75 56.9-23.58 58.95-21.4 58.95-17.85L58.95-17.85 58.95-12.5 51.6-12.5 51.6-16.95Q51.6-19.95 48.6-19.95L48.6-19.95 38.15-19.95 38.15 0ZM96.25 0L69.8 0Q65.75 0 63.59-2.05 61.45-4.1 61.45-7.9L61.45-7.9Q61.45-11.65 63.59-13.7 65.75-15.75 69.8-15.75L69.8-15.75 89-15.75 89-16.95Q89-20 86-20L86-20 64.8-20 64.8-25.75 87.9-25.75Q92.44-25.75 94.34-23.68 96.25-21.6 96.25-17.85L96.25-17.85 96.25 0ZM71.09-5.75L71.09-5.75 89-5.75 89-10 71.09-10Q70.14-10 69.62-9.43 69.09-8.85 69.09-7.9L69.09-7.9Q69.09-6.95 69.62-6.35 70.14-5.75 71.09-5.75ZM126.04 0L115.14 0Q110.79 0 108.74-2.18 106.69-4.35 106.69-7.9L106.69-7.9 106.69-20 99.24-20 99.24-25.75 106.69-25.75 106.69-33.65 113.94-33.65 113.94-25.75 124.64-25.75 124.64-20 113.94-20 113.94-8.8Q113.94-5.75 116.94-5.75L116.94-5.75 126.04-5.75 126.04 0ZM152.24 0.25L142.99 0.25Q136.29 0.25 132.54-3.08 128.79-6.4 128.79-12.85L128.79-12.85Q128.79-19.35 132.54-22.68 136.29-26 142.99-26L142.99-26 152.24-26Q158.94-26 162.69-22.68 166.44-19.35 166.44-12.85L166.44-12.85Q166.44-6.4 162.69-3.08 158.94 0.25 152.24 0.25L152.24 0.25ZM142.99-5.5L142.99-5.5 152.24-5.5Q155.49-5.5 157.22-7.3 158.94-9.1 158.94-12.85L158.94-12.85Q158.94-16.65 157.22-18.45 155.49-20.25 152.24-20.25L152.24-20.25 142.99-20.25Q139.74-20.25 138.02-18.45 136.29-16.65 136.29-12.85L136.29-12.85Q136.29-9.1 138.02-7.3 139.74-5.5 142.99-5.5Z" opacity="1" transform="matrix(1,0,0,1,0,0)" fill="#000000" class="wordmark-text-0" data-fill-palette-color="primary" id="text-0"></path></svg></g></svg></g><g transform="matrix(1,0,0,1,75.54432,99.72000737501806)"><svg viewBox="0 0 244.43135999999998 22.651409507923265" height="22.651409507923265" width="244.43135999999998"><g transform="matrix(1,0,0,1,0,0)"><svg width="244.43135999999998" viewBox="2 -38 539.5 50" height="22.651409507923265" data-palette-color="#000000"><path d="M14.9-2.6L14.9 0 2 0 2-2.6 6.2-3.55 6.2-32.1 2-33.1 2-35.7 14.9-35.7 14.9-33.1 10.7-32.1 10.7-3.55 14.9-2.6ZM34.1-27.3L34.1-27.3Q38.9-27.3 41.35-24.98 43.8-22.65 43.8-17.45L43.8-17.45 43.8 0 39.45 0 39.45-17.15Q39.45-20.4 38-22 36.55-23.6 33.45-23.6L33.45-23.6Q29-23.6 27.3-21.1 25.6-18.6 25.6-13.9L25.6-13.9 25.6 0 21.2 0 21.2-26.8 24.75-26.8 25.4-23.15 25.65-23.15Q26.95-25.25 29.25-26.28 31.55-27.3 34.1-27.3ZM63.05 0L57.99 0 47.84-26.8 52.55-26.8 58.24-11Q58.64-9.9 59.09-8.55 59.55-7.2 59.89-5.98 60.24-4.75 60.39-3.9L60.39-3.9 60.59-3.9Q60.8-4.75 61.17-6 61.55-7.25 62.02-8.6 62.49-9.95 62.84-11L62.84-11 68.55-26.8 73.25-26.8 63.05 0ZM87.84-27.3L87.84-27.3Q91.29-27.3 93.77-25.8 96.24-24.3 97.57-21.58 98.89-18.85 98.89-15.2L98.89-15.2 98.89-12.55 80.54-12.55Q80.64-8 82.87-5.63 85.09-3.25 89.09-3.25L89.09-3.25Q91.64-3.25 93.62-3.73 95.59-4.2 97.69-5.1L97.69-5.1 97.69-1.25Q95.64-0.35 93.64 0.08 91.64 0.5 88.89 0.5L88.89 0.5Q85.09 0.5 82.17-1.05 79.24-2.6 77.62-5.68 75.99-8.75 75.99-13.2L75.99-13.2Q75.99-17.6 77.47-20.75 78.94-23.9 81.62-25.6 84.29-27.3 87.84-27.3ZM87.79-23.7L87.79-23.7Q84.64-23.7 82.82-21.68 80.99-19.65 80.64-16.05L80.64-16.05 94.29-16.05Q94.24-19.45 92.69-21.58 91.14-23.7 87.79-23.7ZM118.59-27.3L118.59-27.3Q123.39-27.3 125.84-24.98 128.29-22.65 128.29-17.45L128.29-17.45 128.29 0 123.94 0 123.94-17.15Q123.94-20.4 122.49-22 121.04-23.6 117.94-23.6L117.94-23.6Q113.49-23.6 111.79-21.1 110.09-18.6 110.09-13.9L110.09-13.9 110.09 0 105.69 0 105.69-26.8 109.24-26.8 109.89-23.15 110.14-23.15Q111.44-25.25 113.74-26.28 116.04-27.3 118.59-27.3ZM145.54-3.1L145.54-3.1Q146.54-3.1 147.59-3.28 148.64-3.45 149.29-3.65L149.29-3.65 149.29-0.3Q148.59 0.05 147.29 0.28 145.99 0.5 144.79 0.5L144.79 0.5Q142.69 0.5 140.91-0.23 139.14-0.95 138.04-2.75 136.94-4.55 136.94-7.8L136.94-7.8 136.94-23.4 133.14-23.4 133.14-25.5 136.99-27.25 138.74-32.95 141.34-32.95 141.34-26.8 149.09-26.8 149.09-23.4 141.34-23.4 141.34-7.9Q141.34-5.45 142.51-4.28 143.69-3.1 145.54-3.1ZM177.94-13.45L177.94-13.45Q177.94-6.8 174.56-3.15 171.19 0.5 165.44 0.5L165.44 0.5Q161.89 0.5 159.11-1.13 156.34-2.75 154.74-5.88 153.14-9 153.14-13.45L153.14-13.45Q153.14-20.1 156.49-23.7 159.84-27.3 165.59-27.3L165.59-27.3Q169.24-27.3 172.01-25.68 174.79-24.05 176.36-20.98 177.94-17.9 177.94-13.45ZM157.69-13.45L157.69-13.45Q157.69-8.7 159.56-5.93 161.44-3.15 165.54-3.15L165.54-3.15Q169.59-3.15 171.49-5.93 173.39-8.7 173.39-13.45L173.39-13.45Q173.39-18.2 171.49-20.9 169.59-23.6 165.49-23.6L165.49-23.6Q161.39-23.6 159.54-20.9 157.69-18.2 157.69-13.45ZM197.38-27.3L197.38-27.3Q198.13-27.3 199.01-27.23 199.88-27.15 200.53-27L200.53-27 199.98-22.95Q199.33-23.1 198.56-23.2 197.78-23.3 197.08-23.3L197.08-23.3Q195.03-23.3 193.23-22.18 191.43-21.05 190.36-19.03 189.28-17 189.28-14.3L189.28-14.3 189.28 0 184.88 0 184.88-26.8 188.48-26.8 188.98-21.9 189.18-21.9Q190.48-24.1 192.53-25.7 194.58-27.3 197.38-27.3ZM212.13 0.1L201.33-26.8 206.03-26.8 211.83-11.55Q212.58-9.55 213.18-7.73 213.78-5.9 214.08-4.25L214.08-4.25 214.28-4.25Q214.58-5.5 215.23-7.53 215.88-9.55 216.58-11.6L216.58-11.6 222.03-26.8 226.78-26.8 215.23 3.7Q213.83 7.5 211.61 9.75 209.38 12 205.48 12L205.48 12Q204.28 12 203.38 11.88 202.48 11.75 201.83 11.6L201.83 11.6 201.83 8.1Q202.38 8.2 203.16 8.3 203.93 8.4 204.78 8.4L204.78 8.4Q207.08 8.4 208.51 7.1 209.93 5.8 210.73 3.65L210.73 3.65 212.13 0.1ZM264.08 0L260.38 0 248.63-31.3 248.43-31.3Q248.53-30.3 248.6-28.75 248.68-27.2 248.73-25.38 248.78-23.55 248.78-21.65L248.78-21.65 248.78 0 244.63 0 244.63-35.7 251.28-35.7 262.28-6.45 262.48-6.45 273.68-35.7 280.28-35.7 280.28 0 275.83 0 275.83-21.95Q275.83-23.7 275.88-25.43 275.93-27.15 276.03-28.68 276.13-30.2 276.18-31.25L276.18-31.25 275.98-31.25 264.08 0ZM299.52-27.25L299.52-27.25Q304.42-27.25 306.77-25.1 309.12-22.95 309.12-18.25L309.12-18.25 309.12 0 305.92 0 305.07-3.8 304.87-3.8Q303.12-1.6 301.2-0.55 299.27 0.5 295.87 0.5L295.87 0.5Q292.22 0.5 289.82-1.43 287.42-3.35 287.42-7.45L287.42-7.45Q287.42-11.45 290.57-13.63 293.72-15.8 300.27-16L300.27-16 304.82-16.15 304.82-17.75Q304.82-21.1 303.37-22.4 301.92-23.7 299.27-23.7L299.27-23.7Q297.17-23.7 295.27-23.08 293.37-22.45 291.72-21.65L291.72-21.65 290.37-24.95Q292.12-25.9 294.52-26.58 296.92-27.25 299.52-27.25ZM304.77-13.1L300.82-12.95Q295.82-12.75 293.9-11.35 291.97-9.95 291.97-7.4L291.97-7.4Q291.97-5.15 293.35-4.1 294.72-3.05 296.87-3.05L296.87-3.05Q300.27-3.05 302.52-4.93 304.77-6.8 304.77-10.7L304.77-10.7 304.77-13.1ZM326.92 0.5L326.92 0.5Q321.92 0.5 318.92-2.98 315.92-6.45 315.92-13.35L315.92-13.35Q315.92-20.25 318.95-23.78 321.97-27.3 326.97-27.3L326.97-27.3Q330.07-27.3 332.05-26.15 334.02-25 335.27-23.35L335.27-23.35 335.57-23.35Q335.52-24 335.4-25.28 335.27-26.55 335.27-27.3L335.27-27.3 335.27-38 339.67-38 339.67 0 336.12 0 335.47-3.6 335.27-3.6Q334.07-1.9 332.07-0.7 330.07 0.5 326.92 0.5ZM327.62-3.15L327.62-3.15Q331.87-3.15 333.6-5.48 335.32-7.8 335.32-12.5L335.32-12.5 335.32-13.3Q335.32-18.3 333.67-20.98 332.02-23.65 327.57-23.65L327.57-23.65Q324.02-23.65 322.25-20.83 320.47-18 320.47-13.25L320.47-13.25Q320.47-8.45 322.25-5.8 324.02-3.15 327.62-3.15ZM358.52-27.3L358.52-27.3Q361.97-27.3 364.44-25.8 366.92-24.3 368.24-21.58 369.57-18.85 369.57-15.2L369.57-15.2 369.57-12.55 351.22-12.55Q351.32-8 353.54-5.63 355.77-3.25 359.77-3.25L359.77-3.25Q362.32-3.25 364.29-3.73 366.27-4.2 368.37-5.1L368.37-5.1 368.37-1.25Q366.32-0.35 364.32 0.08 362.32 0.5 359.57 0.5L359.57 0.5Q355.77 0.5 352.84-1.05 349.92-2.6 348.29-5.68 346.67-8.75 346.67-13.2L346.67-13.2Q346.67-17.6 348.14-20.75 349.62-23.9 352.29-25.6 354.97-27.3 358.52-27.3ZM358.47-23.7L358.47-23.7Q355.32-23.7 353.49-21.68 351.67-19.65 351.32-16.05L351.32-16.05 364.97-16.05Q364.92-19.45 363.37-21.58 361.82-23.7 358.47-23.7ZM410.21-9.55L410.21-9.55Q410.21-4.8 406.76-2.15 403.31 0.5 397.46 0.5L397.46 0.5Q394.46 0.5 391.91 0.05 389.36-0.4 387.66-1.2L387.66-1.2 387.66-5.5Q389.46-4.7 392.14-4.05 394.81-3.4 397.66-3.4L397.66-3.4Q401.66-3.4 403.69-4.95 405.71-6.5 405.71-9.15L405.71-9.15Q405.71-10.9 404.96-12.1 404.21-13.3 402.39-14.33 400.56-15.35 397.31-16.5L397.31-16.5Q395.01-17.35 393.29-18.32 391.56-19.3 390.41-20.55 389.26-21.8 388.69-23.4 388.11-25 388.11-27.1L388.11-27.1Q388.11-29.95 389.56-31.98 391.01-34 393.59-35.1 396.16-36.2 399.51-36.2L399.51-36.2Q402.46-36.2 404.91-35.65 407.36-35.1 409.36-34.2L409.36-34.2 407.96-30.35Q406.11-31.15 403.94-31.7 401.76-32.25 399.41-32.25L399.41-32.25Q396.06-32.25 394.36-30.83 392.66-29.4 392.66-27.05L392.66-27.05Q392.66-25.25 393.41-24.05 394.16-22.85 395.86-21.9 397.56-20.95 400.46-19.85L400.46-19.85Q403.61-18.7 405.79-17.38 407.96-16.05 409.09-14.2 410.21-12.35 410.21-9.55ZM416.81-26.8L421.21-26.8 421.21 0 416.81 0 416.81-26.8ZM419.06-36.85L419.06-36.85Q420.06-36.85 420.84-36.18 421.61-35.5 421.61-34.05L421.61-34.05Q421.61-32.65 420.84-31.95 420.06-31.25 419.06-31.25L419.06-31.25Q417.96-31.25 417.21-31.95 416.46-32.65 416.46-34.05L416.46-34.05Q416.46-35.5 417.21-36.18 417.96-36.85 419.06-36.85ZM459.11-27.3L459.11-27.3Q463.66-27.3 465.91-24.98 468.16-22.65 468.16-17.45L468.16-17.45 468.16 0 463.81 0 463.81-17.25Q463.81-23.6 458.36-23.6L458.36-23.6Q454.46-23.6 452.78-21.35 451.11-19.1 451.11-14.8L451.11-14.8 451.11 0 446.76 0 446.76-17.25Q446.76-23.6 441.26-23.6L441.26-23.6Q437.21-23.6 435.66-21.1 434.11-18.6 434.11-13.9L434.11-13.9 434.11 0 429.71 0 429.71-26.8 433.26-26.8 433.91-23.15 434.16-23.15Q435.41-25.25 437.53-26.28 439.66-27.3 442.06-27.3L442.06-27.3Q445.16-27.3 447.23-26.2 449.31-25.1 450.26-22.8L450.26-22.8 450.51-22.8Q451.86-25.1 454.18-26.2 456.51-27.3 459.11-27.3ZM489.21-27.3L489.21-27.3Q494.16-27.3 497.18-23.85 500.21-20.4 500.21-13.45L500.21-13.45Q500.21-6.6 497.18-3.05 494.16 0.5 489.16 0.5L489.16 0.5Q486.06 0.5 484.03-0.68 482.01-1.85 480.86-3.4L480.86-3.4 480.56-3.4Q480.66-2.55 480.76-1.25 480.86 0.05 480.86 1L480.86 1 480.86 12 476.46 12 476.46-26.8 480.06-26.8 480.66-23.15 480.86-23.15Q482.06-24.9 484.01-26.1 485.96-27.3 489.21-27.3ZM488.41-23.6L488.41-23.6Q484.31-23.6 482.63-21.3 480.96-19 480.86-14.3L480.86-14.3 480.86-13.45Q480.86-8.5 482.48-5.83 484.11-3.15 488.51-3.15L488.51-3.15Q490.96-3.15 492.53-4.5 494.11-5.85 494.88-8.18 495.66-10.5 495.66-13.5L495.66-13.5Q495.66-18.1 493.88-20.85 492.11-23.6 488.41-23.6ZM511.6-38L511.6 0 507.2 0 507.2-38 511.6-38ZM530.45-27.3L530.45-27.3Q533.9-27.3 536.38-25.8 538.85-24.3 540.18-21.58 541.5-18.85 541.5-15.2L541.5-15.2 541.5-12.55 523.15-12.55Q523.25-8 525.48-5.63 527.7-3.25 531.7-3.25L531.7-3.25Q534.25-3.25 536.23-3.73 538.2-4.2 540.3-5.1L540.3-5.1 540.3-1.25Q538.25-0.35 536.25 0.08 534.25 0.5 531.5 0.5L531.5 0.5Q527.7 0.5 524.77-1.05 521.85-2.6 520.23-5.68 518.6-8.75 518.6-13.2L518.6-13.2Q518.6-17.6 520.08-20.75 521.55-23.9 524.23-25.6 526.9-27.3 530.45-27.3ZM530.4-23.7L530.4-23.7Q527.25-23.7 525.43-21.68 523.6-19.65 523.25-16.05L523.25-16.05 536.9-16.05Q536.85-19.45 535.3-21.58 533.75-23.7 530.4-23.7Z" opacity="1" transform="matrix(1,0,0,1,0,0)" fill="#000000" class="slogan-text-1" data-fill-palette-color="secondary" id="text-1"></path></svg></g></svg></g></svg></g></svg></g><g transform="matrix(1,0,0,1,113.20135093388754,0)"><svg viewBox="0 0 169.1172981322249 169.1172981322249" height="169.1172981322249" width="169.1172981322249"><g><svg></svg></g><g id="icon-0"><svg viewBox="0 0 169.1172981322249 169.1172981322249" height="169.1172981322249" width="169.1172981322249"><g><path transform="scale(1.69117,1.69117)" d="M30 100c-16.569 0-30-13.431-30-30v-40c0-16.569 13.431-30 30-30h40c16.569 0 30 13.431 30 30v40c0 16.569-13.431 30-30 30z" fill="#ffffff" fill-rule="nonzero" stroke="none" stroke-width="1" stroke-linecap="butt" stroke-linejoin="miter" stroke-miterlimit="10" stroke-dasharray="" stroke-dashoffset="0" font-family="none" font-weight="none" font-size="none" text-anchor="none" style="mix-blend-mode: normal" data-fill-palette-color="accent"></path></g><g transform="matrix(1,0,0,1,33.82345962644498,33.82345962644498)"><svg viewBox="0 0 101.47037887933494 101.47037887933494" height="101.47037887933494" width="101.47037887933494"><g><svg xmlns="http://www.w3.org/2000/svg" data-name="Layer 2" viewBox="5 5 90 90" x="0" y="0" height="101.47037887933494" width="101.47037887933494" class="icon-dxe-0" data-fill-palette-color="quaternary" id="dxe-0"><path d="M36.64 68.28V95H63.36V68.28L50 54.93ZM53.1 80.17L50 85.54 46.89 80.17 43.79 74.79H56.21ZM31.72 36.64H5V63.36H31.72L45.07 50ZM25.22 56.2L19.84 53.1 14.46 50 19.83 46.89 25.21 43.79V56.21ZM63.36 31.72V5H36.64V31.72L50 45.08ZM46.9 19.83L50 14.46 53.11 19.83 56.21 25.21H43.79ZM68.28 36.64L54.92 50 68.28 63.36H95V36.64zM80.17 53.11L74.79 56.21V43.79L80.17 46.89 85.54 50Z" fill="#000000" data-fill-palette-color="quaternary"></path></svg></g></svg></g></svg></g></svg></g><g></g></svg></g><defs></defs></svg><rect width="314.8528773796605" height="247.2" fill="none" stroke="none" visibility="hidden"></rect></g></svg></g></svg>