<svg xmlns="http://www.w3.org/2000/svg" xmlns:xlink="http://www.w3.org/1999/xlink" version="1.1" x="0px" y="0px" viewBox="0 0 500 500" style="enable-background:new 0 0 500 500;" xml:space="preserve">
<g id="Background_Complete">
	<g>
		<g>
			<g>
				<path style="fill:#948979;" d="M41.348,375.718c-4.092-2.57-8.781-4.184-13.588-4.677c-2.22-0.228-4.646-0.163-6.427,1.182      c-0.378,0.285-0.747,0.708-0.662,1.174c0.062,0.343,0.352,0.592,0.628,0.803C26.828,378.417,35.191,378.95,41.348,375.718"/>
			</g>
			<g>
				<path style="fill:#948979;" d="M40.999,375.334c-3.076-2.401-6.17-4.818-8.776-7.722c-2.606-2.904-4.724-6.352-5.502-10.176      c-0.236-1.16-0.309-2.485,0.435-3.405C34.151,359.495,39.647,366.561,40.999,375.334"/>
			</g>
			<g>
				<path style="fill:#948979;" d="M41.276,375.666c-0.527-3.827-0.716-7.761,0.163-11.523c0.879-3.762,2.925-7.362,6.138-9.508      c1.209,2.826,0.689,6.081-0.162,9.034c-1.316,4.563-3.381,8.91-6.086,12.814"/>
			</g>
			<g>
				<path style="fill:#948979;" d="M48.134,387.954c-4.163,0.506-7.789,2.7-10.897,5.515c-3.109,2.815-5.318,6.608-6.233,10.7      c4.084-0.252,7.548-3.132,10.06-6.361c2.513-3.229,4.253-6.772,7.013-9.792"/>
			</g>
			<g>
				<path style="fill:#948979;" d="M49.623,389.919c-3.353-8.26-2.138-18.212,3.103-25.423      C55.098,372.933,54.227,382.463,49.623,389.919"/>
			</g>
			<g>
				<path style="fill:#948979;" d="M58.685,400.709c-3.778-0.235-7.619,0.665-10.9,2.554c-3.281,1.889-5.988,4.758-7.683,8.143      c-0.23,0.46-0.434,1.045-0.125,1.457c0.268,0.358,0.786,0.391,1.232,0.362c3.662-0.237,6.908-2.441,9.587-4.95      c2.678-2.509,5.011-5.408,7.971-7.578"/>
			</g>
			<g>
				<path style="fill:#948979;" d="M58.395,400.122c-1.949-6.236-2.07-13.032-0.345-19.333c0.681-2.489,1.824-5.108,4.126-6.275      c0.196-0.1,0.425-0.188,0.631-0.111c0.195,0.073,0.309,0.274,0.399,0.462c0.819,1.71,1.057,3.652,0.973,5.547      c-0.084,1.894-0.477,3.759-0.869,5.615c-0.725,3.432-1.11,7.12-2.992,10.079c-0.447,0.703-0.84,1.461-1.197,2.214      c-0.356,0.752-0.359,1.017-0.685,1.615"/>
			</g>
			<g>
				<path style="fill:#948979;" d="M82.381,403.695c-1.777-6.76,0.109-14.954,4.369-20.496c0.314-0.408,0.729-0.845,1.242-0.798      c0.784,0.073,0.988,1.118,0.953,1.905C88.637,391.214,86.332,398.021,82.381,403.695"/>
			</g>
			<g>
				<path style="fill:#948979;" d="M84.544,405.173c8.212,2.137,17.634,0.06,24.464-4.976c-4.048-2.052-8.82-2.637-13.244-1.625      C91.34,399.584,87.298,401.566,84.544,405.173"/>
			</g>
			<g>
				<path style="fill:#948979;" d="M86.368,400.673c4.6-7.499,13.418-12.393,22.203-12.839c-1.012,3.573-3.949,6.351-7.262,8.029      c-3.313,1.678-7.012,2.409-10.658,3.117C89.232,399.255,87.287,399.558,86.368,400.673"/>
			</g>
			<g>
				<path style="fill:#948979;" d="M82.838,378.833c1.245-4.267,2.498-8.571,2.84-13.003c0.342-4.432-0.29-9.059-2.59-12.862      c-4.296,8.314-4.731,18.027-0.379,26.311"/>
			</g>
			<g>
				<path style="fill:#948979;" d="M97.303,371.522c5.024-9.132,15.275-16.426,25.647-17.448      C118.949,364.037,108.037,371.736,97.303,371.522"/>
			</g>
			<g>
				<path style="fill:#948979;" d="M94.142,373.311c7.493,1.141,13.877,5.927,20.88,8.828c1.497,0.62,3.113,1.115,4.72,0.904      c1.607-0.211,3.193-1.289,3.553-2.869c0.299-1.312-0.298-2.705-1.24-3.667c-0.942-0.962-2.186-1.562-3.429-2.08      c-7.627-3.175-15.806-3.255-23.84-1.329"/>
			</g>
			<g>
				<path style="fill:#948979;" d="M89.806,378.567c1.696,0.486,2.276,1.364,3.619,2.508c4.557,3.882,10.023,6.689,15.833,8.133      c0.605,0.15,1.398,0.21,1.698-0.336c0.262-0.477-0.069-1.055-0.409-1.48c-2.434-3.046-5.906-5.129-9.56-6.49      c-3.654-1.361-6.82-3.001-11.181-2.649"/>
			</g>
			<g>
				<path style="fill:#948979;" d="M84.913,346.826c6.093,5.687,14.675,8.607,22.973,7.816c0.378-0.036,0.789-0.096,1.046-0.375      c0.578-0.629-0.115-1.6-0.789-2.125C101.388,346.875,93.207,344.692,84.913,346.826"/>
			</g>
			<g>
				<path style="fill:#948979;" d="M90.714,344.703c8.054-6.039,19.099-7.861,28.666-4.73c-3.61,3.558-8.619,5.472-13.66,5.997      C100.679,346.495,95.631,345.935,90.714,344.703"/>
			</g>
			<g>
				<path style="fill:#948979;" d="M88.409,330.117c-0.663-6.741-0.233-12.063-0.701-18.836c-0.037-0.541-0.154-1.192-0.66-1.387      c-0.705-0.271-1.292,0.595-1.524,1.314c-2.007,6.244-0.91,13.404,2.874,18.761"/>
			</g>
			<g>
				<path style="fill:#948979;" d="M87.924,330.862c4.569-2.826,7.997-6.516,11.167-10.853c2.206-3.018,4.065-6.633,3.564-10.338      c-3.097-0.062-6.041,1.646-8.055,4c-2.015,2.354-3.212,5.296-4.106,8.262C89.599,324.899,88.973,327.947,87.924,330.862"/>
			</g>
			<g>
				<path style="fill:#948979;" d="M98.895,327.814c10.028-3.708,19.384-9.225,27.482-16.205c-3.283-1.322-7.041-0.531-10.323,0.794      c-7.498,3.027-13.625,8.136-17.302,15.338"/>
			</g>
			<g>
				<path style="fill:#948979;" d="M91.008,334.55c5.073,0.555,10.227,0.916,15.26,0.074c4.947-0.827,9.623-2.788,14.246-4.734      c0.383-0.161,0.8-0.355,0.968-0.735c0.182-0.413-0.012-0.916-0.347-1.219c-0.335-0.303-0.78-0.448-1.215-0.569      c-5.026-1.406-10.45-0.748-15.395,0.92C99.58,329.955,95.526,331.936,91.008,334.55"/>
			</g>
			<g>
				<path style="fill:#948979;" d="M62.04,347.056c-3.461-6.987-3.236-15.14-0.246-22.341c2.105,3.207,2.362,7.291,1.977,11.108      c-0.385,3.817-1.547,7.745-1.622,11.58"/>
			</g>
			<g>
				<path style="fill:#948979;" d="M48.213,340.082c-8.642-0.165-17.286,3.517-23.154,9.864c4.313,0.678,8.755-0.435,12.679-2.351      c3.923-1.916,7.41-4.604,10.865-7.272"/>
			</g>
			<g>
				<path style="fill:#948979;" d="M38.917,336.973c-4.228-0.343-8.295-0.866-12.36,0.379c-4.065,1.246-7.764,4.073-9.421,7.988      c3.954,0.446,7.964-0.546,11.588-2.188C32.348,341.51,35.643,339.235,38.917,336.973"/>
			</g>
			<g>
				<path style="fill:#948979;" d="M52.681,337.116c-3.803-2.492-7.708-5.03-12.137-6.062c-4.428-1.032-9.56-0.27-12.648,3.068      c3.585,2.104,7.934,2.352,12.09,2.349c4.156-0.003,9.252-0.05,13.17,1.336"/>
			</g>
			<g>
				<path style="fill:#948979;" d="M52.703,337.316c-6.502-6.385-8.967-17.854-6.351-26.583      C51.464,318.499,53.752,328.079,52.703,337.316"/>
			</g>
			<g>
				<path style="fill:#948979;" d="M70.582,319.227c1.226-2.851,2.089-5.843,3.189-8.744c1.1-2.902,2.467-5.757,4.546-8.061      c2.079-2.304,4.953-4.02,8.053-4.173c-1.94,8.785-7.775,16.635-15.629,21.025"/>
			</g>
			<g>
				<path style="fill:#948979;" d="M67.347,322.996c-2.029-2.793-4.374-6.584-7.125-8.669c-2.752-2.085-6.335-3.346-9.693-2.546      C53.943,317.887,60.397,322.19,67.347,322.996"/>
			</g>
			<g>
				<path style="fill:#948979;" d="M67.994,319.459c-1.33-3.38-2.67-6.795-3.208-10.387c-0.538-3.592-0.211-7.429,1.626-10.562      c3.569,6.747,4.719,13.989,1.763,21.026"/>
			</g>
			<g>
				<path style="fill:#948979;" d="M70.615,298.509c2.021-6.688,8.146-11.612,14.757-13.872c0.834-0.285,1.717-0.522,2.587-0.388      c0.871,0.135,1.724,0.73,1.907,1.592c0.241,1.138-0.699,2.157-1.583,2.913C83.135,293.156,77.083,296.498,70.615,298.509"/>
			</g>
			<g>
				<path style="fill:#948979;" d="M70.688,293.04c0.257-4.312,0.526-8.687,1.929-12.773c1.403-4.086,4.106-7.919,8.038-9.707      c0.669,4.355-1.253,8.688-3.57,12.436c-2.317,3.748-5.11,7.285-6.503,11.466"/>
			</g>
			<g>
				<path style="fill:#948979;" d="M70.582,296.008c-1.671-4.874-1.844-11.065-4.762-15.312c-2.04-2.968-5.307-4.99-7.065-8.134      c-1.168,2.936-0.81,6.32,0.411,9.234c1.221,2.915,3.24,5.423,5.399,7.73C66.725,291.833,68.574,293.568,70.582,296.008"/>
			</g>
			<g>
				<g>
					<path style="fill:#948979;" d="M70.615,439.549c-0.13,0-0.243-32.515-0.252-72.616c-0.009-40.115,0.089-72.623,0.219-72.623       c0.13,0,0.242,32.508,0.251,72.623C70.842,407.034,70.744,439.549,70.615,439.549z"/>
				</g>
			</g>
			<g>
				<g>
					<path style="fill:#948979;" d="M99.029,342.15c0.009,0.031-0.427,0.193-1.222,0.459c-0.878,0.296-2.008,0.678-3.365,1.135       c-2.837,0.966-6.734,2.366-10.964,4.099c-4.188,1.796-8.138,3.255-10.387,5.204c-1.124,0.962-1.769,2.003-2.087,2.761       c-0.323,0.763-0.38,1.23-0.423,1.222c-0.016-0.002-0.011-0.119,0.014-0.341c0.037-0.219,0.094-0.547,0.239-0.948       c0.274-0.802,0.901-1.915,2.037-2.943c1.131-1.031,2.704-1.957,4.507-2.8c1.803-0.841,3.801-1.719,5.922-2.591       c4.243-1.739,8.17-3.093,11.039-3.98c1.434-0.447,2.604-0.777,3.415-0.994C98.567,342.221,99.02,342.118,99.029,342.15z"/>
				</g>
			</g>
			<g>
				<g>
					<path style="fill:#948979;" d="M108.343,319.272c0.011,0.012-0.107,0.138-0.342,0.366c-0.277,0.26-0.622,0.584-1.043,0.98       c-0.969,0.88-2.288,2.078-3.895,3.539c-3.363,2.995-7.924,7.056-12.964,11.544c-5.061,4.505-9.434,8.809-12.465,12.05       c-1.518,1.618-2.713,2.959-3.528,3.895c-0.381,0.435-0.692,0.79-0.942,1.076c-0.218,0.244-0.339,0.367-0.352,0.357       c-0.013-0.01,0.083-0.153,0.278-0.416c0.197-0.261,0.483-0.651,0.875-1.134c0.774-0.974,1.934-2.352,3.424-4.003       c2.976-3.307,7.326-7.662,12.396-12.175c5.078-4.494,9.699-8.531,13.057-11.442c1.648-1.414,3-2.574,3.994-3.427       c0.445-0.369,0.809-0.671,1.102-0.914C108.193,319.362,108.332,319.26,108.343,319.272z"/>
				</g>
			</g>
			<g>
				<g>
					<path style="fill:#948979;" d="M84.634,340.28c-0.133-0.059,0.925-2.5,1.978-5.587c1.063-3.087,1.563-5.692,1.698-5.67       c0.123,0.013-0.177,2.694-1.253,5.82c-0.53,1.561-1.114,2.934-1.574,3.908C85.023,339.726,84.692,340.306,84.634,340.28z"/>
				</g>
			</g>
			<g>
				<g>
					<path style="fill:#948979;" d="M70.644,359.961c-0.026,0.019-0.303-0.304-0.78-0.905c-0.529-0.678-1.199-1.537-1.998-2.562       c-1.678-2.169-3.998-5.163-6.598-8.44c-2.602-3.277-4.992-6.217-6.723-8.343c-0.816-1.011-1.501-1.858-2.042-2.527       c-0.477-0.601-0.729-0.944-0.704-0.965c0.025-0.021,0.324,0.281,0.843,0.846c0.521,0.564,1.258,1.395,2.157,2.432       c1.798,2.074,4.232,4.983,6.837,8.265c2.603,3.281,4.884,6.311,6.496,8.533c0.806,1.111,1.448,2.017,1.879,2.653       C70.444,359.582,70.671,359.942,70.644,359.961z"/>
				</g>
			</g>
			<g>
				<g>
					<path style="fill:#948979;" d="M64.414,351.963c-0.077,0.082-1.739-1.89-2.61-4.886c-0.642-2.112-0.671-4.043-0.592-4.927       l0.208,0.017c-0.093,0.377-0.161,0.575-0.198,0.569c-0.037-0.006-0.039-0.216-0.008-0.603l0.208,0.017       c0.076,0.876,0.209,2.741,0.833,4.792C63.096,349.846,64.54,351.883,64.414,351.963z"/>
				</g>
			</g>
			<g>
				<g>
					<path style="fill:#948979;" d="M56.371,341.845c-0.06,0.065-0.595-0.609-1.822-1.059c-1.217-0.471-3.049-0.575-5.059-0.402       c-2.012,0.148-3.809,0.506-5.095,0.822c-1.286,0.319-2.072,0.569-2.097,0.503c-0.021-0.055,0.727-0.418,2.007-0.823       c1.278-0.402,3.1-0.82,5.149-0.971c2.033-0.176,3.961-0.019,5.219,0.563C55.948,341.043,56.413,341.833,56.371,341.845z"/>
				</g>
			</g>
			<g>
				<g>
					<path style="fill:#948979;" d="M54.464,339.393c-0.036,0.073-1.062-0.426-2.792-1.017c-1.727-0.594-4.188-1.217-6.966-1.434       c-2.78-0.207-5.306,0.036-7.104,0.361c-1.8,0.322-2.889,0.659-2.914,0.582c-0.01-0.031,0.253-0.141,0.74-0.315       c0.485-0.181,1.206-0.388,2.108-0.592c1.803-0.414,4.375-0.715,7.204-0.504c2.828,0.22,5.324,0.908,7.044,1.59       c0.861,0.339,1.543,0.652,1.994,0.905C54.235,339.215,54.479,339.364,54.464,339.393z"/>
				</g>
			</g>
			<g>
				<g>
					<path style="fill:#948979;" d="M70.582,329.023c-0.126,0.032-1.038-3.135-2.036-7.072c-0.999-3.939-1.706-7.157-1.581-7.189       c0.126-0.032,1.037,3.134,2.036,7.073C70,325.773,70.708,328.991,70.582,329.023z"/>
				</g>
			</g>
			<g>
				<g>
					<path style="fill:#948979;" d="M70.712,329.023c-0.14,0.046-0.726-2.071-2.257-4.234c-1.49-2.209-3.391-3.318-3.322-3.428       c0.025-0.049,0.549,0.143,1.282,0.661c0.734,0.511,1.642,1.377,2.424,2.497C70.428,326.771,70.825,329.015,70.712,329.023z"/>
				</g>
			</g>
			<g>
				<g>
					<path style="fill:#948979;" d="M70.615,422.216c-0.051,0.008-0.146-0.782-0.513-2.162c-0.362-1.381-1.044-3.339-2.173-5.63       c-2.246-4.591-6.334-10.411-11.529-16.242c-2.574-2.941-5.071-5.715-7.19-8.371c-2.123-2.652-3.868-5.18-5.142-7.416       c-1.278-2.234-2.11-4.151-2.595-5.503c-0.239-0.678-0.414-1.208-0.51-1.574c-0.103-0.364-0.149-0.557-0.134-0.562       c0.042-0.013,0.279,0.744,0.814,2.07c0.535,1.325,1.407,3.206,2.712,5.401c1.301,2.198,3.061,4.687,5.192,7.312       c2.128,2.629,4.629,5.387,7.207,8.333c5.208,5.846,9.286,11.74,11.474,16.406c1.1,2.329,1.741,4.325,2.051,5.73       c0.151,0.704,0.252,1.253,0.288,1.631C70.614,422.016,70.631,422.214,70.615,422.216z"/>
				</g>
			</g>
			<g>
				<g>
					<path style="fill:#948979;" d="M96.291,393.214c0.015,0.035-0.476,0.283-1.346,0.755c-0.863,0.485-2.088,1.232-3.491,2.307       c-1.403,1.074-2.972,2.485-4.584,4.181c-1.609,1.7-3.266,3.673-4.958,5.788c-3.382,4.243-6.545,7.998-8.439,10.995       c-0.962,1.487-1.661,2.74-2.119,3.619c-0.462,0.877-0.707,1.37-0.741,1.355c-0.015-0.007,0.028-0.138,0.125-0.382       c0.1-0.242,0.236-0.605,0.452-1.054c0.41-0.908,1.069-2.195,2.002-3.716c1.839-3.069,4.977-6.876,8.353-11.112       c1.695-2.119,3.372-4.097,5.012-5.794c1.642-1.694,3.253-3.096,4.697-4.147c1.445-1.053,2.709-1.765,3.605-2.203       c0.446-0.224,0.81-0.361,1.05-0.465C96.154,393.244,96.285,393.199,96.291,393.214z"/>
				</g>
			</g>
			<g>
				<g>
					<path style="fill:#948979;" d="M96.794,402.623c0.006,0.068-1.086,0.201-2.844,0.413c-1.752,0.227-4.191,0.519-6.746,1.329       c-2.546,0.829-4.662,2.092-6.04,3.17c-1.392,1.076-2.049,1.966-2.113,1.914c-0.023-0.016,0.114-0.259,0.421-0.655       c0.304-0.398,0.802-0.931,1.482-1.517c1.356-1.169,3.493-2.508,6.106-3.359c2.617-0.828,5.089-1.069,6.857-1.212       C95.69,402.577,96.789,402.561,96.794,402.623z"/>
				</g>
			</g>
			<g>
				<g>
					<path style="fill:#948979;" d="M79.881,408.414c-0.148-0.084,1.134-2.042,2.128-4.675c0.933-2.658,1.151-4.988,1.319-4.961       c0.061,0.007,0.058,0.59-0.047,1.526c-0.112,0.932-0.336,2.229-0.83,3.595c-0.497,1.364-1.149,2.503-1.65,3.297       C80.293,407.989,79.933,408.447,79.881,408.414z"/>
				</g>
			</g>
			<g>
				<g>
					<path style="fill:#948979;" d="M104.607,367.955c0.006,0.015-0.151,0.098-0.455,0.242c-0.353,0.16-0.795,0.361-1.337,0.608       c-0.585,0.251-1.296,0.569-2.097,0.992c-0.804,0.414-1.741,0.841-2.718,1.428c-0.496,0.282-1.013,0.576-1.552,0.882       c-0.538,0.31-1.07,0.677-1.637,1.031c-1.144,0.694-2.29,1.549-3.513,2.421c-2.393,1.816-4.91,3.967-7.333,6.449       c-2.4,2.507-4.463,5.096-6.197,7.551c-0.83,1.253-1.645,2.427-2.3,3.594c-0.335,0.578-0.684,1.123-0.975,1.671       c-0.287,0.548-0.564,1.076-0.829,1.581c-0.553,0.996-0.947,1.947-1.334,2.765c-0.395,0.815-0.688,1.536-0.919,2.129       c-0.228,0.55-0.413,0.998-0.561,1.357c-0.133,0.309-0.211,0.468-0.226,0.463c-0.015-0.005,0.032-0.175,0.137-0.495       c0.127-0.367,0.285-0.827,0.48-1.391c0.205-0.606,0.476-1.34,0.849-2.168c0.366-0.831,0.741-1.798,1.278-2.809       c0.258-0.513,0.527-1.048,0.807-1.605c0.284-0.556,0.628-1.109,0.958-1.695c0.644-1.184,1.453-2.374,2.279-3.643       c1.727-2.486,3.797-5.105,6.215-7.632c2.442-2.503,4.988-4.66,7.413-6.471c1.239-0.869,2.402-1.718,3.562-2.402       c0.575-0.35,1.115-0.712,1.661-1.015c0.547-0.299,1.073-0.586,1.576-0.861c0.992-0.571,1.945-0.98,2.764-1.374       c0.815-0.401,1.54-0.697,2.138-0.923c0.557-0.214,1.011-0.388,1.374-0.527C104.433,367.993,104.601,367.94,104.607,367.955z"/>
				</g>
			</g>
			<g>
				<g>
					<path style="fill:#948979;" d="M84.286,381.571c-0.042-0.007,0.185-0.796,1.117-1.664c0.91-0.867,2.57-1.669,4.502-1.727       c1.926-0.051,3.597,0.488,4.738,0.926c1.147,0.451,1.814,0.816,1.791,0.87c-0.027,0.065-0.741-0.192-1.9-0.556       c-1.155-0.354-2.788-0.819-4.614-0.77c-1.819,0.056-3.39,0.757-4.3,1.509C84.689,380.908,84.361,381.616,84.286,381.571z"/>
				</g>
			</g>
			<g>
				<g>
					<path style="fill:#948979;" d="M81.248,384.704c-0.129-0.072,1.017-1.752,1.278-4.159c0.3-2.403-0.428-4.302-0.286-4.342       c0.051-0.021,0.307,0.421,0.528,1.211c0.222,0.787,0.369,1.933,0.225,3.185c-0.148,1.251-0.555,2.332-0.952,3.047       C81.644,384.366,81.294,384.737,81.248,384.704z"/>
				</g>
			</g>
		</g>
		<g>
			<path style="fill:#948979;" d="M48.158,426.875c0.701,12.426,4.445,25.064,10.205,37.841h25.046     c5.493-12.65,8.979-25.268,9.598-37.841H48.158z"/>
		</g>
		<g>
			<g>
				<path style="fill:#FAFAFA;" d="M88.947,446.982c0,0.13-8.246,0.235-18.417,0.235c-10.174,0-18.418-0.105-18.418-0.235      c0-0.13,8.245-0.235,18.418-0.235C80.701,446.747,88.947,446.853,88.947,446.982z"/>
			</g>
		</g>
		<g>
			<g>
				<path style="fill:#FAFAFA;" d="M88.388,451.484c0,0.13-7.731,0.235-17.265,0.235c-9.537,0-17.267-0.105-17.267-0.235      c0-0.13,7.729-0.235,17.267-0.235C80.657,451.249,88.388,451.354,88.388,451.484z"/>
			</g>
		</g>
		<g>
			<g>
				<path style="fill:#FAFAFA;" d="M58.766,435.033c0.13,0,0.235,2.583,0.235,5.769c0,3.187-0.105,5.769-0.235,5.769      c-0.13,0-0.235-2.583-0.235-5.769C58.531,437.616,58.637,435.033,58.766,435.033z"/>
			</g>
		</g>
		<g>
			<g>
				<path style="fill:#FAFAFA;" d="M72.186,435.033c0.13,0,0.235,2.675,0.235,5.974c0,3.3-0.105,5.975-0.235,5.975      c-0.13,0-0.235-2.674-0.235-5.975C71.951,437.708,72.056,435.033,72.186,435.033z"/>
			</g>
		</g>
		<g>
			<g>
				<path style="fill:#FAFAFA;" d="M84.784,434.932c0.13,0,0.235,2.728,0.235,6.093c0,3.366-0.105,6.094-0.235,6.094      s-0.235-2.728-0.235-6.094C84.549,437.66,84.654,434.932,84.784,434.932z"/>
			</g>
		</g>
		<g>
			<g>
				<path style="fill:#FAFAFA;" d="M92.211,435.033c0,0.13-9.672,0.235-21.601,0.235c-11.932,0-21.602-0.105-21.602-0.235      c0-0.13,9.67-0.235,21.602-0.235C82.539,434.798,92.211,434.904,92.211,435.033z"/>
			</g>
		</g>
	</g>
	<g>
		
			<rect x="47.078" y="82.594" transform="matrix(0.9878 -0.1555 0.1555 0.9878 -15.4399 12.0316)" style="fill:none;stroke:#948979;stroke-width:0.5;stroke-miterlimit:10;" width="44.17" height="44.17"/>
		
			<rect x="90.711" y="75.723" transform="matrix(0.9878 -0.1555 0.1555 0.9878 -13.8403 18.7345)" style="fill:none;stroke:#948979;stroke-width:0.5;stroke-miterlimit:10;" width="44.17" height="44.17"/>
		
			<rect x="134.582" y="68.816" transform="matrix(0.9878 -0.1555 0.1555 0.9878 -12.232 25.4742)" style="fill:none;stroke:#948979;stroke-width:0.5;stroke-miterlimit:10;" width="44.17" height="44.17"/>
		
			<rect x="178.01" y="61.977" transform="matrix(0.9878 -0.1555 0.1555 0.9878 -10.6398 32.1458)" style="fill:none;stroke:#948979;stroke-width:0.5;stroke-miterlimit:10;" width="44.17" height="44.17"/>
		<polygon style="fill:none;stroke:#948979;stroke-width:0.5;stroke-miterlimit:10;" points="43.986,86.769 40.494,91.244     46.255,127.833 50.782,129.93   "/>
		<g>
			
				<rect x="83.84" y="32.091" transform="matrix(0.9878 -0.1555 0.1555 0.9878 -7.1374 17.1352)" style="fill:none;stroke:#948979;stroke-width:0.5;stroke-miterlimit:10;" width="44.17" height="44.17"/>
			
				<polygon style="fill:none;stroke:#948979;stroke-width:0.5;stroke-linecap:round;stroke-linejoin:round;stroke-miterlimit:10;" points="     80.442,35.831 76.963,40.39 82.85,77.777 87.386,79.935    "/>
			
				<polygon style="fill:none;stroke:#948979;stroke-width:0.5;stroke-linecap:round;stroke-linejoin:round;stroke-miterlimit:10;" points="     124.27,28.689 128.981,31.958 134.868,69.346 131.214,72.793    "/>
			
				<polygon style="fill:none;stroke:#948979;stroke-width:0.5;stroke-linecap:round;stroke-linejoin:round;stroke-miterlimit:10;" points="     124.307,28.924 119.79,25.439 82.801,31.263 80.674,35.795    "/>
		</g>
		<g>
			
				<rect x="97.612" y="119.426" transform="matrix(-0.9878 0.1555 -0.1555 -0.9878 259.9476 262.6821)" style="fill:none;stroke:#948979;stroke-width:0.5;stroke-miterlimit:10;" width="44.17" height="44.17"/>
			
				<polygon style="fill:none;stroke:#948979;stroke-width:0.5;stroke-linecap:round;stroke-linejoin:round;stroke-miterlimit:10;" points="     145.18,159.856 148.659,155.297 142.772,117.909 138.236,115.752    "/>
			
				<polygon style="fill:none;stroke:#948979;stroke-width:0.5;stroke-linecap:round;stroke-linejoin:round;stroke-miterlimit:10;" points="     101.353,166.998 96.642,163.729 90.755,126.341 94.408,122.894    "/>
			
				<polygon style="fill:none;stroke:#948979;stroke-width:0.5;stroke-linecap:round;stroke-linejoin:round;stroke-miterlimit:10;" points="     101.316,166.762 105.832,170.248 142.821,164.424 144.948,159.892    "/>
		</g>
	</g>
	<g>
		<g>
			<path style="fill:#EBEBEB;" d="M383.701,317.079c2.246-1.357,4.637-2.386,7.103-3.087l1.463-7.031l11.879-0.208l1.71,6.974     c2.489,0.613,4.915,1.558,7.208,2.836l6.003-3.935l8.547,8.253l-3.721,6.137c1.358,2.247,2.387,4.639,3.087,7.105l7.03,1.463     l0.209,11.878l-6.974,1.71c-0.613,2.489-1.558,4.914-2.835,7.207l3.935,6.004l-8.251,8.547l-6.138-3.722     c-2.246,1.358-4.638,2.386-7.104,3.087l-1.463,7.031l-11.878,0.208l-1.71-6.975c-2.489-0.614-4.915-1.558-7.207-2.836     l-6.003,3.935l-8.547-8.252l3.721-6.137c-1.357-2.246-2.387-4.637-3.087-7.104l-7.03-1.463l-0.208-11.878l6.975-1.71     c0.613-2.489,1.559-4.914,2.835-7.207l-3.935-6.004l8.251-8.547L383.701,317.079L383.701,317.079z M390.034,332.903     c-4.889,5.064-4.747,13.132,0.317,18.021c5.064,4.889,13.132,4.747,18.021-0.317c4.888-5.064,4.747-13.132-0.317-18.021     C402.99,327.698,394.923,327.84,390.034,332.903z"/>
		</g>
	</g>
	<g>
		<g>
			<path style="fill:#F5F5F5;" d="M428.456,44.493c1.672-1.011,3.453-1.777,5.289-2.299l1.089-5.236l8.846-0.155l1.273,5.193     c1.854,0.457,3.66,1.16,5.367,2.112l4.471-2.931l6.365,6.145l-2.771,4.57c1.011,1.673,1.777,3.454,2.299,5.291l5.235,1.09     l0.155,8.845l-5.194,1.273c-0.457,1.853-1.16,3.659-2.111,5.367l2.93,4.471l-6.144,6.365l-4.57-2.771     c-1.673,1.011-3.454,1.777-5.29,2.299l-1.09,5.236l-8.845,0.155l-1.273-5.194c-1.854-0.457-3.66-1.16-5.367-2.112l-4.47,2.93     l-6.365-6.145l2.771-4.57c-1.011-1.673-1.777-3.453-2.299-5.29l-5.235-1.09l-0.155-8.845l5.194-1.273     c0.457-1.853,1.161-3.66,2.111-5.367l-2.93-4.471l6.145-6.365L428.456,44.493L428.456,44.493z M433.171,56.276     c-3.641,3.771-3.535,9.779,0.236,13.42c3.771,3.641,9.779,3.535,13.419-0.236c3.64-3.771,3.535-9.779-0.236-13.42     C442.82,52.4,436.812,52.506,433.171,56.276z"/>
		</g>
	</g>
	<g>
		<g>
			<path style="fill:#EBEBEB;" d="M436.008,382.564c1.047-0.633,2.163-1.113,3.313-1.44l0.682-3.279l5.54-0.097l0.797,3.253     c1.161,0.286,2.292,0.727,3.361,1.322l2.8-1.835l3.986,3.849l-1.735,2.862c0.633,1.048,1.113,2.163,1.44,3.313l3.279,0.682     l0.097,5.54l-3.253,0.797c-0.286,1.161-0.727,2.292-1.322,3.361l1.835,2.8l-3.848,3.986l-2.862-1.736     c-1.048,0.633-2.163,1.113-3.313,1.44l-0.683,3.279l-5.54,0.097l-0.797-3.253c-1.161-0.286-2.292-0.727-3.361-1.322l-2.8,1.835     l-3.986-3.849l1.736-2.862c-0.633-1.048-1.113-2.163-1.44-3.313l-3.279-0.682l-0.097-5.54l3.253-0.798     c0.286-1.161,0.727-2.292,1.322-3.361l-1.835-2.8l3.848-3.986L436.008,382.564L436.008,382.564z M438.962,389.944     c-2.28,2.362-2.214,6.125,0.148,8.405c2.362,2.28,6.124,2.214,8.404-0.148c2.28-2.362,2.214-6.125-0.148-8.405     C445.004,387.516,441.242,387.582,438.962,389.944z"/>
		</g>
	</g>
	<g>
		<g>
			<path style="fill:#EBEBEB;" d="M194.206,272.05c1.047-0.633,2.163-1.113,3.313-1.44l0.682-3.279l5.54-0.097l0.797,3.253     c1.161,0.286,2.292,0.727,3.361,1.323l2.8-1.835l3.986,3.849l-1.735,2.862c0.633,1.048,1.113,2.163,1.44,3.314l3.279,0.682     l0.097,5.54l-3.253,0.798c-0.286,1.161-0.727,2.292-1.322,3.361l1.835,2.8l-3.848,3.986l-2.862-1.736     c-1.048,0.633-2.163,1.113-3.313,1.439l-0.682,3.279l-5.54,0.097l-0.797-3.253c-1.161-0.286-2.292-0.727-3.361-1.323l-2.8,1.835     l-3.986-3.849l1.736-2.862c-0.633-1.048-1.113-2.163-1.44-3.313l-3.279-0.682l-0.097-5.54l3.253-0.798     c0.286-1.161,0.727-2.292,1.322-3.361l-1.835-2.8l3.848-3.986L194.206,272.05L194.206,272.05z M197.16,279.43     c-2.28,2.362-2.214,6.124,0.148,8.404c2.361,2.28,6.124,2.214,8.404-0.148c2.28-2.362,2.214-6.124-0.148-8.404     C203.202,277.002,199.44,277.069,197.16,279.43z"/>
		</g>
	</g>
</g>
<g id="Background_Simple" style="display:none;">
	<g style="display:inline;">
		<path style="fill:#F5F5F5;" d="M445.045,75.632l-1.79-2.95c-15.089-24.866-42.372-39.855-71.136-38.036    c-3.697,0.234-7.379,0.734-11.011,1.512c-26.152,5.598-48.908,25.375-58.341,50.703c-5.547,14.896-7.097,32.047-17.624,43.871    c-13.7,15.388-36.96,15.871-57.41,15.234s-43.725-0.094-57.358,15.355c-8.538,9.675-11.252,23.434-10.563,36.391    c1.823,34.305,25.727,64.978,56.127,80.224c30.4,15.246,66.192,16.612,99.463,9.905c46.608-9.395,90.933-35.197,117.575-75.049    C459.619,172.939,466.361,118.645,445.045,75.632z"/>
	</g>
	<g style="display:inline;">
		
			<ellipse transform="matrix(0.2337 -0.9723 0.9723 0.2337 -15.6738 180.1328)" style="fill:#F5F5F5;" cx="106.439" cy="100.01" rx="39.241" ry="39.241"/>
	</g>
</g>
<g id="Floor">
	<g>
		<g>
			<path style="fill:#263238;" d="M471.34,464.978c0,0.144-98.21,0.26-219.329,0.26c-121.162,0-219.35-0.117-219.35-0.26     s98.189-0.26,219.35-0.26C373.13,464.717,471.34,464.834,471.34,464.978z"/>
		</g>
	</g>
</g>
<g id="Device">
	<g>
		<g>
			<g>
				<g>
					<g>
						<g>
							<g>
								<g>
									<g>
										<path style="fill:#455A64;" d="M375.47,380.381l-118.31-0.067c-14.229-0.007-25.759-11.068-25.757-24.707l0.058-284.305            c0.003-13.647,11.549-24.706,25.787-24.698l118.311,0.067c14.229,0.008,25.759,11.069,25.756,24.708l-0.058,284.305            C401.254,369.33,389.707,380.389,375.47,380.381z"/>
									</g>
								</g>
							</g>
						</g>
					</g>
					<g>
						<path style="fill:#ffffff;" d="M375.433,56.726l-22.938-0.013l-66.992-0.038l-8.067-0.005l-20.076-0.011        c-9.971-0.005-18.057,7.74-18.059,17.297l-0.057,277.502c-0.002,9.553,8.073,17.299,18.038,17.305l118.074,0.066        c9.97,0.006,18.057-7.739,18.059-17.297l0.056-277.503C393.473,64.477,385.399,56.732,375.433,56.726z"/>
					</g>
				</g>
			</g>
		</g>
		<g>
			<g>
				<rect x="281.422" y="185.604" style="fill:#153448;" width="93.023" height="85.269"/>
			</g>
			<g style="opacity:0.3;">
				<rect x="281.422" y="185.604" width="93.023" height="85.269" fill="#000000"/>
			</g>
			<g>
				<rect x="258.274" y="185.604" style="fill:#153448;" width="78.379" height="85.269"/>
			</g>
			<g>
				<g>
					<path style="fill:#263238;" d="M336.652,271.027c-0.144,0-0.26-19.124-0.26-42.709c0-23.593,0.117-42.713,0.26-42.713       c0.144,0,0.26,19.12,0.26,42.713C336.913,251.903,336.796,271.027,336.652,271.027z"/>
				</g>
			</g>
			<g>
				<g>
					<path style="fill:#263238;" d="M374.445,228.315c0,0.144-8.689,0.26-19.405,0.26c-10.719,0-19.406-0.117-19.406-0.26       c0-0.144,8.687-0.26,19.406-0.26C365.756,228.055,374.445,228.171,374.445,228.315z"/>
				</g>
			</g>
			<g>
				<g>
					<path style="fill:#ffffff;" d="M365.717,265.393h-4.899c-0.207,0-0.375-0.168-0.375-0.375s0.168-0.375,0.375-0.375h4.524v-4.5       c0-0.207,0.168-0.375,0.375-0.375c0.207,0,0.375,0.168,0.375,0.375v4.875C366.092,265.225,365.924,265.393,365.717,265.393z"/>
				</g>
				<g>
					<path style="fill:#ffffff;" d="M365.717,254.547c-0.207,0-0.375-0.168-0.375-0.375v-5.099h-4.653       c-0.207,0-0.375-0.168-0.375-0.375c0-0.207,0.168-0.375,0.375-0.375h5.028c0.207,0,0.375,0.168,0.375,0.375v5.474       C366.092,254.379,365.924,254.547,365.717,254.547z"/>
				</g>
				<g>
					<path style="fill:#ffffff;" d="M349.398,254.675c-0.207,0-0.375-0.168-0.375-0.375v-5.602c0-0.207,0.168-0.375,0.375-0.375h5       c0.207,0,0.375,0.168,0.375,0.375c0,0.207-0.168,0.375-0.375,0.375h-4.625v5.227       C349.773,254.507,349.605,254.675,349.398,254.675z"/>
				</g>
				<g>
					<path style="fill:#ffffff;" d="M354.269,265.393h-4.871c-0.207,0-0.375-0.168-0.375-0.375V260.4       c0-0.207,0.168-0.375,0.375-0.375s0.375,0.168,0.375,0.375v4.243h4.496c0.207,0,0.375,0.168,0.375,0.375       S354.476,265.393,354.269,265.393z"/>
				</g>
				<g>
					<path style="fill:#ffffff;" d="M360.687,261.909h-6.159c-0.207,0-0.375-0.168-0.375-0.375v-9.497       c0-0.207,0.168-0.375,0.375-0.375h6.159c0.207,0,0.375,0.168,0.375,0.375v9.497       C361.062,261.741,360.894,261.909,360.687,261.909z M354.903,261.159h5.409v-8.747h-5.409V261.159z"/>
				</g>
				<g>
					<path style="fill:#ffffff;" d="M358.215,259.955c0,0.293-0.238,0.531-0.531,0.531c-0.293,0-0.531-0.238-0.531-0.531       c0-0.293,0.238-0.531,0.531-0.531C357.977,259.424,358.215,259.662,358.215,259.955z"/>
				</g>
				<g>
					<path style="fill:#ffffff;" d="M358.3,253.853h-1.385c-0.207,0-0.375-0.168-0.375-0.375c0-0.207,0.168-0.375,0.375-0.375h1.385       c0.207,0,0.375,0.168,0.375,0.375C358.675,253.685,358.507,253.853,358.3,253.853z"/>
				</g>
			</g>
			<g>
				<path style="fill:#ffffff;" d="M311.931,232.738h-39.538c-1.323,0-2.396-1.073-2.396-2.396l0,0c0-1.323,1.073-2.396,2.396-2.396      h39.538c1.323,0,2.396,1.073,2.396,2.396l0,0C314.327,231.666,313.254,232.738,311.931,232.738z"/>
			</g>
			<g>
				<path style="fill:#ffffff;" d="M283.058,240.135h-10.664c-1.323,0-2.396-1.073-2.396-2.396v0c0-1.323,1.073-2.396,2.396-2.396      h10.664c1.323,0,2.396,1.073,2.396,2.396v0C285.454,239.062,284.381,240.135,283.058,240.135z"/>
			</g>
			<g>
				<g>
					<path style="fill:#ffffff;" d="M281.422,248.463c0,0.144-2.177,0.26-4.861,0.26c-2.685,0-4.861-0.117-4.861-0.26       s2.176-0.26,4.861-0.26C279.245,248.202,281.422,248.319,281.422,248.463z"/>
				</g>
			</g>
			<g>
				<g>
					<path style="fill:#ffffff;" d="M312.177,265.293h-1.472c-1.11,0-2.01-0.9-2.01-2.01v-1.472c0-1.11,0.9-2.01,2.01-2.01h1.472       c1.11,0,2.01,0.9,2.01,2.01v1.472C314.187,264.393,313.287,265.293,312.177,265.293z"/>
				</g>
				<g>
					<path style="fill:#ffffff;" d="M319.853,265.293h-1.472c-1.11,0-2.01-0.9-2.01-2.01v-1.472c0-1.11,0.9-2.01,2.01-2.01h1.472       c1.11,0,2.01,0.9,2.01,2.01v1.472C321.863,264.393,320.963,265.293,319.853,265.293z"/>
				</g>
				<g>
					<path style="fill:#ffffff;" d="M327.529,265.225h-1.472c-1.11,0-2.01-0.9-2.01-2.01v-1.472c0-1.11,0.9-2.01,2.01-2.01h1.472       c1.11,0,2.01,0.9,2.01,2.01v1.472C329.539,264.325,328.639,265.225,327.529,265.225z"/>
				</g>
			</g>
			<g>
				<rect x="270.236" y="201.212" style="fill:#ffffff;" width="30.435" height="12.28"/>
			</g>
		</g>
		<g>
			<path style="fill:#948979;" d="M469.745,152.706h-40.072c-1.814,0-3.284-1.47-3.284-3.284l0,0c0-1.814,1.47-3.284,3.284-3.284     h40.072c1.814,0,3.284,1.47,3.284,3.284l0,0C473.029,151.236,471.559,152.706,469.745,152.706z"/>
		</g>
		<g>
			<path style="fill:#948979;" d="M469.745,165.607h-40.072c-1.814,0-3.284-1.47-3.284-3.284l0,0c0-1.814,1.47-3.284,3.284-3.284     h40.072c1.814,0,3.284,1.47,3.284,3.284l0,0C473.029,164.136,471.559,165.607,469.745,165.607z"/>
		</g>
		<g>
			<path style="fill:#948979;" d="M441.741,178.228h-12.068c-1.814,0-3.284-1.47-3.284-3.284l0,0c0-1.814,1.47-3.284,3.284-3.284     h12.068c1.814,0,3.284,1.47,3.284,3.284l0,0C445.025,176.758,443.554,178.228,441.741,178.228z"/>
		</g>
		<g>
			<g>
				<path style="fill:#263238;" d="M419.393,137.565c0.104,0.099-10.266,11.179-23.16,24.745      c-12.898,13.571-23.435,24.488-23.539,24.389c-0.104-0.099,10.264-11.177,23.162-24.748      C408.749,148.385,419.288,137.466,419.393,137.565z"/>
			</g>
		</g>
		<g>
			<path style="fill:#263238;" d="M378.572,186.393c0,2.28-1.848,4.128-4.128,4.128c-2.28,0-4.128-1.848-4.128-4.128     s1.848-4.128,4.128-4.128C376.724,182.265,378.572,184.113,378.572,186.393z"/>
		</g>
		<g>
			<circle style="fill:#263238;" cx="258.274" cy="232.812" r="4.128"/>
		</g>
		<g>
			<circle style="fill:#263238;" cx="375.957" cy="259.424" r="4.128"/>
		</g>
		<g>
			<path style="fill:#948979;" d="M364.963,109.953h-91.831c-2.746,0-4.972-2.226-4.972-4.972l0,0c0-2.746,2.226-4.972,4.972-4.972     h91.831c2.746,0,4.972,2.226,4.972,4.972l0,0C369.934,107.727,367.708,109.953,364.963,109.953z"/>
		</g>
		<g>
			<path style="fill:#948979;" d="M346.11,130.499h-54.126c-2.746,0-4.972-2.226-4.972-4.972l0,0c0-2.746,2.226-4.972,4.972-4.972     h54.126c2.746,0,4.972,2.226,4.972,4.972l0,0C351.081,128.273,348.856,130.499,346.11,130.499z"/>
		</g>
		<g>
			<rect x="426.389" y="123.891" style="fill:#153448;" width="11.391" height="11.391"/>
		</g>
		<g>
			<path style="fill:#948979;" d="M219.43,140.849h-40.072c-1.814,0-3.284-1.47-3.284-3.284l0,0c0-1.814,1.47-3.284,3.284-3.284     h40.072c1.814,0,3.284,1.47,3.284,3.284l0,0C222.715,139.379,221.244,140.849,219.43,140.849z"/>
		</g>
		<g>
			<path style="fill:#948979;" d="M219.43,153.75h-40.072c-1.814,0-3.284-1.47-3.284-3.284l0,0c0-1.814,1.47-3.284,3.284-3.284     h40.072c1.814,0,3.284,1.47,3.284,3.284l0,0C222.715,152.279,221.244,153.75,219.43,153.75z"/>
		</g>
		<g>
			<path style="fill:#948979;" d="M191.426,166.371h-12.068c-1.814,0-3.284-1.47-3.284-3.284l0,0c0-1.814,1.47-3.284,3.284-3.284     h12.068c1.814,0,3.284,1.47,3.284,3.284l0,0C194.71,164.9,193.24,166.371,191.426,166.371z"/>
		</g>
		<g>
			<rect x="176.074" y="112.033" style="fill:#153448;" width="11.391" height="11.39"/>
		</g>
		<g>
			<path style="fill:#948979;" d="M477.101,277.033h-40.072c-1.814,0-3.284-1.47-3.284-3.284l0,0c0-1.814,1.47-3.284,3.284-3.284     h40.072c1.814,0,3.284,1.47,3.284,3.284l0,0C480.385,275.563,478.915,277.033,477.101,277.033z"/>
		</g>
		<g>
			<path style="fill:#948979;" d="M477.101,289.934h-40.072c-1.814,0-3.284-1.47-3.284-3.284v0c0-1.814,1.47-3.284,3.284-3.284     h40.072c1.814,0,3.284,1.47,3.284,3.284v0C480.385,288.463,478.915,289.934,477.101,289.934z"/>
		</g>
		<g>
			<path style="fill:#948979;" d="M449.096,302.555h-12.068c-1.814,0-3.284-1.47-3.284-3.284l0,0c0-1.814,1.47-3.284,3.284-3.284     h12.068c1.814,0,3.284,1.47,3.284,3.284l0,0C452.381,301.084,450.91,302.555,449.096,302.555z"/>
		</g>
		<g>
			<rect x="433.745" y="251" style="fill:#153448;" width="11.391" height="11.391"/>
		</g>
		<g>
			<g>
				<path style="fill:#263238;" d="M424.794,259.424c0,0.036-0.602,0.07-1.689,0.101c-1.176,0.021-2.728,0.049-4.606,0.083      c-3.889,0.047-9.261,0.076-15.195,0.076c-5.936,0-11.309-0.029-15.197-0.076c-1.877-0.034-3.429-0.062-4.605-0.083      c-1.087-0.031-1.689-0.066-1.689-0.101c0-0.036,0.601-0.07,1.689-0.101c1.176-0.021,2.728-0.049,4.605-0.083      c3.889-0.047,9.262-0.076,15.197-0.076c5.934,0,11.306,0.029,15.195,0.076c1.877,0.034,3.43,0.062,4.606,0.083      C424.193,259.354,424.794,259.388,424.794,259.424z"/>
			</g>
		</g>
		<g>
			<g>
				<path style="fill:#263238;" d="M204.102,178.814c0.102-0.102,12.312,11.943,27.269,26.9      c14.962,14.962,27.005,27.17,26.903,27.271c-0.102,0.102-12.309-11.941-27.271-26.903      C216.046,191.125,204.001,178.915,204.102,178.814z"/>
			</g>
		</g>
		<g>
			<path style="fill:#153448;" d="M249.549,171.838c-0.276,0-0.5-0.224-0.5-0.5v-14.757c0-0.276,0.224-0.5,0.5-0.5h14.783     c0.276,0,0.5,0.224,0.5,0.5c0,0.276-0.224,0.5-0.5,0.5h-14.283v14.257C250.049,171.615,249.826,171.838,249.549,171.838z"/>
		</g>
		<g>
			<path style="fill:#153448;" d="M380.085,171.851c-0.276,0-0.5-0.224-0.5-0.5v-14.283h-14.257c-0.276,0-0.5-0.224-0.5-0.5     c0-0.276,0.224-0.5,0.5-0.5h14.757c0.276,0,0.5,0.224,0.5,0.5v14.783C380.585,171.628,380.361,171.851,380.085,171.851z"/>
		</g>
		<g>
			<path style="fill:#153448;" d="M380.085,295.566h-14.783c-0.276,0-0.5-0.224-0.5-0.5c0-0.276,0.224-0.5,0.5-0.5h14.283v-14.258     c0-0.276,0.224-0.5,0.5-0.5s0.5,0.224,0.5,0.5v14.758C380.585,295.342,380.361,295.566,380.085,295.566z"/>
		</g>
		<g>
			<path style="fill:#153448;" d="M264.306,295.4h-14.757c-0.276,0-0.5-0.224-0.5-0.5v-14.783c0-0.276,0.224-0.5,0.5-0.5     c0.276,0,0.5,0.224,0.5,0.5V294.4h14.257c0.276,0,0.5,0.224,0.5,0.5C264.806,295.176,264.583,295.4,264.306,295.4z"/>
		</g>
		<g>
			
				<ellipse transform="matrix(0.9227 -0.3855 0.3855 0.9227 -108.9191 147.9008)" style="fill:#948979;" cx="314.327" cy="345.537" rx="12.193" ry="12.193"/>
		</g>
		<g>
			<g>
				<g>
					<path style="fill:#948979;" d="M256.501,82.428c2.747-2.7,5.493-5.4,8.24-8.1c0.701-0.689,0.742-1.971,0-2.652       c-0.754-0.692-1.904-0.735-2.652,0c-2.747,2.7-5.493,5.4-8.24,8.101c-0.701,0.689-0.742,1.971,0,2.652       C254.603,83.12,255.754,83.163,256.501,82.428L256.501,82.428z"/>
				</g>
			</g>
			<g>
				<g>
					<path style="fill:#948979;" d="M264.672,79.846c-2.7-2.747-5.4-5.493-8.1-8.24c-0.689-0.701-1.971-0.742-2.652,0       c-0.692,0.754-0.735,1.904,0,2.652c2.7,2.747,5.4,5.493,8.1,8.24c0.689,0.701,1.971,0.742,2.652,0       C265.363,81.744,265.406,80.594,264.672,79.846L264.672,79.846z"/>
				</g>
			</g>
		</g>
		<g>
			<g>
				<path style="fill:#263238;" d="M393.734,270.873c0,0.144-34.645,0.26-77.373,0.26c-42.742,0-77.38-0.116-77.38-0.26      c0-0.144,34.638-0.26,77.38-0.26C359.088,270.613,393.734,270.729,393.734,270.873z"/>
			</g>
		</g>
	</g>
</g>
<g id="Box">
	<g>
		<g>
			<g>
				<rect x="205.712" y="318.973" style="fill:#153448;" width="158.995" height="145.742"/>
			</g>
			<g style="opacity:0.3;">
				<rect x="205.712" y="318.973" width="158.995" height="145.742" fill="#000000"/>
			</g>
			<g>
				<rect x="166.147" y="318.973" style="fill:#153448;" width="133.965" height="145.742"/>
			</g>
			<g>
				<g>
					<path style="fill:#263238;" d="M300.112,464.978c-0.144,0-0.26-32.687-0.26-72.999c0-40.326,0.117-73.006,0.26-73.006       s0.26,32.68,0.26,73.006C300.373,432.291,300.256,464.978,300.112,464.978z"/>
				</g>
			</g>
			<g>
				<g>
					<path style="fill:#263238;" d="M364.707,391.975c0,0.144-14.851,0.26-33.166,0.26c-18.322,0-33.169-0.117-33.169-0.26       c0-0.144,14.848-0.26,33.169-0.26C349.856,391.715,364.707,391.832,364.707,391.975z"/>
				</g>
			</g>
			<g>
				<g>
					<path style="fill:#ffffff;" d="M349.791,455.707h-8.375c-0.553,0-1-0.447-1-1c0-0.553,0.447-1,1-1h7.375v-7.333       c0-0.553,0.447-1,1-1c0.553,0,1,0.447,1,1v8.333C350.791,455.26,350.343,455.707,349.791,455.707z"/>
				</g>
				<g>
					<path style="fill:#ffffff;" d="M349.791,437.17c-0.553,0-1-0.447-1-1v-8.356h-7.595c-0.553,0-1-0.447-1-1c0-0.553,0.447-1,1-1       h8.595c0.553,0,1,0.447,1,1v9.356C350.791,436.723,350.343,437.17,349.791,437.17z"/>
				</g>
				<g>
					<path style="fill:#ffffff;" d="M321.897,437.389c-0.553,0-1-0.447-1-1v-9.575c0-0.553,0.447-1,1-1h8.546c0.553,0,1,0.447,1,1       c0,0.553-0.447,1-1,1h-7.546v8.575C322.897,436.942,322.45,437.389,321.897,437.389z"/>
				</g>
				<g>
					<path style="fill:#ffffff;" d="M330.223,455.707h-8.326c-0.553,0-1-0.447-1-1v-7.893c0-0.553,0.447-1,1-1s1,0.447,1,1v6.893       h7.326c0.553,0,1,0.447,1,1C331.223,455.26,330.776,455.707,330.223,455.707z"/>
				</g>
				<g>
					<path style="fill:#ffffff;" d="M341.193,449.754h-10.527c-0.553,0-1-0.447-1-1v-16.233c0-0.553,0.447-1,1-1h10.527       c0.553,0,1,0.447,1,1v16.233C342.193,449.307,341.746,449.754,341.193,449.754z M331.666,447.754h8.527v-14.233h-8.527V447.754       z"/>
				</g>
				<g>
					<circle style="fill:#ffffff;" cx="336.06" cy="446.055" r="0.907"/>
				</g>
				<g>
					<path style="fill:#ffffff;" d="M337.113,435.983h-2.367c-0.553,0-1-0.447-1-1c0-0.553,0.447-1,1-1h2.367c0.553,0,1,0.447,1,1       C338.113,435.535,337.666,435.983,337.113,435.983z"/>
				</g>
			</g>
			<g>
				<path style="fill:#ffffff;" d="M257.859,399.535H190.28c-2.262,0-4.095-1.833-4.095-4.095l0,0c0-2.262,1.834-4.095,4.095-4.095      h67.578c2.262,0,4.095,1.833,4.095,4.095l0,0C261.954,397.702,260.12,399.535,257.859,399.535z"/>
			</g>
			<g>
				<path style="fill:#ffffff;" d="M208.508,412.177H190.28c-2.262,0-4.095-1.833-4.095-4.095l0,0c0-2.262,1.834-4.095,4.095-4.095      h18.228c2.262,0,4.095,1.833,4.095,4.095l0,0C212.604,410.344,210.77,412.177,208.508,412.177z"/>
			</g>
			<g>
				<g>
					<path style="fill:#ffffff;" d="M205.712,426.411c0,0.144-3.72,0.26-8.308,0.26c-4.59,0-8.309-0.117-8.309-0.26       c0-0.144,3.719-0.26,8.309-0.26C201.992,426.151,205.712,426.267,205.712,426.411z"/>
				</g>
			</g>
			<g>
				<g>
					<path style="fill:#ffffff;" d="M259.705,455.179h-5.367c-1.11,0-2.01-0.9-2.01-2.01v-5.367c0-1.11,0.9-2.01,2.01-2.01h5.367       c1.11,0,2.01,0.9,2.01,2.01v5.367C261.715,454.279,260.815,455.179,259.705,455.179z"/>
				</g>
				<g>
					<path style="fill:#ffffff;" d="M272.824,455.179h-5.367c-1.11,0-2.01-0.9-2.01-2.01v-5.367c0-1.11,0.9-2.01,2.01-2.01h5.367       c1.11,0,2.01,0.9,2.01,2.01v5.367C274.835,454.279,273.935,455.179,272.824,455.179z"/>
				</g>
				<g>
					<path style="fill:#ffffff;" d="M285.944,455.061h-5.367c-1.11,0-2.01-0.9-2.01-2.01v-5.367c0-1.11,0.9-2.01,2.01-2.01h5.367       c1.11,0,2.01,0.9,2.01,2.01v5.367C287.955,454.161,287.055,455.061,285.944,455.061z"/>
				</g>
			</g>
			<g>
				<rect x="187.653" y="354.008" style="fill:#ffffff;" width="61.949" height="21.215"/>
			</g>
		</g>
		<g>
			<g>
				<g>
					<path style="fill:#153448;" d="M381.365,416.974c6.251,4.506,6.558,13.968,1.369,19.284c-2.249,2.304,1.283,5.843,3.536,3.536       c3.561-3.648,5.456-8.795,5.048-13.89c-0.431-5.382-3.049-10.09-7.429-13.247c-1.096-0.79-2.785-0.19-3.42,0.897       C379.731,414.813,380.266,416.182,381.365,416.974L381.365,416.974z"/>
				</g>
			</g>
			<g>
				<g>
					<path style="fill:#153448;" d="M389.138,410.647c10.005,7.165,10.746,22.38,2.313,30.968c-2.256,2.298,1.276,5.836,3.535,3.536       c8.077-8.225,9.617-21.557,3.634-31.427c-1.786-2.947-4.165-5.393-6.958-7.393c-1.098-0.787-2.783-0.192-3.421,0.897       C387.505,408.484,388.037,409.859,389.138,410.647L389.138,410.647z"/>
				</g>
			</g>
			<g>
				<g>
					<path style="fill:#153448;" d="M397.565,403.291c10.658,7.602,13.944,22.188,9.09,33.956c-1.325,3.214-3.359,6.233-5.83,8.74       c-2.261,2.294,1.272,5.832,3.536,3.536c10.586-10.741,12.529-28.258,4.638-41.114c-2.299-3.745-5.341-6.889-8.91-9.435       c-1.1-0.784-2.783-0.194-3.42,0.897C395.934,401.126,396.463,402.505,397.565,403.291L397.565,403.291z"/>
				</g>
			</g>
		</g>
	</g>
</g>
<g id="Character">
	<g>
		<g>
			<g>
				<g>
					<g>
						<g>
							<g>
								<g>
									<g>
										<g>
											<g>
												<g>
													<g>
														<g>
															<g>
																<g>
																	<path style="fill:#455A64;" d="M124.636,433.767l-0.634,30.273l39.849,0.938                   c-0.138-3.603-20.563-11.311-20.563-11.311l1.248-19.381L124.636,433.767z"/>
																</g>
															</g>
														</g>
													</g>
												</g>
											</g>
										</g>
									</g>
								</g>
							</g>
						</g>
						<g style="opacity:0.6;">
							<g>
								<g>
									<g>
										<g>
											<g>
												<g>
													<g>
														<g>
															<g>
																<g>
																	<g>
																		<path style="fill:#ffffff;" d="M131.008,451.744c-0.776,0.182-1.331,0.988-1.171,1.729s1.023,1.28,1.803,1.112                    c0.78-0.168,1.477-1.118,1.23-1.837c-0.246-0.719-1.297-1.301-2.011-0.961"/>
																	</g>
																</g>
															</g>
														</g>
													</g>
												</g>
											</g>
										</g>
									</g>
								</g>
							</g>
						</g>
						<g style="opacity:0.6;">
							<g>
								<g>
									<g>
										<g>
											<g>
												<g>
													<g>
														<g>
															<g>
																<g>
																	<path style="fill:#ffffff;" d="M124.002,464.039l0.19-3.049l38.135,2.04c0,0,1.755,0.771,1.523,1.947                   L124.002,464.039z"/>
																</g>
															</g>
														</g>
													</g>
												</g>
											</g>
										</g>
									</g>
								</g>
							</g>
						</g>
						<g>
							<g>
								<g>
									<g>
										<g>
											<g>
												<g>
													<g>
														<g>
															<g>
																<g>
																	<g>
																		<path style="fill:#263238;" d="M143.938,453.49c-0.011,0.184-0.986,0.244-1.959,0.813                    c-0.989,0.545-1.503,1.33-1.68,1.252c-0.178-0.04,0.141-1.132,1.332-1.802                    C142.814,453.075,143.985,453.322,143.938,453.49z"/>
																	</g>
																</g>
															</g>
														</g>
													</g>
												</g>
											</g>
										</g>
									</g>
								</g>
							</g>
						</g>
						<g>
							<g>
								<g>
									<g>
										<g>
											<g>
												<g>
													<g>
														<g>
															<g>
																<g>
																	<g>
																		<path style="fill:#263238;" d="M148.074,455.222c0.04,0.179-0.811,0.472-1.492,1.234                    c-0.705,0.743-0.894,1.58-1.088,1.568c-0.184,0.024-0.29-1.056,0.576-1.988                    C146.928,455.097,148.075,455.047,148.074,455.222z"/>
																	</g>
																</g>
															</g>
														</g>
													</g>
												</g>
											</g>
										</g>
									</g>
								</g>
							</g>
						</g>
						<g>
							<g>
								<g>
									<g>
										<g>
											<g>
												<g>
													<g>
														<g>
															<g>
																<g>
																	<g>
																		<path style="fill:#263238;" d="M150.324,460.006c-0.178,0.035-0.424-0.89,0.102-1.885                    c0.519-0.999,1.447-1.375,1.525-1.22c0.106,0.154-0.499,0.68-0.918,1.504                    C150.594,459.218,150.518,459.992,150.324,460.006z"/>
																	</g>
																</g>
															</g>
														</g>
													</g>
												</g>
											</g>
										</g>
									</g>
								</g>
							</g>
						</g>
						<g>
							<g>
								<g>
									<g>
										<g>
											<g>
												<g>
													<g>
														<g>
															<g>
																<g>
																	<g>
																		<path style="fill:#263238;" d="M143.704,449.043c-0.086,0.166-0.972-0.109-2.074-0.064                    c-1.103,0.024-1.968,0.353-2.065,0.192c-0.109-0.135,0.744-0.796,2.043-0.832                    C142.906,448.294,143.804,448.901,143.704,449.043z"/>
																	</g>
																</g>
															</g>
														</g>
													</g>
												</g>
											</g>
										</g>
									</g>
								</g>
							</g>
						</g>
						<g>
							<g>
								<g>
									<g>
										<g>
											<g>
												<g>
													<g>
														<g>
															<g>
																<g>
																	<g>
																		<path style="fill:#263238;" d="M142.873,444.553c0,0.076-0.772,0.172-1.996-0.057                    c-0.609-0.114-1.324-0.32-2.072-0.655c-0.373-0.168-0.754-0.367-1.131-0.602c-0.18-0.116-0.395-0.233-0.591-0.458                    c-0.211-0.197-0.32-0.688-0.064-0.98c0.212-0.285,0.576-0.401,0.863-0.4c0.294-0.002,0.531,0.059,0.746,0.115                    c0.441,0.112,0.853,0.261,1.23,0.431c0.753,0.345,1.36,0.774,1.81,1.185c0.903,0.831,1.201,1.525,1.133,1.559                    c-0.09,0.059-0.525-0.528-1.448-1.218c-0.46-0.343-1.051-0.701-1.755-0.99c-0.353-0.142-0.734-0.267-1.137-0.361                    c-0.419-0.115-0.778-0.126-0.891,0.049c-0.041,0.067-0.047,0.093,0.038,0.212c0.088,0.11,0.257,0.219,0.434,0.334                    c0.347,0.225,0.697,0.423,1.039,0.594c0.687,0.342,1.345,0.581,1.911,0.744                    C142.129,444.385,142.879,444.453,142.873,444.553z"/>
																	</g>
																</g>
															</g>
														</g>
													</g>
												</g>
											</g>
										</g>
									</g>
								</g>
							</g>
						</g>
						<g>
							<g>
								<g>
									<g>
										<g>
											<g>
												<g>
													<g>
														<g>
															<g>
																<g>
																	<g>
																		<path style="fill:#263238;" d="M142.613,444.81c-0.07,0.027-0.438-0.641-0.478-1.834                    c-0.018-0.591,0.066-1.306,0.327-2.059c0.133-0.375,0.309-0.758,0.538-1.133c0.243-0.367,0.542-0.858,1.298-0.922                    c0.395-0.005,0.714,0.294,0.82,0.546c0.125,0.258,0.146,0.477,0.187,0.696c0.062,0.442,0.041,0.873-0.032,1.27                    c-0.146,0.799-0.511,1.457-0.904,1.928c-0.804,0.958-1.622,1.158-1.637,1.095                    c-0.063-0.094,0.625-0.433,1.246-1.356c0.306-0.455,0.583-1.059,0.678-1.757c0.048-0.348,0.052-0.718-0.008-1.091                    c-0.052-0.402-0.202-0.728-0.362-0.691c-0.198-0.008-0.543,0.286-0.714,0.601                    c-0.214,0.333-0.385,0.674-0.521,1.011c-0.268,0.675-0.394,1.324-0.436,1.873                    C142.529,444.091,142.719,444.785,142.613,444.81z"/>
																	</g>
																</g>
															</g>
														</g>
													</g>
												</g>
											</g>
										</g>
									</g>
								</g>
							</g>
						</g>
					</g>
				</g>
				<g>
					<g>
						<g>
							<g>
								<g>
									<g>
										<g>
											<g>
												<g>
													<g>
														<g>
															<g>
																<g>
																	<path style="fill:#455A64;" d="M94.434,436.281l-3.807,30.039l-39.556-4.909                   c0.665-3.544,21.998-8.177,21.998-8.177l1.604-19.355L94.434,436.281z"/>
																</g>
															</g>
														</g>
													</g>
												</g>
											</g>
										</g>
									</g>
								</g>
							</g>
						</g>
						<g style="opacity:0.6;">
							<g>
								<g>
									<g>
										<g>
											<g>
												<g>
													<g>
														<g>
															<g>
																<g>
																	<g>
																		<path style="fill:#ffffff;" d="M85.497,453.132c0.741,0.293,1.172,1.172,0.906,1.882                    c-0.266,0.709-1.199,1.117-1.946,0.836c-0.747-0.281-1.297-1.322-0.948-1.997c0.349-0.675,1.474-1.097,2.13-0.656                    "/>
																	</g>
																</g>
															</g>
														</g>
													</g>
												</g>
											</g>
										</g>
									</g>
								</g>
							</g>
						</g>
						<g style="opacity:0.6;">
							<g>
								<g>
									<g>
										<g>
											<g>
												<g>
													<g>
														<g>
															<g>
																<g>
																	<path style="fill:#ffffff;" d="M90.627,466.32l0.258-3.044l-38.022-3.569c0,0-1.849,0.506-1.792,1.704                   L90.627,466.32z"/>
																</g>
															</g>
														</g>
													</g>
												</g>
											</g>
										</g>
									</g>
								</g>
							</g>
						</g>
						<g>
							<g>
								<g>
									<g>
										<g>
											<g>
												<g>
													<g>
														<g>
															<g>
																<g>
																	<g>
																		<path style="fill:#263238;" d="M72.451,452.965c-0.016,0.183,0.94,0.386,1.819,1.091                    c0.898,0.684,1.292,1.536,1.479,1.485c0.183-0.013,0.027-1.141-1.053-1.977                    C73.624,452.719,72.429,452.792,72.451,452.965z"/>
																	</g>
																</g>
															</g>
														</g>
													</g>
												</g>
											</g>
										</g>
									</g>
								</g>
							</g>
						</g>
						<g>
							<g>
								<g>
									<g>
										<g>
											<g>
												<g>
													<g>
														<g>
															<g>
																<g>
																	<g>
																		<path style="fill:#263238;" d="M68.105,454.072c-0.066,0.172,0.733,0.586,1.296,1.44                    c0.589,0.838,0.653,1.694,0.846,1.71c0.178,0.051,0.441-1.002-0.279-2.051                    C69.257,454.116,68.13,453.898,68.105,454.072z"/>
																	</g>
																</g>
															</g>
														</g>
													</g>
												</g>
											</g>
										</g>
									</g>
								</g>
							</g>
						</g>
						<g>
							<g>
								<g>
									<g>
										<g>
											<g>
												<g>
													<g>
														<g>
															<g>
																<g>
																	<g>
																		<path style="fill:#263238;" d="M65.18,458.474c0.171,0.061,0.55-0.818,0.175-1.88                    c-0.367-1.064-1.23-1.572-1.33-1.43c-0.127,0.137,0.394,0.746,0.688,1.622                    C65.028,457.655,64.99,458.432,65.18,458.474z"/>
																	</g>
																</g>
															</g>
														</g>
													</g>
												</g>
											</g>
										</g>
									</g>
								</g>
							</g>
						</g>
						<g>
							<g>
								<g>
									<g>
										<g>
											<g>
												<g>
													<g>
														<g>
															<g>
																<g>
																	<g>
																		<path style="fill:#263238;" d="M73.334,448.6c0.061,0.177,0.978,0.035,2.061,0.24                    c1.088,0.185,1.895,0.637,2.015,0.493c0.128-0.118-0.62-0.897-1.899-1.122                    C74.233,447.976,73.256,448.445,73.334,448.6z"/>
																	</g>
																</g>
															</g>
														</g>
													</g>
												</g>
											</g>
										</g>
									</g>
								</g>
							</g>
						</g>
						<g>
							<g>
								<g>
									<g>
										<g>
											<g>
												<g>
													<g>
														<g>
															<g>
																<g>
																	<g>
																		<path style="fill:#263238;" d="M74.814,444.28c-0.011,0.075,0.738,0.283,1.983,0.236                    c0.619-0.024,1.357-0.123,2.145-0.345c0.394-0.111,0.8-0.253,1.207-0.43c0.196-0.088,0.425-0.173,0.651-0.366                    c0.237-0.164,0.418-0.633,0.206-0.961c-0.168-0.313-0.511-0.481-0.796-0.522                    c-0.291-0.045-0.534-0.019-0.755,0.005c-0.453,0.046-0.883,0.133-1.28,0.247                    c-0.795,0.231-1.459,0.566-1.964,0.907c-1.015,0.689-1.411,1.333-1.35,1.376c0.08,0.071,0.596-0.445,1.611-0.993                    c0.506-0.272,1.142-0.54,1.881-0.722c0.37-0.089,0.765-0.156,1.178-0.19c0.432-0.052,0.788-0.011,0.875,0.179                    c0.031,0.072,0.033,0.099-0.069,0.204c-0.104,0.096-0.286,0.179-0.479,0.267                    c-0.376,0.172-0.751,0.316-1.115,0.436c-0.729,0.238-1.416,0.377-1.999,0.457                    C75.574,444.223,74.822,444.18,74.814,444.28z"/>
																	</g>
																</g>
															</g>
														</g>
													</g>
												</g>
											</g>
										</g>
									</g>
								</g>
							</g>
						</g>
						<g>
							<g>
								<g>
									<g>
										<g>
											<g>
												<g>
													<g>
														<g>
															<g>
																<g>
																	<g>
																		<path style="fill:#263238;" d="M75.034,444.573c0.065,0.037,0.528-0.57,0.742-1.744                    c0.104-0.583,0.126-1.301-0.021-2.084c-0.076-0.391-0.195-0.796-0.367-1.2c-0.187-0.398-0.41-0.928-1.149-1.103                    c-0.39-0.063-0.75,0.186-0.891,0.42c-0.161,0.237-0.214,0.451-0.287,0.661c-0.126,0.428-0.169,0.857-0.154,1.261                    c0.028,0.812,0.292,1.517,0.611,2.04c0.656,1.065,1.435,1.383,1.459,1.323c0.076-0.084-0.555-0.52-1.033-1.524                    c-0.236-0.495-0.422-1.133-0.413-1.838c0.003-0.352,0.053-0.718,0.167-1.078c0.11-0.39,0.307-0.691,0.459-0.631                    c0.197,0.021,0.495,0.362,0.618,0.699c0.162,0.36,0.282,0.724,0.368,1.076c0.166,0.707,0.196,1.367,0.157,1.917                    C75.221,443.874,74.932,444.532,75.034,444.573z"/>
																	</g>
																</g>
															</g>
														</g>
													</g>
												</g>
											</g>
										</g>
									</g>
								</g>
							</g>
						</g>
					</g>
				</g>
				<g>
					<g>
						<g>
							<g>
								<path style="fill:#263238;" d="M145.847,451.207"/>
							</g>
						</g>
					</g>
					<g>
						<g>
							<g>
								<path style="fill:#263238;" d="M159.201,272.977l-65.7,2.101c0,0-14.621,97.65-14.218,104.434l-9.017,70.831l26.24,0.92          c0,0,4.128-22.969,7.007-38.69c1.915-10.46,5.41-25.806,6.358-34.54c0.948-8.734,14.023-68.85,14.023-68.85          s1.137,69.925,1.163,72.834c0.026,2.909-3.033,69.191-3.033,69.191h26.055c1.346-11.963,4.544-59.836,5.232-69.511          c1.243-17.465,7.352-67.716,7.923-80.326C161.802,288.762,159.201,272.977,159.201,272.977z"/>
							</g>
						</g>
					</g>
				</g>
			</g>
			<g>
				<g>
					<g>
						<g>
							<path style="fill:#455A64;" d="M103.472,283.46c-0.125,0.004-0.268-1.357-0.319-3.039c-0.051-1.683,0.009-3.049,0.134-3.053         c0.125-0.004,0.268,1.357,0.319,3.039C103.658,282.089,103.598,283.456,103.472,283.46z"/>
						</g>
					</g>
				</g>
			</g>
			<g>
				<g>
					<g>
						<g>
							<path style="fill:#455A64;" d="M105.868,282.75c-0.125-0.012-0.118-1.175,0.015-2.597c0.133-1.423,0.342-2.567,0.467-2.555         c0.125,0.012,0.118,1.174-0.015,2.597C106.202,281.618,105.993,282.762,105.868,282.75z"/>
						</g>
					</g>
				</g>
			</g>
			<g>
				<g>
					<g>
						<g>
							<ellipse style="fill:#455A64;" cx="145.964" cy="280.529" rx="0.227" ry="2.225"/>
						</g>
					</g>
				</g>
			</g>
			<g>
				<g>
					<g>
						<g>
							<path style="fill:#455A64;" d="M148.54,283.925c-0.117,0.019-0.391-1.259-0.254-2.851c0.129-1.593,0.61-2.809,0.722-2.771         c0.126,0.037-0.147,1.269-0.271,2.808C148.605,282.649,148.671,283.91,148.54,283.925z"/>
						</g>
					</g>
				</g>
			</g>
			<g>
				<g>
					<g>
						<g>
							<path style="fill:#455A64;" d="M127.611,307.618c-0.031-0.007,0.025-0.414,0.152-1.143c0.14-0.818,0.316-1.853,0.527-3.088         c0.431-2.608,0.938-6.226,1.266-10.244c0.323-4.02,0.404-7.673,0.399-10.316c-0.009-1.253-0.017-2.303-0.023-3.132         c-0.008-0.74,0.002-1.151,0.034-1.152c0.031-0.002,0.08,0.406,0.143,1.144c0.066,0.739,0.125,1.81,0.168,3.135         c0.087,2.65,0.057,6.32-0.268,10.358c-0.329,4.036-0.889,7.663-1.402,10.264c-0.255,1.301-0.486,2.349-0.67,3.068         C127.756,307.23,127.642,307.625,127.611,307.618z"/>
						</g>
					</g>
				</g>
			</g>
			<g>
				<g>
					<g>
						<g>
							<path style="fill:#455A64;" d="M125.365,279.276c0.019,0.08-0.691-0.006-1.313,0.732c-0.289,0.35-0.538,0.899-0.429,1.47         c0.09,0.572,0.639,1.059,1.314,1.185c0.675,0.13,1.364-0.121,1.658-0.62c0.311-0.491,0.281-1.093,0.14-1.525         c-0.308-0.915-1-1.095-0.953-1.163c0.004-0.021,0.174-0.024,0.438,0.113c0.263,0.133,0.599,0.44,0.815,0.936         c0.201,0.484,0.296,1.195-0.084,1.857c-0.371,0.679-1.281,1.015-2.099,0.847c-0.822-0.145-1.545-0.791-1.641-1.558         c-0.111-0.755,0.239-1.381,0.603-1.758c0.382-0.382,0.808-0.545,1.101-0.572C125.212,279.19,125.368,279.255,125.365,279.276         z"/>
						</g>
					</g>
				</g>
			</g>
			<g>
				<g>
					<g>
						<g>
							<path style="fill:#455A64;" d="M96.762,387.017c-0.048,0.116-3.023-0.996-6.645-2.484c-3.623-1.488-6.521-2.788-6.473-2.904         c0.048-0.116,3.022,0.996,6.645,2.484C93.912,385.602,96.81,386.901,96.762,387.017z"/>
						</g>
					</g>
				</g>
			</g>
		</g>
		<g>
			<g>
				<g>
					<g>
						<g>
							<path style="fill:#153448;" d="M162.674,277.368c-0.233-0.839-5.465-44.189-5.465-44.189l2.716-56.26l-23.41-8.21         l-3.705-2.828l-23.531,0.273l-2.666,3.97l-22.281,10.14l6.209,46.093l1.742,38.572l1.647,14.284l66.039,3.939         L162.674,277.368z"/>
						</g>
					</g>
				</g>
			</g>
			<g style="opacity:0.3;">
				<g>
					<g>
						<g>
							<path d="M159.082,248.453l-24.711,2.969c-0.24,1.829,1.152,3.572,2.854,4.284c1.702,0.712,3.628,0.605,5.455,0.345         c1.826-0.26,3.66-0.662,5.497-0.5c1.843,0.163,3.635,0.891,5.482,0.777c1.831-0.113,3.588-1.106,4.628-2.617         C159.328,252.199,159.63,250.203,159.082,248.453z" fill="#000000"/>
						</g>
					</g>
				</g>
			</g>
			<g>
				<g>
					<g>
						<g>
							<path style="fill:#153448;" d="M159.925,176.919c0,0,5.48,0.767,8.68,10.368c3.2,9.601,10.721,44.483,11.201,46.883         c0.48,2.4-1.605,10.061-9.958,13.488c-8.024,3.292-14.364,2.252-14.364,2.252v-17.66l3.52-3.84l-1.379-6.229L159.925,176.919         z"/>
						</g>
					</g>
				</g>
			</g>
			<g>
				<g>
					<g>
						<g>
							<g>
								<path style="fill:#263238;" d="M174.808,229.354c-0.009,0.017-0.303-0.116-0.836-0.351          c-0.533-0.235-1.305-0.575-2.282-0.935c-0.975-0.359-2.158-0.739-3.505-0.997c-0.673-0.13-1.387-0.229-2.13-0.27          c-0.746-0.051-1.508-0.018-2.281,0.135c-3.1,0.634-5.576,2.376-6.835,3.997c-0.648,0.811-0.971,1.593-1.187,2.129          c-0.162,0.554-0.248,0.867-0.267,0.864c-0.008-0.002,0.002-0.081,0.031-0.233c0.031-0.151,0.07-0.376,0.143-0.661          c0.189-0.553,0.495-1.364,1.139-2.207c1.254-1.687,3.757-3.487,6.929-4.136c0.789-0.158,1.592-0.191,2.344-0.135          c0.756,0.045,1.48,0.15,2.16,0.288c1.362,0.274,2.55,0.675,3.523,1.058c0.975,0.383,1.739,0.749,2.26,1.013          c0.262,0.13,0.461,0.239,0.595,0.314C174.743,229.303,174.812,229.346,174.808,229.354z"/>
							</g>
						</g>
					</g>
				</g>
			</g>
			<g>
				<g>
					<g>
						<g>
							<g>
								<path style="fill:#263238;" d="M169.848,226.062c-0.017,0.044-0.661-0.255-1.767-0.48c-1.098-0.229-2.686-0.331-4.352,0.086          c-1.667,0.417-3.02,1.256-3.88,1.975c-0.869,0.72-1.296,1.286-1.332,1.256c-0.012-0.01,0.082-0.16,0.28-0.411          c0.198-0.252,0.509-0.597,0.936-0.98c0.845-0.767,2.22-1.656,3.935-2.084c1.714-0.429,3.345-0.294,4.452-0.015          c0.557,0.137,0.995,0.295,1.287,0.424C169.701,225.959,169.854,226.047,169.848,226.062z"/>
							</g>
						</g>
					</g>
				</g>
			</g>
			<g>
				<g>
					<g>
						<g>
							<g>
								<path style="fill:#263238;" d="M158.123,191.306c0.07,0.001,0.022,8.593-0.107,19.188          c-0.129,10.599-0.289,19.188-0.359,19.187c-0.07-0.001-0.022-8.591,0.107-19.19          C157.893,199.896,158.054,191.305,158.123,191.306z"/>
							</g>
						</g>
					</g>
				</g>
			</g>
			<g>
				<g>
					<g>
						<path style="fill:#263238;" d="M158.552,230.398l-13.157-0.17c-0.902-0.01-1.739,0.471-2.186,1.255l-9,19.486l0.339,1.314        h15.295l8.943-20.092L158.552,230.398z"/>
					</g>
				</g>
			</g>
			<g>
				<g>
					<g>
						<path style="fill:#FFBF9D;" d="M158.434,232.981l-0.486,1.099l-2.665,5.391c0,0-6.897-0.617-7.981-0.762        c-1.085-0.145-1.663,1.012-1.735,1.693c-0.072,0.681,0.578,1.46,0.578,1.46s-4.266-1.346-5.712-2.358        c-1.446-1.012-2.169-0.376-2.169-0.376c-1.301-1.317-2.965,0.015-3.037,0.376c-0.072,0.361,1.518,4.194,2.097,5.079        c0.579,0.885,3.76,3.96,3.977,4.321c0.217,0.362,2.675,1.012,5.495,2.558c2.619,1.436,4.612-0.254,4.883-0.501        c0.046,0.002,0.157-0.005,0.396-0.032c0.651-0.072,2.386-1.735,2.82-1.683c0.434,0.052,0.795-0.053,1.663-1.013        c0.868-0.96,3.182-5.041,3.818-7.21c0.505-1.721,0.209-2.166,0.065-2.277c0.214,0.117,1.023,0.514,2.552,0.759        c1.808,0.289,2.748-1.012,2.892-3.47C166.028,233.575,160.459,233.632,158.434,232.981z"/>
					</g>
				</g>
			</g>
			<g>
				<g>
					<g>
						<g>
							<g>
								<path style="fill:#FF9A6C;" d="M157.5,244.221c0.003,0.015-0.16,0.053-0.457,0.11c-0.296,0.06-0.732,0.116-1.272,0.157          c-1.079,0.084-2.591,0.044-4.212-0.305c-1.621-0.354-3.014-0.944-3.961-1.466c-0.475-0.261-0.848-0.492-1.092-0.669          c-0.247-0.174-0.38-0.276-0.371-0.289c0.022-0.033,0.577,0.338,1.536,0.819c0.957,0.482,2.338,1.04,3.936,1.389          c1.599,0.344,3.087,0.408,4.157,0.365C156.834,244.29,157.494,244.182,157.5,244.221z"/>
							</g>
						</g>
					</g>
				</g>
			</g>
			<g>
				<g>
					<g>
						<g>
							<g>
								<path style="fill:#FF9A6C;" d="M157.627,239.29c0.02,0.053-0.686,0.329-1.609,0.367c-0.923,0.044-1.651-0.167-1.636-0.222          c0.012-0.064,0.735,0.044,1.626,0C156.899,239.4,157.609,239.227,157.627,239.29z"/>
							</g>
						</g>
					</g>
				</g>
			</g>
			<g>
				<g>
					<g>
						<g>
							<g>
								<path style="fill:#FF9A6C;" d="M160.898,239.058c-0.027,0.06-1.003-0.354-2.258-0.699c-1.253-0.351-2.303-0.499-2.295-0.565          c0.004-0.057,1.08-0.005,2.355,0.351C159.975,238.496,160.924,239.008,160.898,239.058z"/>
							</g>
						</g>
					</g>
				</g>
			</g>
			<g>
				<g>
					<g>
						<g>
							<g>
								<path style="fill:#FF9A6C;" d="M160.265,234.415c0.062,0.021-0.187,0.772-0.197,1.73c0.001,0.475,0.019,0.919,0.122,1.195          c0.098,0.287,0.293,0.357,0.28,0.389c-0.004,0.012-0.059,0.016-0.148-0.027c-0.088-0.042-0.199-0.144-0.276-0.298          c-0.159-0.313-0.198-0.768-0.2-1.262C159.858,235.138,160.214,234.388,160.265,234.415z"/>
							</g>
						</g>
					</g>
				</g>
			</g>
			<g>
				<g>
					<g>
						<g>
							<g>
								<path style="fill:#FF9A6C;" d="M153.627,248.412c-0.001,0.008-0.074,0.01-0.214,0.008c-0.166-0.006-0.368-0.013-0.612-0.022          c-0.531-0.027-1.301-0.068-2.248-0.178c-0.945-0.112-2.075-0.291-3.28-0.688c-0.601-0.199-1.219-0.458-1.824-0.789          c-0.606-0.329-1.203-0.716-1.813-1.105c-2.748-1.754-5.194-3.335-6.774-4.373l-0.038-0.025l0.005-0.042          c0.102-0.801,0.551-1.311,0.874-1.57c0.166-0.133,0.311-0.21,0.41-0.258c0.101-0.044,0.155-0.061,0.158-0.055          c0.009,0.018-0.208,0.099-0.518,0.371c-0.298,0.268-0.707,0.773-0.783,1.525l-0.032-0.066          c1.606,0.996,4.07,2.551,6.817,4.305c0.612,0.39,1.203,0.775,1.798,1.101c0.593,0.328,1.195,0.585,1.785,0.786          c1.182,0.4,2.298,0.594,3.235,0.725c0.939,0.129,1.705,0.194,2.234,0.248c0.243,0.025,0.444,0.046,0.609,0.063          C153.554,248.392,153.627,248.404,153.627,248.412z"/>
							</g>
						</g>
					</g>
				</g>
			</g>
			<g>
				<g>
					<g>
						<g>
							<g>
								<path style="fill:#FF9A6C;" d="M151.296,250.76c-0.002,0.014-0.233-0.007-0.647-0.071c-0.413-0.064-1.01-0.168-1.742-0.327          c-1.46-0.327-3.472-0.837-5.589-1.725c-1.055-0.452-2.006-1.024-2.774-1.659c-0.772-0.63-1.39-1.281-1.887-1.841          c-0.497-0.561-0.874-1.035-1.132-1.364c-0.258-0.329-0.393-0.517-0.381-0.527c0.012-0.01,0.17,0.159,0.447,0.472          c0.279,0.311,0.673,0.769,1.182,1.313c0.509,0.543,1.132,1.176,1.899,1.788c0.763,0.616,1.693,1.168,2.735,1.615          c2.091,0.876,4.093,1.412,5.536,1.775c0.724,0.178,1.315,0.305,1.722,0.395C151.073,250.693,151.299,250.744,151.296,250.76          z"/>
							</g>
						</g>
					</g>
				</g>
			</g>
			<g>
				<g>
					<g>
						<g>
							<path style="fill:#263238;" d="M86.925,191.544c-0.066,0.021-0.688-1.766-1.388-3.991c-0.701-2.225-1.214-4.046-1.148-4.067         c0.066-0.021,0.688,1.766,1.388,3.991C86.477,189.702,86.991,191.523,86.925,191.544z"/>
						</g>
					</g>
				</g>
			</g>
			<g>
				<g>
					<g>
						<g>
							<path style="fill:#263238;" d="M159.721,179.605c0.035,0.007-0.021,0.459-0.122,1.187c-0.11,0.819-0.239,1.781-0.382,2.844         c-0.123,1.065-0.234,2.029-0.329,2.851c-0.081,0.73-0.138,1.182-0.174,1.18c-0.034-0.002-0.039-0.458-0.003-1.195         c0.036-0.736,0.118-1.751,0.257-2.868c0.14-1.116,0.31-2.12,0.456-2.842C159.57,180.039,159.688,179.598,159.721,179.605z"/>
						</g>
					</g>
				</g>
			</g>
			<g>
				<g>
					<g>
						<g>
							<path style="fill:#263238;" d="M136.747,245.721c0.019,0.028-0.331,0.306-0.982,0.786c-0.649,0.483-1.611,1.149-2.82,1.943         c-2.416,1.59-5.854,3.642-9.811,5.606c-3.96,1.96-7.675,3.455-10.403,4.416c-1.364,0.481-2.477,0.844-3.254,1.068         c-0.776,0.228-1.21,0.338-1.22,0.306c-0.01-0.032,0.403-0.204,1.159-0.487c0.844-0.32,1.915-0.727,3.194-1.212         c2.689-1.04,6.365-2.579,10.306-4.53c3.938-1.955,7.387-3.949,9.843-5.46c1.16-0.724,2.132-1.33,2.898-1.808         C136.341,245.919,136.728,245.694,136.747,245.721z"/>
						</g>
					</g>
				</g>
			</g>
			<g style="opacity:0.3;">
				<g>
					<g>
						<g>
							<path d="M86.814,250.056c-2.416-1.281-4.857-2.571-7.493-3.295c-2.637-0.724-5.524-0.845-8.053,0.194         c-0.282,0.116-0.598,0.301-0.619,0.605c-0.029,0.423,0.504,0.623,0.923,0.689c5.021,0.797,10.329,1.167,15.36,1.905" fill="#000000"/>
						</g>
					</g>
				</g>
			</g>
			<g>
				<g>
					<g>
						<g>
							<path style="fill:#FFBF9D;" d="M114.55,293.428c0,0-5.15-4.183-6.642-6.083c-1.492-1.9-2.466-3-2.466-3         s-6.168-1.848-8.436-4.455c-2.267-2.608-5.993-6.374-5.993-6.374l-7.312,7.662c0,0,4.217,6.836,4.56,9.089         c0.344,2.253,2.918,8.462,2.918,8.462l14.033-8.39c0,0,2.989,4.183,4.903,4.64         C111.684,295.353,114.428,296.486,114.55,293.428z"/>
						</g>
					</g>
				</g>
			</g>
			<g>
				<g>
					<g>
						<path style="fill:#153448;" d="M84.332,180.264c0,0-5.058,1.287-10.071,20.141c-4.526,17.023-10.679,49.883-10.469,53.188        c0.209,3.305,19.759,32.954,19.759,32.954l4.223,1.501l9.081-7.549c0,0,2.964-4.916,2.12-6.116        c-0.844-1.2-4.613-3.715-4.613-3.715l-7.432-20.514l4.125-27.189L84.332,180.264z"/>
					</g>
				</g>
			</g>
			<g>
				<g>
					<g>
						<g>
							<path style="fill:#263238;" d="M79.274,248.87c0.003-0.019,0.192-0.007,0.547,0.034c0.419,0.056,0.928,0.124,1.543,0.206         c1.417,0.216,3.314,0.505,5.598,0.853l0.11,0.017l0.04,0.108c1.175,3.2,2.651,7.222,4.256,11.595         c1.16,3.232,2.251,6.274,3.197,8.91l-0.068-0.094c0.612,0.516,1.216,0.953,1.758,1.489c0.526,0.535,0.926,1.135,1.205,1.741         c0.565,1.218,0.632,2.426,0.51,3.365c-0.134,0.952-0.466,1.63-0.641,2.094c-0.189,0.465-0.3,0.71-0.322,0.702         c-0.022-0.008,0.047-0.268,0.196-0.747c0.139-0.484,0.425-1.167,0.515-2.077c0.081-0.904-0.019-2.048-0.578-3.183         c-0.277-0.565-0.663-1.12-1.164-1.612c-0.498-0.479-1.138-0.934-1.748-1.434l-0.047-0.039l-0.021-0.056         c-0.962-2.63-2.072-5.666-3.252-8.891c-1.568-4.386-3.011-8.421-4.158-11.631l0.149,0.124         c-2.273-0.416-4.16-0.761-5.57-1.019c-0.608-0.123-1.112-0.225-1.526-0.309C79.453,248.939,79.271,248.889,79.274,248.87z"/>
						</g>
					</g>
				</g>
			</g>
			<g>
				<g>
					<g>
						<g>
							<path style="fill:#263238;" d="M88.913,200.657c0.135-0.007,0.989,13.86,1.907,30.97c0.918,17.116,1.553,30.992,1.417,30.999         c-0.135,0.007-0.989-13.857-1.907-30.973C89.412,214.543,88.778,200.664,88.913,200.657z"/>
						</g>
					</g>
				</g>
			</g>
			<g>
				<g>
					<path style="fill:#263238;" d="M125.93,181.708c0.003,0.03-0.283,0.087-0.807,0.136c-0.524,0.05-1.287,0.076-2.229,0.021       c-1.877-0.101-4.495-0.618-7.075-1.939c-2.582-1.32-4.533-3.141-5.713-4.604c-0.595-0.732-1.021-1.366-1.287-1.82       c-0.267-0.454-0.387-0.719-0.362-0.734c0.069-0.044,0.667,0.953,1.901,2.338c1.224,1.383,3.159,3.116,5.674,4.402       c2.513,1.287,5.05,1.843,6.888,2.027C124.767,181.725,125.925,181.626,125.93,181.708z"/>
				</g>
			</g>
			<g>
				<g>
					<path style="fill:#263238;" d="M136.357,169.688c0.049-0.017,0.356,0.681,0.485,1.896c0.134,1.203,0.02,2.945-0.73,4.67       c-0.75,1.726-1.947,2.997-2.919,3.719c-0.977,0.733-1.697,0.985-1.717,0.937c-0.037-0.068,0.618-0.422,1.507-1.195       c0.887-0.764,1.984-2.009,2.697-3.648c0.713-1.639,0.876-3.289,0.83-4.46C136.47,170.428,136.282,169.707,136.357,169.688z"/>
				</g>
			</g>
		</g>
		<g>
			<g>
				<g>
					<g>
						<path style="fill:#263238;" d="M143.987,124.701c2.264,0.297,4.618-1.331,5.14-3.553c0.523-2.222-0.859-4.728-3.018-5.471        c1.435-1.422,1.827-3.787,0.929-5.596c-0.898-1.81-3.018-2.927-5.018-2.645c-0.05-1.994-1.209-3.924-2.945-4.905        c-1.736-0.981-3.988-0.978-5.721,0.008c-2.171-1.925-5.72-2.055-8.026-0.294c-1.93-0.39-4.059,0.606-4.997,2.338        c-0.938,1.732-0.609,4.059,0.773,5.463"/>
					</g>
				</g>
				<g>
					<g>
						<path style="fill:#FFBF9D;" d="M144.652,125.362c-0.646-10.279-9.081-18.336-19.379-18.519l-1.023-0.018        c-11.047,0.45-16.837,10.083-16.082,21.113l1.055,38.761c2.485,5.908,6.555,10.696,14.063,11.96        c3.033,0.511,6.178-0.243,8.456-2.309c1.678-1.522,2.694-3.445,2.837-5.972l0.106-7.689c0,0,10.638-1.462,10.957-12.067        C145.796,145.5,145.254,134.926,144.652,125.362z"/>
						<g>
							<g>
								<g>
									<g>
										<g>
											<path style="fill:#FF9A6C;" d="M134.773,162.675c0,0-6.781,0.288-13.826-4.313c0,0,3.134,7.691,13.735,6.923             L134.773,162.675z"/>
										</g>
									</g>
								</g>
							</g>
						</g>
						<g>
							<g>
								<g>
									<g>
										<g>
											<g>
												<g>
													<g>
														<path style="fill:#263238;" d="M141.79,134.615c0.015,0.8-0.652,1.472-1.488,1.502                c-0.834,0.03-1.523-0.593-1.537-1.393c-0.014-0.8,0.652-1.473,1.486-1.504                C141.087,133.19,141.776,133.815,141.79,134.615z"/>
													</g>
												</g>
											</g>
										</g>
									</g>
								</g>
							</g>
						</g>
						<g>
							<g>
								<g>
									<g>
										<g>
											<g>
												<g>
													<g>
														<g>
															<path style="fill:#263238;" d="M142.281,130.515c-0.191,0.194-1.323-0.675-2.954-0.7                 c-1.628-0.048-2.839,0.77-3.012,0.567c-0.085-0.09,0.112-0.443,0.639-0.813c0.52-0.369,1.4-0.72,2.416-0.698                 c1.015,0.024,1.863,0.412,2.347,0.804C142.212,130.068,142.375,130.429,142.281,130.515z"/>
														</g>
													</g>
												</g>
											</g>
										</g>
									</g>
								</g>
							</g>
						</g>
						<g>
							<g>
								<g>
									<g>
										<g>
											<g>
												<g>
													<g>
														<path style="fill:#263238;" d="M127.553,134.952c0.014,0.8-0.652,1.472-1.488,1.502                c-0.834,0.03-1.523-0.592-1.537-1.393c-0.014-0.8,0.652-1.473,1.486-1.503                C126.849,133.527,127.539,134.152,127.553,134.952z"/>
													</g>
												</g>
											</g>
										</g>
									</g>
								</g>
							</g>
						</g>
						<g>
							<g>
								<g>
									<g>
										<g>
											<g>
												<g>
													<g>
														<g>
															<path style="fill:#263238;" d="M126.254,130.536c-0.192,0.194-1.326-0.675-2.954-0.7                 c-1.628-0.048-2.839,0.77-3.012,0.567c-0.085-0.09,0.11-0.443,0.64-0.813c0.519-0.369,1.4-0.72,2.416-0.698                 c1.015,0.023,1.863,0.413,2.347,0.804C126.183,130.089,126.347,130.449,126.254,130.536z"/>
														</g>
													</g>
												</g>
											</g>
										</g>
									</g>
								</g>
							</g>
						</g>
						<g>
							<g>
								<g>
									<g>
										<g>
											<g>
												<g>
													<g>
														<path style="fill:#263238;" d="M131.955,142.729c-0.006-0.093,1.01-0.25,2.656-0.431                c0.417-0.035,0.813-0.111,0.888-0.394c0.103-0.299-0.063-0.751-0.256-1.239c-0.374-1.014-0.764-2.077-1.175-3.191                c-1.63-4.543-2.801-8.275-2.618-8.339c0.184-0.064,1.653,3.566,3.283,8.109c0.392,1.12,0.767,2.188,1.123,3.209                c0.149,0.476,0.411,1.017,0.187,1.637c-0.118,0.309-0.427,0.53-0.695,0.597c-0.268,0.077-0.502,0.077-0.708,0.086                C132.985,142.832,131.96,142.821,131.955,142.729z"/>
													</g>
												</g>
											</g>
										</g>
									</g>
								</g>
							</g>
						</g>
						<g>
							<g>
								<g>
									<g>
										<path style="fill:#263238;" d="M125.943,125.086c-0.097,0.456-1.572,0.401-3.255,0.812            c-1.692,0.373-3.01,1.076-3.278,0.705c-0.121-0.179,0.075-0.619,0.586-1.105c0.507-0.484,1.344-0.983,2.356-1.219            c1.012-0.234,1.97-0.152,2.621,0.064C125.63,124.557,125.983,124.87,125.943,125.086z"/>
									</g>
								</g>
							</g>
						</g>
						<g>
							<g>
								<g>
									<g>
										<path style="fill:#263238;" d="M142.233,125.984c-0.343,0.344-1.537-0.139-3.009-0.276            c-1.467-0.184-2.742,0.028-2.997-0.381c-0.111-0.198,0.116-0.552,0.689-0.857c0.565-0.305,1.487-0.517,2.497-0.407            c1.01,0.111,1.861,0.517,2.343,0.936C142.246,125.421,142.386,125.815,142.233,125.984z"/>
									</g>
								</g>
							</g>
						</g>
						<g>
							<g>
								<g>
									<path style="fill:#263238;" d="M143.719,120.484c0,0-2.68-6.692-5.856-8.299c-3.844-1.945-5.589,2.282-9.266,1.183           c-3.677-1.098-7.347-2.964-11.174-0.174c-4.189,3.053-2.291,5.281-2.63,9.983c-1.373,19.063-4.952,24.397-5.785,15.392           c-0.091-0.987-2.81-1.818-3.141-5.985c-0.43-5.404-0.521-11.958,0.75-15.764c1.072-3.209,2.951-5.406,6.294-7.805           c5.276-3.788,12.431-3.745,17.281-3.17C135.041,106.419,144.308,112.174,143.719,120.484z"/>
								</g>
							</g>
						</g>
						<g>
							<g>
								<g>
									<path style="fill:#FFBF9D;" d="M109.69,138.292c-0.038-1.638-1.426-2.956-3.06-2.829c-1.981,0.153-4.203,1.237-4.144,5.328           c0.103,7.255,7.367,5.655,7.376,5.447C109.869,146.096,109.76,141.328,109.69,138.292z"/>
								</g>
							</g>
						</g>
						<g>
							<g>
								<g>
									<path style="fill:#FF9A6C;" d="M108.245,143.529c-0.032-0.023-0.125,0.091-0.338,0.191           c-0.207,0.098-0.564,0.169-0.945,0.033c-0.771-0.27-1.433-1.478-1.487-2.785c-0.028-0.66,0.102-1.291,0.328-1.815           c0.214-0.534,0.552-0.91,0.937-0.984c0.383-0.094,0.659,0.133,0.751,0.336c0.1,0.201,0.056,0.347,0.095,0.359           c0.021,0.018,0.154-0.124,0.091-0.423c-0.032-0.144-0.12-0.314-0.292-0.45c-0.176-0.139-0.433-0.208-0.702-0.175           c-0.559,0.047-1.055,0.569-1.304,1.144c-0.28,0.578-0.441,1.287-0.41,2.029c0.068,1.462,0.835,2.819,1.889,3.107           c0.512,0.126,0.936-0.034,1.153-0.208C108.234,143.705,108.27,143.542,108.245,143.529z"/>
								</g>
							</g>
						</g>
					</g>
					<g>
						<g>
							<path style="fill:#263238;" d="M110.08,124.245c0.931,0.66,1.914,1.34,3.047,1.472c1.133,0.132,2.442-0.496,2.653-1.617         c0.095-0.503-0.018-1.091,0.321-1.475c0.404-0.458,1.132-0.3,1.739-0.224c2.105,0.261,4.29-1.192,4.863-3.234         c0.523,0.815,1.779,0.802,2.602,0.292c0.823-0.51,1.362-1.36,2.012-2.078c0.65-0.718,1.555-1.354,2.511-1.201         c0.535,0.086,1.031,0.414,1.571,0.376c0.954-0.068,1.438-1.175,1.599-2.118c0.161-0.943,0.292-2.043,1.108-2.543         c0.756-0.463,1.72-0.171,2.594-0.026c0.874,0.145,2.01-0.041,2.249-0.894c0.126-0.448-0.059-0.924-0.301-1.321         c-1.098-1.798-3.546-2.631-5.512-1.876c-0.667-2.409-2.875-4.313-5.356-4.619c-2.481-0.306-5.086,1.004-6.318,3.179         c-1.508-1.418-3.725-2.041-5.751-1.616c-2.026,0.424-3.806,1.885-4.618,3.789c-1.756-0.495-3.779,0.152-4.922,1.573         c-1.143,1.422-1.339,3.536-0.478,5.145c-1.317,0.722-2.456,1.997-2.509,3.498c-0.053,1.501,1.382,3.022,2.838,2.653         c-0.606,1.158-0.158,2.753,0.963,3.426c1.121,0.673,2.739,0.319,3.476-0.76"/>
						</g>
					</g>
					<g>
						<g>
							<g>
								<path style="fill:#455A64;" d="M133.636,109.92c0.006,0.001,0.005,0.045-0.004,0.133c-0.011,0.087-0.019,0.219-0.053,0.386          c-0.073,0.334-0.216,0.827-0.551,1.388c-0.337,0.552-0.856,1.188-1.638,1.686c-0.767,0.504-1.813,0.88-2.985,0.795          l0.126-0.159c0.214,0.624,0.139,1.367-0.181,2c-0.304,0.643-0.775,1.21-1.273,1.761c-0.254,0.265-0.477,0.577-0.826,0.818          c-0.34,0.231-0.744,0.362-1.157,0.406c-0.82,0.09-1.738-0.179-2.319-0.878l0.272-0.073c-0.21,1.438-1.055,2.866-2.373,3.723          c-0.698,0.486-1.556,0.775-2.395,0.738c-0.84-0.023-1.615-0.283-2.338-0.556l0.195-0.082          c-0.406,0.895-1.018,1.653-1.756,2.208c-0.724,0.554-1.681,0.87-2.538,0.643c-1.705-0.392-2.815-1.836-3.02-3.18          l0.163,0.079c-0.857,0.448-1.77,0.476-2.498,0.322c-0.739-0.149-1.315-0.481-1.724-0.806          c-0.41-0.331-0.651-0.668-0.795-0.901c-0.132-0.242-0.185-0.375-0.177-0.378c0.037-0.029,0.231,0.555,1.047,1.182          c0.407,0.299,0.971,0.604,1.683,0.729c0.702,0.133,1.566,0.085,2.358-0.344l0.137-0.075l0.026,0.154          c0.208,1.254,1.278,2.602,2.859,2.948c0.777,0.197,1.619-0.086,2.305-0.61c0.689-0.523,1.273-1.254,1.65-2.095l0.06-0.133          l0.136,0.051c0.712,0.267,1.461,0.511,2.236,0.53c0.776,0.03,1.546-0.227,2.212-0.687c1.245-0.81,2.039-2.146,2.244-3.508          l0.051-0.342l0.221,0.27c0.49,0.597,1.312,0.854,2.048,0.774c0.37-0.038,0.729-0.152,1.025-0.351          c0.289-0.191,0.521-0.499,0.779-0.766c0.497-0.542,0.955-1.087,1.244-1.685c0.305-0.591,0.372-1.244,0.19-1.809          l-0.056-0.174l0.182,0.015c1.104,0.094,2.111-0.244,2.86-0.717c0.764-0.465,1.281-1.068,1.627-1.594          C133.592,110.671,133.584,109.903,133.636,109.92z"/>
							</g>
						</g>
					</g>
				</g>
			</g>
			<path style="fill:#FF9A6C;" d="M127.136,144.827c1.976,0.399,3.904,1.039,5.727,1.9l0.016,0.052     c-0.246,1.35-0.666,2.83-1.843,3.535c-0.875,0.525-2.04,0.473-2.913-0.055c-0.874-0.527-1.426-1.343-1.577-2.352     C126.395,146.898,126.801,145.764,127.136,144.827z"/>
			<g>
				<path style="fill:#263238;" d="M129.835,150.527c0.005-0.094-0.846,0.179-1.835-0.544c-0.479-0.348-0.934-0.92-1.112-1.682      c-0.191-0.756-0.119-1.652,0.161-2.53c0.065-0.199,0.162-0.481,0.227-0.595c0.049-0.038-0.037-0.009,0.034-0.012l0.302,0.093      c0.426,0.133,0.841,0.263,1.247,0.39c0.745,0.221,1.452,0.432,2.121,0.631c1.212,0.345,1.973,0.524,1.995,0.456      c0.022-0.068-0.699-0.37-1.882-0.805c-0.659-0.233-1.354-0.478-2.087-0.737c-0.403-0.136-0.815-0.275-1.238-0.418      c-0.117-0.036-0.194-0.07-0.352-0.111c-0.154-0.072-0.498,0.054-0.568,0.224c-0.165,0.294-0.203,0.473-0.294,0.727      c-0.303,0.948-0.374,1.949-0.129,2.808c0.23,0.867,0.803,1.52,1.368,1.863c0.569,0.361,1.134,0.438,1.499,0.407      C129.663,150.659,129.844,150.553,129.835,150.527z"/>
			</g>
		</g>
	</g>
</g>
</svg>