<svg xmlns="http://www.w3.org/2000/svg" version="1.1" xmlns:xlink="http://www.w3.org/1999/xlink" xmlns:svgjs="http://svgjs.dev/svgjs" width="128" height="128" viewBox="0 0 128 128"><g transform="matrix(0.8046875,0,0,0.8046875,12.760752631578946,18.282026654298804)"><svg viewBox="0 0 95 85" data-background-color="#755bb4" preserveAspectRatio="xMidYMid meet" height="114" width="128" xmlns="http://www.w3.org/2000/svg" xmlns:xlink="http://www.w3.org/1999/xlink"><g id="tight-bounds" transform="matrix(1,0,0,1,-0.24049999999999727,-0.13826009187285138)"><svg viewBox="0 0 95.481 85.27652018374572" height="85.27652018374572" width="95.481"><g><svg viewBox="0 0 95.481 85.27652018374572" height="85.27652018374572" width="95.481"><g><svg viewBox="0 0 95.481 85.27652018374572" height="85.27652018374572" width="95.481"><g id="textblocktransform"><svg viewBox="0 0 95.481 85.27652018374572" height="85.27652018374572" width="95.481" id="textblock"><g><svg viewBox="0 0 95.481 85.27652018374572" height="85.27652018374572" width="95.481"><g><svg viewBox="0 0 95.481 85.27652018374572" height="85.27652018374572" width="95.481"><g><svg xmlns="http://www.w3.org/2000/svg" xmlns:xlink="http://www.w3.org/1999/xlink" version="1.1" x="0" y="0" viewBox="41.395 53.001 217.20910462913773 193.995" enable-background="new 0 0 300 300" xml:space="preserve" height="85.27652018374572" width="95.481" class="icon-icon-0" data-fill-palette-color="accent" id="icon-0"><g fill="#35185a" data-fill-palette-color="accent"><path d="M254.735 184.365L245.949 183.24C245.468 181.883 244.867 180.5 244.084 178.918L249.478 172.033A4.44 4.44 0 0 0 249.177 166.092L238.301 155.215A4.456 4.456 0 0 0 232.379 154.906L225.479 160.31C223.888 159.523 222.502 158.921 221.157 158.447L220.034 149.654A4.46 4.46 0 0 0 215.876 145.794L200.477 145.793A4.5 4.5 0 0 0 199.66 145.799L199.533 145.818A4.43 4.43 0 0 0 195.97 149.662L194.848 158.448C193.487 158.928 192.103 159.528 190.524 160.311L183.642 154.918A4.47 4.47 0 0 0 180.837 153.924 4.43 4.43 0 0 0 177.695 155.219L166.82 166.094A4.445 4.445 0 0 0 166.511 172.018L171.916 178.916C171.127 180.508 170.527 181.895 170.051 183.238L161.258 184.363A4.46 4.46 0 0 0 157.396 188.806V204.189L157.399 204.267A4.465 4.465 0 0 0 161.265 208.427L170.052 209.548C170.533 210.905 171.131 212.29 171.916 213.872L166.521 220.755A4.45 4.45 0 0 0 166.824 226.698L177.699 237.573A4.43 4.43 0 0 0 180.836 238.862 4.46 4.46 0 0 0 183.621 237.883L190.521 232.477C192.113 233.266 193.498 233.862 194.845 234.34L195.97 243.133A4.47 4.47 0 0 0 200.382 246.996H215.792L215.872 246.994A4.465 4.465 0 0 0 220.03 243.123L221.153 234.338C222.514 233.858 223.899 233.258 225.476 232.477L232.358 237.868A4.46 4.46 0 0 0 235.165 238.862 4.44 4.44 0 0 0 238.305 237.569L249.179 226.692C250.781 225.075 250.911 222.52 249.49 220.772L244.082 213.87C244.875 212.278 245.471 210.893 245.949 209.546L254.74 208.427A4.47 4.47 0 0 0 258.601 204.267L258.604 188.816A4.46 4.46 0 0 0 254.735 184.365M249.395 200.094L242.176 200.973C240.348 201.153 238.869 202.467 238.385 204.254 237.651 207.082 236.566 209.793 235.09 212.295 234.139 213.867 234.277 215.893 235.427 217.367L240.185 223.172 234.773 228.588 228.948 223.818A4.46 4.46 0 0 0 223.915 223.514 31.5 31.5 0 0 1 215.847 226.858C214.074 227.338 212.761 228.844 212.585 230.649L211.702 238.003H204.305L203.425 230.673C203.245 228.845 201.931 227.318 200.145 226.831A31.3 31.3 0 0 1 192.105 223.511C190.563 222.575 188.498 222.691 187.031 223.833L181.227 228.585 175.812 223.171 180.582 217.343A4.47 4.47 0 0 0 180.89 212.312 31.4 31.4 0 0 1 177.545 204.242C177.064 202.469 175.558 201.154 173.756 200.978L166.397 200.095V192.699L173.724 191.824C175.555 191.644 177.082 190.328 177.571 188.539A31.3 31.3 0 0 1 180.89 180.498C181.84 178.93 181.717 176.898 180.568 175.424L175.829 169.637 181.231 164.387 187.059 168.977A4.47 4.47 0 0 0 192.092 169.281 31.4 31.4 0 0 1 200.16 165.937C201.931 165.455 203.246 164.054 203.424 162.251L204.305 155.003H211.703L212.582 162.224C212.76 164.052 214.073 165.531 215.863 166.017 218.69 166.747 221.401 167.835 223.905 169.308 225.445 170.246 227.523 170.103 228.957 168.988L234.777 164.396 240.182 169.642 235.423 175.451A4.48 4.48 0 0 0 235.12 180.488 31.3 31.3 0 0 1 238.462 188.558C238.943 190.328 240.346 191.642 242.147 191.818L249.395 192.699z" fill="#000000" data-fill-palette-color="accent"></path><path d="M207.998 170.404C193.668 170.404 182.012 182.066 182.012 196.396 182.012 210.728 193.668 222.388 207.998 222.388 222.334 222.388 233.992 210.728 233.992 196.396 233.992 182.066 222.334 170.404 207.998 170.404M220.093 208.486C216.877 211.707 212.584 213.478 207.998 213.478 198.582 213.478 190.92 205.816 190.92 196.394 190.92 186.978 198.582 179.314 207.998 179.314 212.584 179.314 216.877 181.084 220.093 184.302 223.312 187.523 225.082 191.816 225.082 196.394 225.082 200.977 223.312 205.27 220.093 208.486" fill="#000000" data-fill-palette-color="accent"></path><path d="M51.395 213.594V98.079C51.395 93.614 55.04 90.002 59.503 90.002H222.274C226.738 90.002 230.395 93.615 230.395 98.079V141.002H240.395V98.079C240.395 87.84 232.514 80.002 222.275 80.002H180.395V61.323C180.395 56.859 176.857 53.001 172.393 53.001H109.386C104.923 53.001 101.396 56.86 101.396 61.323V80.001H59.503C49.265 80.001 41.395 87.839 41.395 98.078V213.593C41.395 223.831 49.265 232.001 59.503 232.001H153.395V221.001H59.503C55.04 221.002 51.395 218.059 51.395 213.594M112.395 64.001H169.395V80.001H112.395z" fill="#000000" data-fill-palette-color="accent"></path></g></svg></g></svg></g></svg></g></svg></g></svg></g></svg></g><defs></defs></svg><rect width="95.481" height="85.27652018374572" fill="none" stroke="none" visibility="hidden"></rect></g></svg></g></svg>